{
.appVersion = "3151";
.formatVersion = 3;
DisplayStrings = (
"ßSAE",
j
);
customParameters = (
{
name = GSDimensionPlugin.Dimensions;
value = {
"2D5DB4C4-262E-47E8-BF15-1369FA24FBF3" = {
HH = 210;
HV = 211;
OH = 210;
OV = 211;
nV = 211;
oH = 211;
oV = 211;
tH = 211;
};
};
},
{
name = license;
value = "This Font Software is licensed under the SIL Open Font License, Version 1.1. This license is available with a FAQ at: http://scripts.sil.org/OFL";
},
{
name = licenseURL;
value = "http://scripts.sil.org/OFL";
},
{
name = fsType;
value = (
);
},
{
name = "Use Typo Metrics";
value = 1;
},
{
name = "Disable Last Change";
value = 1;
},
{
name = "Use Line Breaks";
value = 1;
}
);
date = "2024-01-12 17:05:18 +0000";
familyName = Anta;
featurePrefixes = (
{
automatic = 1;
code = "languagesystem DFLT dflt;

languagesystem latn dflt;
languagesystem latn ROM;
languagesystem latn MOL;
languagesystem latn CAT;
";
name = Languagesystems;
}
);
features = (
{
automatic = 1;
code = "feature locl;
feature sups;
feature frac;
feature ordn;
feature case;
";
tag = aalt;
},
{
automatic = 1;
code = "lookup ccmp_latn_1 {
	sub fi by f i;
	sub fl by f l;
	sub Ldot by L periodcentered.loclCAT.case;
} ccmp_latn_1;

script latn;
lookup ccmp_latn_1;
";
tag = ccmp;
},
{
automatic = 1;
code = "lookup locl_latn_0 {
	script latn;
	language ROM;
	sub Scedilla by Scommaaccent;
	language MOL;
	sub Scedilla by Scommaaccent;
} locl_latn_0;

lookup locl_latn_1 {
	script latn;
	language CAT;
	sub l periodcentered' l by periodcentered.loclCAT;
	sub L periodcentered' L by periodcentered.loclCAT.case;
} locl_latn_1;
";
tag = locl;
},
{
automatic = 1;
code = "sub one by onesuperior;
sub two by twosuperior;
sub three by threesuperior;
";
tag = sups;
},
{
automatic = 1;
code = "sub one slash four by onequarter;
sub one slash two by onehalf;
sub three slash four by threequarters;
";
tag = frac;
},
{
automatic = 1;
code = "sub [zero one two three four five six seven eight nine] [A a]' by ordfeminine;

glyphs = (
{
glyphname = A;
kernLeft = A2;
kernRight = A;
lastChange = "2024-01-12 17:13:07 +0000";
layers = (
{
anchors = (
{
name = m.ogonek;
pos = (1204,6);
},
{
name = m.ring1;
pos = (681,1544);
}
);
hints = (
{
horizontal = 1;
place = (0, 21);
target = up;
type = BottomGhost;
},
{
horizontal = 1;
place = (428, 210);
place = (428, 210);
type = Stem;
},
{
horizontal = 1;
place = (1422, -20);
target = down;
type = TopGhost;
}
);
layerId = "A0B3C83F-707E-46F6-ACEE-65DB6FEE929C";
shapes = (
{
closed = 1;
nodes = (
(40,0,l),
(265,0,l),
(681,1146,l),
(865,638,l),
(620,638,l),
(544,428,l),
(941,428,l),
(1096,0,l),
(1321,0,l),
(812,1422,l),
(549,1422,l)
);
}
);
width = 1361;
}
);
unicode = 65;
},
{
glyphname = Aacute;
kernLeft = A2;
kernRight = A;
lastChange = "2024-01-12 17:09:58 +0000";
layers = (
{
hints = (
{
horizontal = 1;
place = (0, 21);
target = up;
type = BottomGhost;
},
{
horizontal = 1;
place = (428, 210);
place = (428, 210);
type = Stem;
},
{
horizontal = 1;
place = (1422, -20);
target = down;
type = TopGhost;
},
{
horizontal = 1;
place = (1544, 422);
place = (1544, 422);
type = Stem;
},
{
place = (567, 312);
place = (567, 312);
type = Stem;
}
);
layerId = "A0B3C83F-707E-46F6-ACEE-65DB6FEE929C";
shapes = (
{
closed = 1;
nodes = (
(567,1597,l),
(681,1544,l),
(879,1878,l),
(696,1966,l)
);
},
{
closed = 1;
nodes = (
(40,0,l),
(265,0,l),
(681,1146,l),
(865,638,l),
(620,638,l),
(544,428,l),
(941,428,l),
(1096,0,l),
(1321,0,l),
(812,1422,l),
(549,1422,l)
);
}
);
width = 1361;
}
);
unicode = 193;
},
{
glyphname = Abreve;
kernLeft = A2;
kernRight = A;
lastChange = "2024-01-12 17:09:58 +0000";
layers = (
{
hints = (
{
horizontal = 1;
place = (0, 21);
target = up;
type = BottomGhost;
},
{
horizontal = 1;
place = (428, 210);
place = (428, 210);
type = Stem;
},
{
horizontal = 1;
place = (1422, -20);
target = down;
type = TopGhost;
},
{
horizontal = 1;
place = (1546, 134);
place = (1546, 134);
type = Stem;
},
{
horizontal = 1;
place = (1844, -20);
target = down;
type = TopGhost;
},
{
place = (383, 134);
place = (383, 134);
type = Stem;
},
{
place = (845, 134);
place = (845, 134);
type = Stem;
}
);
layerId = "A0B3C83F-707E-46F6-ACEE-65DB6FEE929C";
shapes = (
{
closed = 1;
nodes = (
(383,1844,l),
(383,1680,o),
(517,1546,o),
(681,1546,cs),
(845,1546,o),
(979,1680,o),
(979,1844,c),
(845,1844,l),
(845,1754,o),
(771,1680,o),
(681,1680,cs),
(591,1680,o),
(517,1754,o),
(517,1844,c)
);
},
{
closed = 1;
nodes = (
(40,0,l),
(265,0,l),
(681,1146,l),
(865,638,l),
(620,638,l),
(544,428,l),
(941,428,l),
(1096,0,l),
(1321,0,l),
(812,1422,l),
(549,1422,l)
);
}
);
width = 1361;
}
);
unicode = 258;
},
{
glyphname = Acircumflex;
kernLeft = A2;
kernRight = A;
lastChange = "2024-01-12 17:09:58 +0000";
layers = (
{
hints = (
{
horizontal = 1;
place = (0, 21);
target = up;
type = BottomGhost;
},
{
horizontal = 1;
place = (428, 210);
place = (428, 210);
type = Stem;
},
{
horizontal = 1;
place = (1422, -20);
target = down;
type = TopGhost;
},
{
horizontal = 1;
place = (1543, 309);
place = (1543, 309);
type = Stem;
},
{
place = (370, 623);
place = (370, 623);
type = Stem;
}
);
layerId = "A0B3C83F-707E-46F6-ACEE-65DB6FEE929C";
shapes = (
{
closed = 1;
nodes = (
(370,1543,l),
(511,1543,l),
(681,1715,l),
(852,1543,l),
(993,1543,l),
(759,1852,l),
(604,1852,l)
);
},
{
closed = 1;
nodes = (
(40,0,l),
(265,0,l),
(681,1146,l),
(865,638,l),
(620,638,l),
(544,428,l),
(941,428,l),
(1096,0,l),
(1321,0,l),
(812,1422,l),
(549,1422,l)
);
}
);
width = 1361;
}
);
unicode = 194;
},
{
glyphname = Adieresis;
kernLeft = A2;
kernRight = A;
lastChange = "2024-01-12 17:09:58 +0000";
layers = (
{
hints = (
{
horizontal = 1;
place = (0, 21);
target = up;
type = BottomGhost;
},
{
horizontal = 1;
place = (428, 210);
place = (428, 210);
type = Stem;
},
{
horizontal = 1;
place = (1422, -20);
target = down;
type = TopGhost;
},
{
horizontal = 1;
place = (1545, 221);
place = (1545, 221);
type = Stem;
},
{
place = (401, 221);
place = (401, 221);
type = Stem;
},
{
place = (741, 221);
place = (741, 221);
type = Stem;
}
);
layerId = "A0B3C83F-707E-46F6-ACEE-65DB6FEE929C";
shapes = (
{
closed = 1;
nodes = (
(401,1594,o),
(450,1545,o),
(511,1545,cs),
(573,1545,o),
(622,1594,o),
(622,1655,cs),
(622,1717,o),
(573,1766,o),
(511,1766,cs),
(450,1766,o),
(401,1717,o),
(401,1655,cs)
);
},
{
closed = 1;
nodes = (
(741,1594,o),
(790,1545,o),
(851,1545,cs),
(913,1545,o),
(962,1594,o),
(962,1655,cs),
(962,1717,o),
(913,1766,o),
(851,1766,cs),
(790,1766,o),
(741,1717,o),
(741,1655,cs)
);
},
{
closed = 1;
nodes = (
(40,0,l),
(265,0,l),
(681,1146,l),
(865,638,l),
(620,638,l),
(544,428,l),
(941,428,l),
(1096,0,l),
(1321,0,l),
(812,1422,l),
(549,1422,l)
);
}
);
width = 1361;
}
);
unicode = 196;
},
{
glyphname = Agrave;
kernLeft = A2;
kernRight = A;
lastChange = "2024-01-12 17:09:58 +0000";
layers = (
{
hints = (
{
horizontal = 1;
place = (0, 21);
target = up;
type = BottomGhost;
},
{
horizontal = 1;
place = (428, 210);
place = (428, 210);
type = Stem;
},
{
horizontal = 1;
place = (1422, -20);
target = down;
type = TopGhost;
},
{
horizontal = 1;
place = (1544, 422);
place = (1544, 422);
type = Stem;
},
{
place = (483, 312);
place = (483, 312);
type = Stem;
}
);
layerId = "A0B3C83F-707E-46F6-ACEE-65DB6FEE929C";
shapes = (
{
closed = 1;
nodes = (
(483,1878,l),
(681,1544,l),
(795,1597,l),
(666,1966,l)
);
},
{
closed = 1;
nodes = (
(40,0,l),
(265,0,l),
(681,1146,l),
(865,638,l),
(620,638,l),
(544,428,l),
(941,428,l),
(1096,0,l),
(1321,0,l),
(812,1422,l),
(549,1422,l)
);
}
);
width = 1361;
}
);
unicode = 192;
},
{
glyphname = Amacron;
kernLeft = A2;
kernRight = A;
lastChange = "2024-01-12 17:09:58 +0000";
layers = (
{
hints = (
{
horizontal = 1;
place = (0, 21);
target = up;
type = BottomGhost;
},
{
horizontal = 1;
place = (428, 210);
place = (428, 210);
type = Stem;
},
{
horizontal = 1;
place = (1422, -20);
target = down;
type = TopGhost;
},
{
horizontal = 1;
place = (1544, 147);
place = (1544, 147);
type = Stem;
},
{
place = (382, 597);
place = (382, 597);
type = Stem;
}
);
layerId = "A0B3C83F-707E-46F6-ACEE-65DB6FEE929C";
shapes = (
{
closed = 1;
nodes = (
(382,1544,l),
(979,1544,l),
(979,1691,l),
(382,1691,l)
);
},
{
closed = 1;
nodes = (
(40,0,l),
(265,0,l),
(681,1146,l),
(865,638,l),
(620,638,l),
(544,428,l),
(941,428,l),
(1096,0,l),
(1321,0,l),
(812,1422,l),
(549,1422,l)
);
}
);
width = 1361;
}
);
unicode = 256;
},
{
glyphname = Aogonek;
kernLeft = A2;
kernRight = A;
lastChange = "2024-01-12 17:09:58 +0000";
layers = (
{
hints = (
{
horizontal = 1;
place = (-307, 150);
place = (-307, 150);
type = Stem;
},
{
horizontal = 1;
place = (0, 21);
target = up;
type = BottomGhost;
},
{
horizontal = 1;
place = (428, 210);
place = (428, 210);
type = Stem;
},
{
horizontal = 1;
place = (1422, -20);
target = down;
type = TopGhost;
},
{
place = (1090, 151);
place = (1090, 151);
type = Stem;
}
);
layerId = "A0B3C83F-707E-46F6-ACEE-65DB6FEE929C";
shapes = (
{
closed = 1;
nodes = (
(1090,-266,o),
(1138,-307,o),
(1242,-307,cs),
(1275,-307,o),
(1304,-304,o),
(1392,-291,c),
(1392,-143,l),
(1310,-156,o),
(1299,-157,o),
(1282,-157,cs),
(1252,-157,o),
(1241,-148,o),
(1241,-126,cs),
(1241,-106,o),
(1248,-83,o),
(1280,6,c),
(1132,6,l),
(1104,-69,o),
(1090,-130,o),
(1090,-177,cs)
);
},
{
closed = 1;
nodes = (
(40,0,l),
(265,0,l),
(681,1146,l),
(865,638,l),
(620,638,l),
(544,428,l),
(941,428,l),
(1096,0,l),
(1321,0,l),
(812,1422,l),
(549,1422,l)
);
}
);
width = 1361;
}
);
unicode = 260;
},
{
glyphname = Aring;
kernLeft = A2;
kernRight = A;
lastChange = "2024-01-12 17:09:58 +0000";
layers = (
{
hints = (
{
horizontal = 1;
place = (0, 21);
target = up;
type = BottomGhost;
},
{
horizontal = 1;
place = (428, 210);
place = (428, 210);
type = Stem;
},
{
horizontal = 1;
place = (1422, -20);
target = down;
type = TopGhost;
},
{
horizontal = 1;
place = (1544, 118);
place = (1544, 118);
type = Stem;
},
{
horizontal = 1;
place = (1807, 118);
place = (1807, 118);
type = Stem;
},
{
place = (491, 118);
place = (491, 118);
type = Stem;
},
{
place = (753, 118);
place = (753, 118);
type = Stem;
}
);
layerId = "A0B3C83F-707E-46F6-ACEE-65DB6FEE929C";
shapes = (
{
closed = 1;
nodes = (
(491,1713,ls),
(491,1619,o),
(567,1544,o),
(661,1544,cs),
(701,1544,ls),
(795,1544,o),
(871,1619,o),
(871,1713,cs),
(871,1756,ls),
(871,1850,o),
(795,1925,o),
(701,1925,cs),
(661,1925,ls),
(567,1925,o),
(491,1850,o),
(491,1756,cs)
);
},
{
closed = 1;
nodes = (
(609,1756,ls),
(609,1784,o),
(632,1807,o),
(661,1807,cs),
(701,1807,ls),
(730,1807,o),
(753,1784,o),
(753,1756,cs),
(753,1713,ls),
(753,1685,o),
(730,1662,o),
(701,1662,cs),
(661,1662,ls),
(632,1662,o),
(609,1685,o),
(609,1713,cs)
);
},
{
closed = 1;
nodes = (
(40,0,l),
(265,0,l),
(681,1146,l),
(865,638,l),
(620,638,l),
(544,428,l),
(941,428,l),
(1096,0,l),
(1321,0,l),
(812,1422,l),
(549,1422,l)
);
}
);
width = 1361;
}
);
unicode = 197;
},
{
glyphname = Atilde;
kernLeft = A2;
kernRight = A;
lastChange = "2024-01-12 17:09:58 +0000";
layers = (
{
hints = (
{
horizontal = 1;
place = (0, 21);
target = up;
type = BottomGhost;
},
{
horizontal = 1;
place = (428, 210);
place = (428, 210);
type = Stem;
},
{
horizontal = 1;
place = (1422, -20);
target = down;
type = TopGhost;
},
{
horizontal = 1;
place = (1544, 154);
place = (1544, 154);
type = Stem;
},
{
horizontal = 1;
place = (1625, 148);
place = (1625, 148);
type = Stem;
},
{
place = (351, 155);
place = (351, 155);
type = Stem;
},
{
place = (852, 157);
place = (852, 157);
type = Stem;
}
);
layerId = "A0B3C83F-707E-46F6-ACEE-65DB6FEE929C";
shapes = (
{
closed = 1;
nodes = (
(506,1552,l),
(506,1602,o),
(520,1625,o),
(551,1625,cs),
(582,1625,o),
(609,1616,o),
(684,1584,cs),
(754,1554,o),
(786,1544,o),
(817,1544,cs),
(924,1544,o),
(1009,1644,o),
(1009,1768,c),
(852,1768,l),
(852,1720,o),
(838,1698,o),
(807,1698,cs),
(776,1698,o),
(749,1706,o),
(676,1736,cs),
(608,1764,o),
(576,1773,o),
(545,1773,cs),
(433,1773,o),
(352,1680,o),
(351,1552,c)
);
},
{
closed = 1;
nodes = (
(40,0,l),
(265,0,l),
(681,1146,l),
(865,638,l),
(620,638,l),
(544,428,l),
(941,428,l),
(1096,0,l),
(1321,0,l),
(812,1422,l),
(549,1422,l)
);
}
);
width = 1361;
}
);
unicode = 195;
},
{
glyphname = AE;
kernLeft = at;
lastChange = "2024-01-12 17:30:35 +0000";
layers = (
{
anchors = (
{
name = m.ring1;
pos = (1022,1544);
}
);
hints = (
{
horizontal = 1;
place = (0, 211);
place = (0, 211);
type = Stem;
},
{
horizontal = 1;
place = (428, 210);
place = (428, 210);
type = Stem;
},
{
horizontal = 1;
place = (635, 210);
place = (635, 210);
type = Stem;
},
{
horizontal = 1;
place = (1212, 210);
place = (1212, 210);
type = Stem;
},
{
place = (819, 210);
place = (819, 210);
type = Stem;
}
);
layerId = "A0B3C83F-707E-46F6-ACEE-65DB6FEE929C";
shapes = (
{
closed = 1;
nodes = (
(40,0,l),
(264,0,l),
(685,1212,l),
(819,1212,l),
(819,638,l),
(606,638,l),
(533,428,l),
(819,428,l),
(819,0,l),
(1924,0,l),
(1924,211,l),
(1029,211,l),
(1029,1212,l),
(1924,1212,l),
(1924,1422,l),
(533,1422,l)
);
},
{
closed = 1;
nodes = (
(1151,635,l),
(1923,635,l),
(1923,845,l),
(1151,845,l)
);
}
);
width = 2044;
}
);
unicode = 198;
},
{
glyphname = AEacute;
kernLeft = A2;
lastChange = "2024-01-12 17:09:58 +0000";
layers = (
{
hints = (
{
horizontal = 1;
place = (0, 211);
place = (0, 211);
type = Stem;
},
{
horizontal = 1;
place = (428, 210);
place = (428, 210);
type = Stem;
},
{
horizontal = 1;
place = (635, 210);
place = (635, 210);
type = Stem;
},
{
horizontal = 1;
place = (1212, 210);
place = (1212, 210);
type = Stem;
},
{
horizontal = 1;
place = (1544, 422);
place = (1544, 422);
type = Stem;
},
{
place = (819, 210);
place = (819, 210);
type = Stem;
},
{
place = (908, 312);
place = (908, 312);
type = Stem;
}
);
layerId = "A0B3C83F-707E-46F6-ACEE-65DB6FEE929C";
shapes = (
{
closed = 1;
nodes = (
(908,1597,l),
(1022,1544,l),
(1220,1878,l),
(1037,1966,l)
);
},
{
closed = 1;
nodes = (
(40,0,l),
(264,0,l),
(685,1212,l),
(819,1212,l),
(819,638,l),
(606,638,l),
(533,428,l),
(819,428,l),
(819,0,l),
(1924,0,l),
(1924,211,l),
(1029,211,l),
(1029,1212,l),
(1924,1212,l),
(1924,1422,l),
(533,1422,l)
);
},
{
closed = 1;
nodes = (
(1151,635,l),
(1923,635,l),
(1923,845,l),
(1151,845,l)
);
}
);
width = 2044;
}
);
unicode = 508;
},
{
glyphname = B;
kernLeft = B2;
kernRight = B;
lastChange = "2024-01-12 17:30:35 +0000";
layers = (
{
anchors = (
{
name = m.ring1;
pos = (704,1544);
}
);
hints = (
{
horizontal = 1;
place = (0, 211);
place = (0, 211);
type = Stem;
},
{
horizontal = 1;
place = (639, 210);
place = (639, 210);
type = Stem;
},
{
horizontal = 1;
place = (1212, 210);
place = (1212, 210);
type = Stem;
},
{
place = (140, 211);
place = (140, 211);
type = Stem;
},
{
place = (1033, 210);
place = (1033, 210);
type = Stem;
},
{
place = (1088, 210);
place = (1088, 210);
type = Stem;
}
);
layerId = "A0B3C83F-707E-46F6-ACEE-65DB6FEE929C";
shapes = (
{
closed = 1;
nodes = (
(140,0,l),
(946,0,ls),
(1140,0,o),
(1298,154,o),
(1298,343,cs),
(1298,500,ls),
(1298,627,o),
(1258,707,o),
(1163,768,c),
(1213,813,o),
(1243,892,o),
(1243,979,cs),
(1243,1072,ls),
(1243,1267,o),
(1086,1422,o),
(889,1422,cs),
(140,1422,l)
);
},
{
closed = 1;
nodes = (
(351,211,l),
(351,1212,l),
(889,1212,ls),
(968,1212,o),
(1033,1149,o),
(1033,1072,cs),
(1033,981,ls),
(1033,908,o),
(968,849,o),
(889,849,cs),
(471,849,l),
(471,639,l),
(947,639,ls),
(1025,639,o),
(1088,578,o),
(1088,503,cs),
(1088,346,ls),
(1088,271,o),
(1025,211,o),
(948,211,cs)
);
}
);
width = 1408;
}
);
unicode = 66;
},
{
glyphname = C;
kernLeft = C2;
kernRight = C;
lastChange = "2024-01-12 17:30:35 +0000";
layers = (
{
anchors = (
{
name = m.ogonek;
pos = (690,6);
},
{
name = m.ring1;
pos = (690,1544);
}
);
hints = (
{
horizontal = 1;
place = (0, 211);
place = (0, 211);
type = Stem;
},
{
horizontal = 1;
place = (1212, 210);
place = (1212, 210);
type = Stem;
},
{
place = (120, 211);
place = (120, 211);
type = Stem;
}
);
layerId = "A0B3C83F-707E-46F6-ACEE-65DB6FEE929C";
shapes = (
{
closed = 1;
nodes = (
(120,393,ls),
(120,176,o),
(302,0,o),
(526,0,cs),
(1271,0,l),
(1271,211,l),
(526,211,ls),
(418,211,o),
(331,294,o),
(331,396,cs),
(331,1022,ls),
(331,1127,o),
(418,1212,o),
(526,1212,cs),
(1271,1212,l),
(1271,1422,l),
(526,1422,ls),
(302,1422,o),
(120,1243,o),
(120,1022,cs)
);
}
);
width = 1381;
}
);
unicode = 67;
},
{
glyphname = Cacute;
kernLeft = at;
kernRight = C;
lastChange = "2024-01-12 17:09:58 +0000";
layers = (
{
hints = (
{
horizontal = 1;
place = (0, 211);
place = (0, 211);
type = Stem;
},
{
horizontal = 1;
place = (1212, 210);
place = (1212, 210);
type = Stem;
},
{
horizontal = 1;
place = (1544, 422);
place = (1544, 422);
type = Stem;
},
{
place = (120, 211);
place = (120, 211);
type = Stem;
},
{
place = (576, 312);
place = (576, 312);
type = Stem;
}
);
layerId = "A0B3C83F-707E-46F6-ACEE-65DB6FEE929C";
shapes = (
{
closed = 1;
nodes = (
(576,1597,l),
(690,1544,l),
(888,1878,l),
(705,1966,l)
);
},
{
closed = 1;
nodes = (
(120,393,ls),
(120,176,o),
(302,0,o),
(526,0,cs),
(1271,0,l),
(1271,211,l),
(526,211,ls),
(418,211,o),
(331,294,o),
(331,396,cs),
(331,1022,ls),
(331,1127,o),
(418,1212,o),
(526,1212,cs),
(1271,1212,l),
(1271,1422,l),
(526,1422,ls),
(302,1422,o),
(120,1243,o),
(120,1022,cs)
);
}
);
width = 1381;
}
);
unicode = 262;
},
{
glyphname = Ccaron;
kernLeft = at;
kernRight = C;
lastChange = "2024-01-12 17:09:58 +0000";
layers = (
{
hints = (
{
horizontal = 1;
place = (0, 211);
place = (0, 211);
type = Stem;
},
{
horizontal = 1;
place = (1212, 210);
place = (1212, 210);
type = Stem;
},
{
horizontal = 1;
place = (1544, 309);
place = (1544, 309);
type = Stem;
},
{
place = (120, 211);
place = (120, 211);
type = Stem;
},
{
place = (378, 623);
place = (378, 623);
type = Stem;
}
);
layerId = "A0B3C83F-707E-46F6-ACEE-65DB6FEE929C";
shapes = (
{
closed = 1;
nodes = (
(378,1853,l),
(612,1544,l),
(767,1544,l),
(1001,1853,l),
(860,1853,l),
(689,1681,l),
(519,1853,l)
);
},
{
closed = 1;
nodes = (
(120,393,ls),
(120,176,o),
(302,0,o),
(526,0,cs),
(1271,0,l),
(1271,211,l),
(526,211,ls),
(418,211,o),
(331,294,o),
(331,396,cs),
(331,1022,ls),
(331,1127,o),
(418,1212,o),
(526,1212,cs),
(1271,1212,l),
(1271,1422,l),
(526,1422,ls),
(302,1422,o),
(120,1243,o),
(120,1022,cs)
);
}
);
width = 1381;
}
);
unicode = 268;
},
{
glyphname = Ccedilla;
kernLeft = at;
kernRight = C;
lastChange = "2024-01-12 17:09:58 +0000";
layers = (
{
hints = (
{
horizontal = 1;
place = (-307, 150);
place = (-307, 150);
type = Stem;
},
{
horizontal = 1;
place = (0, 211);
place = (0, 211);
type = Stem;
},
{
horizontal = 1;
place = (1212, 210);
place = (1212, 210);
type = Stem;
},
{
place = (120, 211);
place = (120, 211);
type = Stem;
},
{
place = (654, 151);
place = (654, 151);
type = Stem;
}
);
layerId = "A0B3C83F-707E-46F6-ACEE-65DB6FEE929C";
shapes = (
{
closed = 1;
nodes = (
(503,-291,l),
(591,-304,o),
(620,-307,o),
(653,-307,cs),
(757,-307,o),
(805,-266,o),
(805,-177,cs),
(805,-130,o),
(791,-69,o),
(763,6,c),
(615,6,l),
(647,-83,o),
(654,-106,o),
(654,-126,cs),
(654,-148,o),
(643,-157,o),
(613,-157,cs),
(596,-157,o),
(585,-156,o),
(503,-143,c)
);
},
{
closed = 1;
nodes = (
(120,393,ls),
(120,176,o),
(302,0,o),
(526,0,cs),
(1271,0,l),
(1271,211,l),
(526,211,ls),
(418,211,o),
(331,294,o),
(331,396,cs),
(331,1022,ls),
(331,1127,o),
(418,1212,o),
(526,1212,cs),
(1271,1212,l),
(1271,1422,l),
(526,1422,ls),
(302,1422,o),
(120,1243,o),
(120,1022,cs)
);
}
);
width = 1381;
}
);
unicode = 199;
},
{
glyphname = Ccircumflex;
kernLeft = at;
kernRight = C;
lastChange = "2024-01-12 17:09:58 +0000";
layers = (
{
hints = (
{
horizontal = 1;
place = (0, 211);
place = (0, 211);
type = Stem;
},
{
horizontal = 1;
place = (1212, 210);
place = (1212, 210);
type = Stem;
},
{
horizontal = 1;
place = (1543, 309);
place = (1543, 309);
type = Stem;
},
{
place = (120, 211);
place = (120, 211);
type = Stem;
},
{
place = (379, 623);
place = (379, 623);
type = Stem;
}
);
layerId = "A0B3C83F-707E-46F6-ACEE-65DB6FEE929C";
shapes = (
{
closed = 1;
nodes = (
(379,1543,l),
(520,1543,l),
(690,1715,l),
(861,1543,l),
(1002,1543,l),
(768,1852,l),
(613,1852,l)
);
},
{
closed = 1;
nodes = (
(120,393,ls),
(120,176,o),
(302,0,o),
(526,0,cs),
(1271,0,l),
(1271,211,l),
(526,211,ls),
(418,211,o),
(331,294,o),
(331,396,cs),
(331,1022,ls),
(331,1127,o),
(418,1212,o),
(526,1212,cs),
(1271,1212,l),
(1271,1422,l),
(526,1422,ls),
(302,1422,o),
(120,1243,o),
(120,1022,cs)
);
}
);
width = 1381;
}
);
unicode = 264;
},
{
glyphname = Cdotaccent;
kernLeft = at;
kernRight = C;
lastChange = "2024-01-12 17:09:58 +0000";
layers = (
{
hints = (
{
horizontal = 1;
place = (0, 211);
place = (0, 211);
type = Stem;
},
{
horizontal = 1;
place = (1212, 210);
place = (1212, 210);
type = Stem;
},
{
horizontal = 1;
place = (1544, 221);
place = (1544, 221);
type = Stem;
},
{
place = (120, 211);
place = (120, 211);
type = Stem;
},
{
place = (579, 221);
place = (579, 221);
type = Stem;
}
);
layerId = "A0B3C83F-707E-46F6-ACEE-65DB6FEE929C";
shapes = (
{
closed = 1;
nodes = (
(579,1593,o),
(629,1544,o),
(690,1544,cs),
(751,1544,o),
(800,1593,o),
(800,1654,cs),
(800,1716,o),
(751,1765,o),
(690,1765,cs),
(628,1765,o),
(579,1716,o),
(579,1654,cs)
);
},
{
closed = 1;
nodes = (
(120,393,ls),
(120,176,o),
(302,0,o),
(526,0,cs),
(1271,0,l),
(1271,211,l),
(526,211,ls),
(418,211,o),
(331,294,o),
(331,396,cs),
(331,1022,ls),
(331,1127,o),
(418,1212,o),
(526,1212,cs),
(1271,1212,l),
(1271,1422,l),
(526,1422,ls),
(302,1422,o),
(120,1243,o),
(120,1022,cs)
);
}
);
width = 1381;
}
);
unicode = 266;
},
{
glyphname = D;
kernLeft = B2;
kernRight = D;
lastChange = "2024-01-12 17:30:35 +0000";
layers = (
{
anchors = (
{
name = m.ring1;
pos = (709,1544);
}
);
hints = (
{
horizontal = 1;
place = (0, 211);
place = (0, 211);
type = Stem;
},
{
horizontal = 1;
place = (1212, 210);
place = (1212, 210);
type = Stem;
},
{
place = (140, 211);
place = (140, 211);
type = Stem;
},
{
place = (1088, 210);
place = (1088, 210);
type = Stem;
}
);
layerId = "A0B3C83F-707E-46F6-ACEE-65DB6FEE929C";
shapes = (
{
closed = 1;
nodes = (
(140,0,l),
(896,0,ls),
(1118,0,o),
(1298,177,o),
(1298,396,cs),
(1298,1022,ls),
(1298,1243,o),
(1118,1422,o),
(896,1422,cs),
(140,1422,l)
);
},
{
closed = 1;
nodes = (
(351,211,l),
(351,1212,l),
(896,1212,ls),
(1002,1212,o),
(1088,1127,o),
(1088,1022,cs),
(1088,399,ls),
(1088,295,o),
(1002,211,o),
(896,211,cs)
);
}
);
width = 1418;
}
);
unicode = 68;
},
{
glyphname = Eth;
kernLeft = at;
lastChange = "2024-01-12 17:09:58 +0000";
layers = (
{
hints = (
{
horizontal = 1;
place = (0, 211);
place = (0, 211);
type = Stem;
},
{
horizontal = 1;
place = (650, 170);
place = (650, 170);
type = Stem;
},
{
horizontal = 1;
place = (1212, 210);
place = (1212, 210);
type = Stem;
},
{
place = (187, 210);
place = (187, 210);
type = Stem;
},
{
place = (1135, 210);
place = (1135, 210);
type = Stem;
}
);
layerId = "A0B3C83F-707E-46F6-ACEE-65DB6FEE929C";
shapes = (
{
closed = 1;
nodes = (
(90,650,l),
(187,650,l),
(187,0,l),
(942,0,ls),
(1164,0,o),
(1345,177,o),
(1345,396,cs),
(1345,1022,ls),
(1345,1243,o),
(1164,1422,o),
(942,1422,cs),
(187,1422,l),
(187,820,l),
(90,820,l)
);
},
{
closed = 1;
nodes = (
(397,211,l),
(397,650,l),
(867,650,l),
(867,820,l),
(397,820,l),
(397,1212,l),
(942,1212,ls),
(1048,1212,o),
(1135,1127,o),
(1135,1022,cs),
(1135,399,ls),
(1135,295,o),
(1048,211,o),
(942,211,cs)
);
}
);
width = 1465;
}
);
unicode = 208;
},
{
glyphname = Dcaron;
kernLeft = at;
lastChange = "2024-01-12 17:09:58 +0000";
layers = (
{
hints = (
{
horizontal = 1;
place = (0, 211);
place = (0, 211);
type = Stem;
},
{
horizontal = 1;
place = (1212, 210);
place = (1212, 210);
type = Stem;
},
{
horizontal = 1;
place = (1544, 309);
place = (1544, 309);
type = Stem;
},
{
place = (140, 211);
place = (140, 211);
type = Stem;
},
{
place = (397, 623);
place = (397, 623);
type = Stem;
},
{
place = (1088, 210);
place = (1088, 210);
type = Stem;
}
);
layerId = "A0B3C83F-707E-46F6-ACEE-65DB6FEE929C";
shapes = (
{
closed = 1;
nodes = (
(397,1853,l),
(631,1544,l),
(786,1544,l),
(1020,1853,l),
(879,1853,l),
(708,1681,l),
(538,1853,l)
);
},
{
closed = 1;
nodes = (
(140,0,l),
(896,0,ls),
(1118,0,o),
(1298,177,o),
(1298,396,cs),
(1298,1022,ls),
(1298,1243,o),
(1118,1422,o),
(896,1422,cs),
(140,1422,l)
);
},
{
closed = 1;
nodes = (
(351,211,l),
(351,1212,l),
(896,1212,ls),
(1002,1212,o),
(1088,1127,o),
(1088,1022,cs),
(1088,399,ls),
(1088,295,o),
(1002,211,o),
(896,211,cs)
);
}
);
width = 1418;
}
);
unicode = 270;
},
{
glyphname = Dcroat;
kernLeft = at;
lastChange = "2024-01-12 17:09:58 +0000";
layers = (
{
hints = (
{
horizontal = 1;
place = (0, 211);
place = (0, 211);
type = Stem;
},
{
horizontal = 1;
place = (650, 170);
place = (650, 170);
type = Stem;
},
{
horizontal = 1;
place = (1212, 210);
place = (1212, 210);
type = Stem;
},
{
place = (187, 210);
place = (187, 210);
type = Stem;
},
{
place = (1135, 210);
place = (1135, 210);
type = Stem;
}
);
layerId = "A0B3C83F-707E-46F6-ACEE-65DB6FEE929C";
shapes = (
{
closed = 1;
nodes = (
(90,650,l),
(187,650,l),
(187,0,l),
(942,0,ls),
(1164,0,o),
(1345,177,o),
(1345,396,cs),
(1345,1022,ls),
(1345,1243,o),
(1164,1422,o),
(942,1422,cs),
(187,1422,l),
(187,820,l),
(90,820,l)
);
},
{
closed = 1;
nodes = (
(397,211,l),
(397,650,l),
(867,650,l),
(867,820,l),
(397,820,l),
(397,1212,l),
(942,1212,ls),
(1048,1212,o),
(1135,1127,o),
(1135,1022,cs),
(1135,399,ls),
(1135,295,o),
(1048,211,o),
(942,211,cs)
);
}
);
width = 1465;
}
);
unicode = 272;
},
{
glyphname = Ddotaccent;
kernLeft = S;
lastChange = "2024-01-12 17:09:58 +0000";
layers = (
{
hints = (
{
horizontal = 1;
place = (0, 211);
place = (0, 211);
type = Stem;
},
{
horizontal = 1;
place = (1212, 210);
place = (1212, 210);
type = Stem;
},
{
horizontal = 1;
place = (1544, 221);
place = (1544, 221);
type = Stem;
},
{
place = (140, 211);
place = (140, 211);
type = Stem;
},
{
place = (598, 221);
place = (598, 221);
type = Stem;
},
{
place = (1088, 210);
place = (1088, 210);
type = Stem;
}
);
layerId = "A0B3C83F-707E-46F6-ACEE-65DB6FEE929C";
shapes = (
{
closed = 1;
nodes = (
(598,1593,o),
(648,1544,o),
(709,1544,cs),
(770,1544,o),
(819,1593,o),
(819,1654,cs),
(819,1716,o),
(770,1765,o),
(709,1765,cs),
(647,1765,o),
(598,1716,o),
(598,1654,cs)
);
},
{
closed = 1;
nodes = (
(140,0,l),
(896,0,ls),
(1118,0,o),
(1298,177,o),
(1298,396,cs),
(1298,1022,ls),
(1298,1243,o),
(1118,1422,o),
(896,1422,cs),
(140,1422,l)
);
},
{
closed = 1;
nodes = (
(351,211,l),
(351,1212,l),
(896,1212,ls),
(1002,1212,o),
(1088,1127,o),
(1088,1022,cs),
(1088,399,ls),
(1088,295,o),
(1002,211,o),
(896,211,cs)
);
}
);
width = 1418;
}
);
unicode = 7690;
},
{
glyphname = E;
kernLeft = B2;
lastChange = "2024-01-12 17:30:35 +0000";
layers = (
{
anchors = (
{
name = m.ogonek;
pos = (678,6);
},
{
name = m.ring1;
pos = (678,1544);
}
);
hints = (
{
horizontal = 1;
place = (0, 211);
place = (0, 211);
type = Stem;
},
{
horizontal = 1;
place = (635, 210);
place = (635, 210);
type = Stem;
},
{
horizontal = 1;
place = (1212, 210);
place = (1212, 210);
type = Stem;
},
{
place = (140, 211);
place = (140, 211);
type = Stem;
}
);
layerId = "A0B3C83F-707E-46F6-ACEE-65DB6FEE929C";
shapes = (
{
closed = 1;
nodes = (
(140,0,l),
(1243,0,l),
(1243,211,l),
(351,211,l),
(351,1212,l),
(1243,1212,l),
(1243,1422,l),
(140,1422,l)
);
},
{
closed = 1;
nodes = (
(471,635,l),
(1243,635,l),
(1243,845,l),
(471,845,l)
);
}
);
width = 1363;
}
);
unicode = 69;
},
{
glyphname = Eacute;
kernLeft = at;
lastChange = "2024-01-12 17:09:58 +0000";
layers = (
{
hints = (
{
horizontal = 1;
place = (0, 211);
place = (0, 211);
type = Stem;
},
{
horizontal = 1;
place = (635, 210);
place = (635, 210);
type = Stem;
},
{
horizontal = 1;
place = (1212, 210);
place = (1212, 210);
type = Stem;
},
{
horizontal = 1;
place = (1544, 422);
place = (1544, 422);
type = Stem;
},
{
place = (140, 211);
place = (140, 211);
type = Stem;
},
{
place = (564, 312);
place = (564, 312);
type = Stem;
}
);
layerId = "A0B3C83F-707E-46F6-ACEE-65DB6FEE929C";
shapes = (
{
closed = 1;
nodes = (
(564,1597,l),
(678,1544,l),
(876,1878,l),
(693,1966,l)
);
},
{
closed = 1;
nodes = (
(140,0,l),
(1243,0,l),
(1243,211,l),
(351,211,l),
(351,1212,l),
(1243,1212,l),
(1243,1422,l),
(140,1422,l)
);
},
{
closed = 1;
nodes = (
(471,635,l),
(1243,635,l),
(1243,845,l),
(471,845,l)
);
}
);
width = 1363;
}
);
unicode = 201;
},
{
glyphname = Ebreve;
kernLeft = at;
lastChange = "2024-01-12 17:09:58 +0000";
layers = (
{
hints = (
{
horizontal = 1;
place = (0, 211);
place = (0, 211);
type = Stem;
},
{
horizontal = 1;
place = (635, 210);
place = (635, 210);
type = Stem;
},
{
horizontal = 1;
place = (1212, 210);
place = (1212, 210);
type = Stem;
},
{
horizontal = 1;
place = (1546, 134);
place = (1546, 134);
type = Stem;
},
{
horizontal = 1;
place = (1844, -20);
target = down;
type = TopGhost;
},
{
place = (140, 211);
place = (140, 211);
type = Stem;
},
{
place = (380, 134);
place = (380, 134);
type = Stem;
},
{
place = (842, 134);
place = (842, 134);
type = Stem;
}
);
layerId = "A0B3C83F-707E-46F6-ACEE-65DB6FEE929C";
shapes = (
{
closed = 1;
nodes = (
(380,1844,l),
(380,1680,o),
(514,1546,o),
(678,1546,cs),
(842,1546,o),
(976,1680,o),
(976,1844,c),
(842,1844,l),
(842,1754,o),
(768,1680,o),
(678,1680,cs),
(588,1680,o),
(514,1754,o),
(514,1844,c)
);
},
{
closed = 1;
nodes = (
(140,0,l),
(1243,0,l),
(1243,211,l),
(351,211,l),
(351,1212,l),
(1243,1212,l),
(1243,1422,l),
(140,1422,l)
);
},
{
closed = 1;
nodes = (
(471,635,l),
(1243,635,l),
(1243,845,l),
(471,845,l)
);
}
);
width = 1363;
}
);
unicode = 276;
},
{
glyphname = Ecaron;
kernLeft = at;
lastChange = "2024-01-12 17:09:58 +0000";
layers = (
{
hints = (
{
horizontal = 1;
place = (0, 211);
place = (0, 211);
type = Stem;
},
{
horizontal = 1;
place = (635, 210);
place = (635, 210);
type = Stem;
},
{
horizontal = 1;
place = (1212, 210);
place = (1212, 210);
type = Stem;
},
{
horizontal = 1;
place = (1544, 309);
place = (1544, 309);
type = Stem;
},
{
place = (140, 211);
place = (140, 211);
type = Stem;
},
{
place = (366, 623);
place = (366, 623);
type = Stem;
}
);
layerId = "A0B3C83F-707E-46F6-ACEE-65DB6FEE929C";
shapes = (
{
closed = 1;
nodes = (
(366,1853,l),
(600,1544,l),
(755,1544,l),
(989,1853,l),
(848,1853,l),
(677,1681,l),
(507,1853,l)
);
},
{
closed = 1;
nodes = (
(140,0,l),
(1243,0,l),
(1243,211,l),
(351,211,l),
(351,1212,l),
(1243,1212,l),
(1243,1422,l),
(140,1422,l)
);
},
{
closed = 1;
nodes = (
(471,635,l),
(1243,635,l),
(1243,845,l),
(471,845,l)
);
}
);
width = 1363;
}
);
unicode = 282;
},
{
glyphname = Ecircumflex;
kernLeft = B2;
lastChange = "2024-01-12 17:09:58 +0000";
layers = (
{
hints = (
{
horizontal = 1;
place = (0, 211);
place = (0, 211);
type = Stem;
},
{
horizontal = 1;
place = (635, 210);
place = (635, 210);
type = Stem;
},
{
horizontal = 1;
place = (1212, 210);
place = (1212, 210);
type = Stem;
},
{
horizontal = 1;
place = (1543, 309);
place = (1543, 309);
type = Stem;
},
{
place = (140, 211);
place = (140, 211);
type = Stem;
},
{
place = (367, 623);
place = (367, 623);
type = Stem;
}
);
layerId = "A0B3C83F-707E-46F6-ACEE-65DB6FEE929C";
shapes = (
{
closed = 1;
nodes = (
(367,1543,l),
(508,1543,l),
(678,1715,l),
(849,1543,l),
(990,1543,l),
(756,1852,l),
(601,1852,l)
);
},
{
closed = 1;
nodes = (
(140,0,l),
(1243,0,l),
(1243,211,l),
(351,211,l),
(351,1212,l),
(1243,1212,l),
(1243,1422,l),
(140,1422,l)
);
},
{
closed = 1;
nodes = (
(471,635,l),
(1243,635,l),
(1243,845,l),
(471,845,l)
);
}
);
width = 1363;
}
);
unicode = 202;
},
{
glyphname = Edieresis;
kernLeft = B2;
lastChange = "2024-01-12 17:09:58 +0000";
layers = (
{
hints = (
{
horizontal = 1;
place = (0, 211);
place = (0, 211);
type = Stem;
},
{
horizontal = 1;
place = (635, 210);
place = (635, 210);
type = Stem;
},
{
horizontal = 1;
place = (1212, 210);
place = (1212, 210);
type = Stem;
},
{
horizontal = 1;
place = (1545, 221);
place = (1545, 221);
type = Stem;
},
{
place = (140, 211);
place = (140, 211);
type = Stem;
},
{
place = (398, 221);
place = (398, 221);
type = Stem;
},
{
place = (738, 221);
place = (738, 221);
type = Stem;
}
);
layerId = "A0B3C83F-707E-46F6-ACEE-65DB6FEE929C";
shapes = (
{
closed = 1;
nodes = (
(398,1594,o),
(447,1545,o),
(508,1545,cs),
(570,1545,o),
(619,1594,o),
(619,1655,cs),
(619,1717,o),
(570,1766,o),
(508,1766,cs),
(447,1766,o),
(398,1717,o),
(398,1655,cs)
);
},
{
closed = 1;
nodes = (
(738,1594,o),
(787,1545,o),
(848,1545,cs),
(910,1545,o),
(959,1594,o),
(959,1655,cs),
(959,1717,o),
(910,1766,o),
(848,1766,cs),
(787,1766,o),
(738,1717,o),
(738,1655,cs)
);
},
{
closed = 1;
nodes = (
(140,0,l),
(1243,0,l),
(1243,211,l),
(351,211,l),
(351,1212,l),
(1243,1212,l),
(1243,1422,l),
(140,1422,l)
);
},
{
closed = 1;
nodes = (
(471,635,l),
(1243,635,l),
(1243,845,l),
(471,845,l)
);
}
);
width = 1363;
}
);
unicode = 203;
},
{
glyphname = Edotaccent;
kernLeft = at;
lastChange = "2024-01-12 17:09:58 +0000";
layers = (
{
hints = (
{
horizontal = 1;
place = (0, 211);
place = (0, 211);
type = Stem;
},
{
horizontal = 1;
place = (635, 210);
place = (635, 210);
type = Stem;
},
{
horizontal = 1;
place = (1212, 210);
place = (1212, 210);
type = Stem;
},
{
horizontal = 1;
place = (1544, 221);
place = (1544, 221);
type = Stem;
},
{
place = (140, 211);
place = (140, 211);
type = Stem;
},
{
place = (567, 221);
place = (567, 221);
type = Stem;
}
);
layerId = "A0B3C83F-707E-46F6-ACEE-65DB6FEE929C";
shapes = (
{
closed = 1;
nodes = (
(567,1593,o),
(617,1544,o),
(678,1544,cs),
(739,1544,o),
(788,1593,o),
(788,1654,cs),
(788,1716,o),
(739,1765,o),
(678,1765,cs),
(616,1765,o),
(567,1716,o),
(567,1654,cs)
);
},
{
closed = 1;
nodes = (
(140,0,l),
(1243,0,l),
(1243,211,l),
(351,211,l),
(351,1212,l),
(1243,1212,l),
(1243,1422,l),
(140,1422,l)
);
},
{
closed = 1;
nodes = (
(471,635,l),
(1243,635,l),
(1243,845,l),
(471,845,l)
);
}
);
width = 1363;
}
);
unicode = 278;
},
{
glyphname = Egrave;
kernLeft = B2;
lastChange = "2024-01-12 17:09:58 +0000";
layers = (
{
hints = (
{
horizontal = 1;
place = (0, 211);
place = (0, 211);
type = Stem;
},
{
horizontal = 1;
place = (635, 210);
place = (635, 210);
type = Stem;
},
{
horizontal = 1;
place = (1212, 210);
place = (1212, 210);
type = Stem;
},
{
horizontal = 1;
place = (1544, 422);
place = (1544, 422);
type = Stem;
},
{
place = (140, 211);
place = (140, 211);
type = Stem;
},
{
place = (480, 312);
place = (480, 312);
type = Stem;
}
);
layerId = "A0B3C83F-707E-46F6-ACEE-65DB6FEE929C";
shapes = (
{
closed = 1;
nodes = (
(480,1878,l),
(678,1544,l),
(792,1597,l),
(663,1966,l)
);
},
{
closed = 1;
nodes = (
(140,0,l),
(1243,0,l),
(1243,211,l),
(351,211,l),
(351,1212,l),
(1243,1212,l),
(1243,1422,l),
(140,1422,l)
);
},
{
closed = 1;
nodes = (
(471,635,l),
(1243,635,l),
(1243,845,l),
(471,845,l)
);
}
);
width = 1363;
}
);
unicode = 200;
},
{
glyphname = Emacron;
kernLeft = at;
lastChange = "2024-01-12 17:09:58 +0000";
layers = (
{
hints = (
{
horizontal = 1;
place = (0, 211);
place = (0, 211);
type = Stem;
},
{
horizontal = 1;
place = (635, 210);
place = (635, 210);
type = Stem;
},
{
horizontal = 1;
place = (1212, 210);
place = (1212, 210);
type = Stem;
},
{
horizontal = 1;
place = (1544, 147);
place = (1544, 147);
type = Stem;
},
{
place = (140, 211);
place = (140, 211);
type = Stem;
},
{
place = (379, 597);
place = (379, 597);
type = Stem;
}
);
layerId = "A0B3C83F-707E-46F6-ACEE-65DB6FEE929C";
shapes = (
{
closed = 1;
nodes = (
(379,1544,l),
(976,1544,l),
(976,1691,l),
(379,1691,l)
);
},
{
closed = 1;
nodes = (
(140,0,l),
(1243,0,l),
(1243,211,l),
(351,211,l),
(351,1212,l),
(1243,1212,l),
(1243,1422,l),
(140,1422,l)
);
},
{
closed = 1;
nodes = (
(471,635,l),
(1243,635,l),
(1243,845,l),
(471,845,l)
);
}
);
width = 1363;
}
);
unicode = 274;
},
{
glyphname = Eogonek;
kernLeft = at;
lastChange = "2024-01-12 17:09:58 +0000";
layers = (
{
hints = (
{
horizontal = 1;
place = (-307, 150);
place = (-307, 150);
type = Stem;
},
{
horizontal = 1;
place = (0, 211);
place = (0, 211);
type = Stem;
},
{
horizontal = 1;
place = (635, 210);
place = (635, 210);
type = Stem;
},
{
horizontal = 1;
place = (1212, 210);
place = (1212, 210);
type = Stem;
},
{
place = (140, 211);
place = (140, 211);
type = Stem;
},
{
place = (564, 151);
place = (564, 151);
type = Stem;
}
);
layerId = "A0B3C83F-707E-46F6-ACEE-65DB6FEE929C";
shapes = (
{
closed = 1;
nodes = (
(564,-266,o),
(612,-307,o),
(716,-307,cs),
(749,-307,o),
(778,-304,o),
(866,-291,c),
(866,-143,l),
(784,-156,o),
(773,-157,o),
(756,-157,cs),
(726,-157,o),
(715,-148,o),
(715,-126,cs),
(715,-106,o),
(722,-83,o),
(754,6,c),
(606,6,l),
(578,-69,o),
(564,-130,o),
(564,-177,cs)
);
},
{
closed = 1;
nodes = (
(140,0,l),
(1243,0,l),
(1243,211,l),
(351,211,l),
(351,1212,l),
(1243,1212,l),
(1243,1422,l),
(140,1422,l)
);
},
{
closed = 1;
nodes = (
(471,635,l),
(1243,635,l),
(1243,845,l),
(471,845,l)
);
}
);
width = 1363;
}
);
unicode = 280;
},
{
glyphname = F;
kernLeft = B2;
kernRight = F;
lastChange = "2024-01-12 17:30:35 +0000";
layers = (
{
anchors = (
{
name = m.ring1;
pos = (606,1544);
}
);
hints = (
{
horizontal = 1;
place = (0, 21);
target = up;
type = BottomGhost;
},
{
horizontal = 1;
place = (635, 210);
place = (635, 210);
type = Stem;
},
{
horizontal = 1;
place = (1212, 210);
place = (1212, 210);
type = Stem;
},
{
place = (140, 211);
place = (140, 211);
type = Stem;
}
);
layerId = "A0B3C83F-707E-46F6-ACEE-65DB6FEE929C";
shapes = (
{
closed = 1;
nodes = (
(140,0,l),
(351,0,l),
(351,1212,l),
(1092,1212,l),
(1092,1422,l),
(140,1422,l)
);
},
{
closed = 1;
nodes = (
(471,635,l),
(1092,635,l),
(1092,845,l),
(471,845,l)
);
}
);
width = 1212;
}
);
unicode = 70;
},
{
glyphname = G;
kernLeft = C2;
kernRight = G;
lastChange = "2024-01-12 17:30:35 +0000";
layers = (
{
anchors = (
{
name = m.ogonek;
pos = (710,-120);
},
{
name = m.ring1;
pos = (710,1544);
}
);
hints = (
{
horizontal = 1;
place = (0, 210);
place = (0, 210);
type = Stem;
},
{
horizontal = 1;
place = (585, 210);
place = (585, 210);
type = Stem;
},
{
horizontal = 1;
place = (1212, 210);
place = (1212, 210);
type = Stem;
},
{
place = (120, 211);
place = (120, 211);
type = Stem;
},
{
place = (1090, 211);
place = (1090, 211);
type = Stem;
}
);
layerId = "A0B3C83F-707E-46F6-ACEE-65DB6FEE929C";
shapes = (
{
closed = 1;
nodes = (
(120,400,ls),
(120,179,o),
(310,0,o),
(544,0,cs),
(877,0,ls),
(1111,0,o),
(1301,179,o),
(1301,400,cs),
(1301,795,l),
(704,795,l),
(704,585,l),
(1090,585,l),
(1090,399,ls),
(1090,295,o),
(995,210,o),
(877,210,cs),
(544,210,ls),
(426,210,o),
(331,295,o),
(331,399,cs),
(331,1023,ls),
(331,1127,o),
(426,1212,o),
(544,1212,cs),
(1217,1212,l),
(1217,1422,l),
(544,1422,ls),
(310,1422,o),
(120,1243,o),
(120,1022,cs)
);
}
);
width = 1421;
}
);
unicode = 71;
},
{
glyphname = Gbreve;
kernLeft = at;
lastChange = "2024-01-12 17:09:58 +0000";
layers = (
{
hints = (
{
horizontal = 1;
place = (0, 210);
place = (0, 210);
type = Stem;
},
{
horizontal = 1;
place = (585, 210);
place = (585, 210);
type = Stem;
},
{
horizontal = 1;
place = (1212, 210);
place = (1212, 210);
type = Stem;
},
{
horizontal = 1;
place = (1546, 134);
place = (1546, 134);
type = Stem;
},
{
horizontal = 1;
place = (1844, -20);
target = down;
type = TopGhost;
},
{
place = (120, 211);
place = (120, 211);
type = Stem;
},
{
place = (412, 134);
place = (412, 134);
type = Stem;
},
{
place = (874, 134);
place = (874, 134);
type = Stem;
},
{
place = (1090, 211);
place = (1090, 211);
type = Stem;
}
);
layerId = "A0B3C83F-707E-46F6-ACEE-65DB6FEE929C";
shapes = (
{
closed = 1;
nodes = (
(412,1844,l),
(412,1680,o),
(546,1546,o),
(710,1546,cs),
(874,1546,o),
(1008,1680,o),
(1008,1844,c),
(874,1844,l),
(874,1754,o),
(800,1680,o),
(710,1680,cs),
(620,1680,o),
(546,1754,o),
(546,1844,c)
);
},
{
closed = 1;
nodes = (
(120,400,ls),
(120,179,o),
(310,0,o),
(544,0,cs),
(877,0,ls),
(1111,0,o),
(1301,179,o),
(1301,400,cs),
(1301,795,l),
(704,795,l),
(704,585,l),
(1090,585,l),
(1090,399,ls),
(1090,295,o),
(995,210,o),
(877,210,cs),
(544,210,ls),
(426,210,o),
(331,295,o),
(331,399,cs),
(331,1023,ls),
(331,1127,o),
(426,1212,o),
(544,1212,cs),
(1217,1212,l),
(1217,1422,l),
(544,1422,ls),
(310,1422,o),
(120,1243,o),
(120,1022,cs)
);
}
);
width = 1421;
}
);
unicode = 286;
},
{
glyphname = Gcircumflex;
kernLeft = at;
lastChange = "2024-01-12 17:09:58 +0000";
layers = (
{
hints = (
{
horizontal = 1;
place = (0, 210);
place = (0, 210);
type = Stem;
},
{
horizontal = 1;
place = (585, 210);
place = (585, 210);
type = Stem;
},
{
horizontal = 1;
place = (1212, 210);
place = (1212, 210);
type = Stem;
},
{
horizontal = 1;
place = (1544, 309);
place = (1544, 309);
type = Stem;
},
{
place = (120, 211);
place = (120, 211);
type = Stem;
},
{
place = (399, 623);
place = (399, 623);
type = Stem;
},
{
place = (1090, 211);
place = (1090, 211);
type = Stem;
}
);
layerId = "A0B3C83F-707E-46F6-ACEE-65DB6FEE929C";
shapes = (
{
closed = 1;
nodes = (
(399,1544,l),
(540,1544,l),
(710,1716,l),
(881,1544,l),
(1022,1544,l),
(788,1853,l),
(633,1853,l)
);
},
{
closed = 1;
nodes = (
(120,400,ls),
(120,179,o),
(310,0,o),
(544,0,cs),
(877,0,ls),
(1111,0,o),
(1301,179,o),
(1301,400,cs),
(1301,795,l),
(704,795,l),
(704,585,l),
(1090,585,l),
(1090,399,ls),
(1090,295,o),
(995,210,o),
(877,210,cs),
(544,210,ls),
(426,210,o),
(331,295,o),
(331,399,cs),
(331,1023,ls),
(331,1127,o),
(426,1212,o),
(544,1212,cs),
(1217,1212,l),
(1217,1422,l),
(544,1422,ls),
(310,1422,o),
(120,1243,o),
(120,1022,cs)
);
}
);
width = 1421;
}
);
unicode = 284;
},
{
glyphname = Gdotaccent;
kernLeft = at;
lastChange = "2024-01-12 17:09:58 +0000";
layers = (
{
hints = (
{
horizontal = 1;
place = (0, 210);
place = (0, 210);
type = Stem;
},
{
horizontal = 1;
place = (585, 210);
place = (585, 210);
type = Stem;
},
{
horizontal = 1;
place = (1212, 210);
place = (1212, 210);
type = Stem;
},
{
horizontal = 1;
place = (1544, 221);
place = (1544, 221);
type = Stem;
},
{
place = (120, 211);
place = (120, 211);
type = Stem;
},
{
place = (599, 221);
place = (599, 221);
type = Stem;
},
{
place = (1090, 211);
place = (1090, 211);
type = Stem;
}
);
layerId = "A0B3C83F-707E-46F6-ACEE-65DB6FEE929C";
shapes = (
{
closed = 1;
nodes = (
(599,1593,o),
(649,1544,o),
(710,1544,cs),
(771,1544,o),
(820,1593,o),
(820,1654,cs),
(820,1716,o),
(771,1765,o),
(710,1765,cs),
(648,1765,o),
(599,1716,o),
(599,1654,cs)
);
},
{
closed = 1;
nodes = (
(120,400,ls),
(120,179,o),
(310,0,o),
(544,0,cs),
(877,0,ls),
(1111,0,o),
(1301,179,o),
(1301,400,cs),
(1301,795,l),
(704,795,l),
(704,585,l),
(1090,585,l),
(1090,399,ls),
(1090,295,o),
(995,210,o),
(877,210,cs),
(544,210,ls),
(426,210,o),
(331,295,o),
(331,399,cs),
(331,1023,ls),
(331,1127,o),
(426,1212,o),
(544,1212,cs),
(1217,1212,l),
(1217,1422,l),
(544,1422,ls),
(310,1422,o),
(120,1243,o),
(120,1022,cs)
);
}
);
width = 1421;
}
);
unicode = 288;
},
{
glyphname = H;
kernLeft = B2;
kernRight = H;
lastChange = "2024-01-12 17:30:35 +0000";
layers = (
{
anchors = (
{
name = m.ring1;
pos = (719,1544);
}
);
hints = (
{
horizontal = 1;
place = (0, 21);
target = up;
type = BottomGhost;
},
{
horizontal = 1;
place = (635, 210);
place = (635, 210);
type = Stem;
},
{
horizontal = 1;
place = (1422, -20);
target = down;
type = TopGhost;
},
{
place = (140, 211);
place = (140, 211);
type = Stem;
},
{
place = (1088, 210);
place = (1088, 210);
type = Stem;
}
);
layerId = "A0B3C83F-707E-46F6-ACEE-65DB6FEE929C";
shapes = (
{
closed = 1;
nodes = (
(140,0,l),
(351,0,l),
(351,635,l),
(1088,635,l),
(1088,0,l),
(1298,0,l),
(1298,1422,l),
(1088,1422,l),
(1088,845,l),
(351,845,l),
(351,1422,l),
(140,1422,l)
);
}
);
width = 1438;
}
);
unicode = 72;
},
{
glyphname = Hbar;
kernLeft = at;
lastChange = "2024-01-12 17:09:58 +0000";
layers = (
{
hints = (
{
horizontal = 1;
place = (0, 21);
target = up;
type = BottomGhost;
},
{
horizontal = 1;
place = (635, 210);
place = (635, 210);
type = Stem;
},
{
horizontal = 1;
place = (1156, 147);
place = (1156, 147);
type = Stem;
},
{
horizontal = 1;
place = (1422, -20);
target = down;
type = TopGhost;
},
{
place = (220, 211);
place = (220, 211);
type = Stem;
},
{
place = (1168, 210);
place = (1168, 210);
type = Stem;
}
);
layerId = "A0B3C83F-707E-46F6-ACEE-65DB6FEE929C";
shapes = (
{
closed = 1;
nodes = (
(60,1156,l),
(220,1156,l),
(220,0,l),
(431,0,l),
(431,635,l),
(1168,635,l),
(1168,0,l),
(1378,0,l),
(1378,1156,l),
(1538,1156,l),
(1538,1303,l),
(1378,1303,l),
(1378,1422,l),
(1168,1422,l),
(1168,1303,l),
(431,1303,l),
(431,1422,l),
(220,1422,l),
(220,1303,l),
(60,1303,l)
);
},
{
closed = 1;
nodes = (
(431,845,l),
(431,1156,l),
(1168,1156,l),
(1168,845,l)
);
}
);
width = 1598;
}
);
unicode = 294;
},
{
glyphname = Hcircumflex;
kernLeft = at;
lastChange = "2024-01-12 17:09:58 +0000";
layers = (
{
hints = (
{
horizontal = 1;
place = (0, 21);
target = up;
type = BottomGhost;
},
{
horizontal = 1;
place = (635, 210);
place = (635, 210);
type = Stem;
},
{
horizontal = 1;
place = (1422, -20);
target = down;
type = TopGhost;
},
{
horizontal = 1;
place = (1543, 309);
place = (1543, 309);
type = Stem;
},
{
place = (140, 211);
place = (140, 211);
type = Stem;
},
{
place = (408, 623);
place = (408, 623);
type = Stem;
},
{
place = (1088, 210);
place = (1088, 210);
type = Stem;
}
);
layerId = "A0B3C83F-707E-46F6-ACEE-65DB6FEE929C";
shapes = (
{
closed = 1;
nodes = (
(408,1543,l),
(549,1543,l),
(719,1715,l),
(890,1543,l),
(1031,1543,l),
(797,1852,l),
(642,1852,l)
);
},
{
closed = 1;
nodes = (
(140,0,l),
(351,0,l),
(351,635,l),
(1088,635,l),
(1088,0,l),
(1298,0,l),
(1298,1422,l),
(1088,1422,l),
(1088,845,l),
(351,845,l),
(351,1422,l),
(140,1422,l)
);
}
);
width = 1438;
}
);
unicode = 292;
},
{
glyphname = I;
kernLeft = B2;
kernRight = H;
lastChange = "2024-01-12 17:30:35 +0000";
layers = (
{
anchors = (
{
name = m.ogonek;
pos = (246,6);
},
{
name = m.ring1;
pos = (245,1544);
}
);
hints = (
{
horizontal = 1;
place = (0, 21);
target = up;
type = BottomGhost;
},
{
horizontal = 1;
place = (1422, -20);
target = down;
type = TopGhost;
},
{
place = (140, 211);
place = (140, 211);
type = Stem;
}
);
layerId = "A0B3C83F-707E-46F6-ACEE-65DB6FEE929C";
shapes = (
{
closed = 1;
nodes = (
(140,0,l),
(351,0,l),
(351,1422,l),
(140,1422,l)
);
}
);
width = 491;
}
);
unicode = 73;
},
{
glyphname = IJ;
kernLeft = at;
lastChange = "2024-01-12 17:09:58 +0000";
layers = (
{
hints = (
{
horizontal = 1;
place = (0, 21);
target = up;
type = BottomGhost;
},
{
horizontal = 1;
place = (0, 210);
place = (0, 210);
type = Stem;
},
{
horizontal = 1;
place = (1422, -20);
target = down;
type = TopGhost;
},
{
place = (140, 211);
place = (140, 211);
type = Stem;
},
{
place = (956, 210);
place = (956, 210);
type = Stem;
}
);
layerId = "A0B3C83F-707E-46F6-ACEE-65DB6FEE929C";
shapes = (
{
closed = 1;
nodes = (
(511,0,l),
(765,0,ls),
(986,0,o),
(1166,177,o),
(1166,395,cs),
(1166,1422,l),
(956,1422,l),
(956,398,ls),
(956,294,o),
(870,210,o),
(765,210,cs),
(511,210,l)
);
},
{
closed = 1;
nodes = (
(140,0,l),
(351,0,l),
(351,1422,l),
(140,1422,l)
);
}
);
width = 1306;
}
);
unicode = 306;
},
{
glyphname = Iacute;
kernLeft = B2;
lastChange = "2024-01-12 17:09:58 +0000";
layers = (
{
hints = (
{
horizontal = 1;
place = (0, 21);
target = up;
type = BottomGhost;
},
{
horizontal = 1;
place = (1422, -20);
target = down;
type = TopGhost;
},
{
horizontal = 1;
place = (1544, 422);
place = (1544, 422);
type = Stem;
},
{
place = (131, 312);
place = (131, 312);
type = Stem;
},
{
place = (140, 211);
place = (140, 211);
type = Stem;
}
);
layerId = "A0B3C83F-707E-46F6-ACEE-65DB6FEE929C";
shapes = (
{
closed = 1;
nodes = (
(131,1597,l),
(245,1544,l),
(443,1878,l),
(260,1966,l)
);
},
{
closed = 1;
nodes = (
(140,0,l),
(351,0,l),
(351,1422,l),
(140,1422,l)
);
}
);
width = 491;
}
);
unicode = 205;
},
{
glyphname = Ibreve;
kernLeft = at;
lastChange = "2024-01-12 17:09:58 +0000";
layers = (
{
hints = (
{
horizontal = 1;
place = (0, 21);
target = up;
type = BottomGhost;
},
{
horizontal = 1;
place = (1422, -20);
target = down;
type = TopGhost;
},
{
horizontal = 1;
place = (1544, 134);
place = (1544, 134);
type = Stem;
},
{
horizontal = 1;
place = (1842, -20);
target = down;
type = TopGhost;
},
{
place = (-53, 134);
place = (-53, 134);
type = Stem;
},
{
place = (140, 211);
place = (140, 211);
type = Stem;
},
{
place = (409, 134);
place = (409, 134);
type = Stem;
}
);
layerId = "A0B3C83F-707E-46F6-ACEE-65DB6FEE929C";
shapes = (
{
closed = 1;
nodes = (
(-53,1842,l),
(-53,1678,o),
(81,1544,o),
(245,1544,cs),
(409,1544,o),
(543,1678,o),
(543,1842,c),
(409,1842,l),
(409,1752,o),
(335,1678,o),
(245,1678,cs),
(155,1678,o),
(81,1752,o),
(81,1842,c)
);
},
{
closed = 1;
nodes = (
(140,0,l),
(351,0,l),
(351,1422,l),
(140,1422,l)
);
}
);
width = 491;
}
);
unicode = 300;
},
{
glyphname = Icircumflex;
kernLeft = S;
lastChange = "2024-01-12 17:09:58 +0000";
layers = (
{
hints = (
{
horizontal = 1;
place = (0, 21);
target = up;
type = BottomGhost;
},
{
horizontal = 1;
place = (1422, -20);
target = down;
type = TopGhost;
},
{
horizontal = 1;
place = (1543, 309);
place = (1543, 309);
type = Stem;
},
{
place = (-66, 623);
place = (-66, 623);
type = Stem;
},
{
place = (140, 211);
place = (140, 211);
type = Stem;
}
);
layerId = "A0B3C83F-707E-46F6-ACEE-65DB6FEE929C";
shapes = (
{
closed = 1;
nodes = (
(-66,1543,l),
(75,1543,l),
(245,1715,l),
(416,1543,l),
(557,1543,l),
(323,1852,l),
(168,1852,l)
);
},
{
closed = 1;
nodes = (
(140,0,l),
(351,0,l),
(351,1422,l),
(140,1422,l)
);
}
);
width = 491;
}
);
unicode = 206;
},
{
glyphname = Idieresis;
kernLeft = S;
lastChange = "2024-01-12 17:09:58 +0000";
layers = (
{
hints = (
{
horizontal = 1;
place = (0, 21);
target = up;
type = BottomGhost;
},
{
horizontal = 1;
place = (1422, -20);
target = down;
type = TopGhost;
},
{
horizontal = 1;
place = (1545, 221);
place = (1545, 221);
type = Stem;
},
{
place = (-35, 221);
place = (-35, 221);
type = Stem;
},
{
place = (140, 211);
place = (140, 211);
type = Stem;
},
{
place = (305, 221);
place = (305, 221);
type = Stem;
}
);
layerId = "A0B3C83F-707E-46F6-ACEE-65DB6FEE929C";
shapes = (
{
closed = 1;
nodes = (
(-35,1594,o),
(14,1545,o),
(75,1545,cs),
(137,1545,o),
(186,1594,o),
(186,1655,cs),
(186,1717,o),
(137,1766,o),
(75,1766,cs),
(14,1766,o),
(-35,1717,o),
(-35,1655,cs)
);
},
{
closed = 1;
nodes = (
(305,1594,o),
(354,1545,o),
(415,1545,cs),
(477,1545,o),
(526,1594,o),
(526,1655,cs),
(526,1717,o),
(477,1766,o),
(415,1766,cs),
(354,1766,o),
(305,1717,o),
(305,1655,cs)
);
},
{
closed = 1;
nodes = (
(140,0,l),
(351,0,l),
(351,1422,l),
(140,1422,l)
);
}
);
width = 491;
}
);
unicode = 207;
},
{
glyphname = Idotaccent;
kernLeft = at;
lastChange = "2024-01-12 17:09:58 +0000";
layers = (
{
hints = (
{
horizontal = 1;
place = (0, 21);
target = up;
type = BottomGhost;
},
{
horizontal = 1;
place = (1422, -20);
target = down;
type = TopGhost;
},
{
horizontal = 1;
place = (1528, 221);
place = (1528, 221);
type = Stem;
},
{
place = (120, 211);
place = (120, 211);
type = Stem;
}
);
layerId = "A0B3C83F-707E-46F6-ACEE-65DB6FEE929C";
shapes = (
{
closed = 1;
nodes = (
(120,0,l),
(331,0,l),
(331,1422,l),
(120,1422,l)
);
},
{
closed = 1;
nodes = (
(121,1577,o),
(171,1528,o),
(232,1528,cs),
(293,1528,o),
(342,1577,o),
(342,1638,cs),
(342,1699,o),
(293,1749,o),
(232,1749,cs),
(171,1749,o),
(121,1699,o),
(121,1638,cs)
);
}
);
width = 451;
}
);
unicode = 304;
},
{
glyphname = Igrave;
kernLeft = S;
kernRight = H;
lastChange = "2024-01-12 17:09:58 +0000";
layers = (
{
hints = (
{
horizontal = 1;
place = (0, 21);
target = up;
type = BottomGhost;
},
{
horizontal = 1;
place = (1422, -20);
target = down;
type = TopGhost;
},
{
horizontal = 1;
place = (1544, 422);
place = (1544, 422);
type = Stem;
},
{
place = (47, 312);
place = (47, 312);
type = Stem;
},
{
place = (140, 211);
place = (140, 211);
type = Stem;
}
);
layerId = "A0B3C83F-707E-46F6-ACEE-65DB6FEE929C";
shapes = (
{
closed = 1;
nodes = (
(47,1878,l),
(245,1544,l),
(359,1597,l),
(230,1966,l)
);
},
{
closed = 1;
nodes = (
(140,0,l),
(351,0,l),
(351,1422,l),
(140,1422,l)
);
}
);
width = 491;
}
);
unicode = 204;
},
{
glyphname = Imacron;
kernLeft = at;
lastChange = "2024-01-12 17:09:58 +0000";
layers = (
{
hints = (
{
horizontal = 1;
place = (0, 21);
target = up;
type = BottomGhost;
},
{
horizontal = 1;
place = (1422, -20);
target = down;
type = TopGhost;
},
{
horizontal = 1;
place = (1544, 147);
place = (1544, 147);
type = Stem;
},
{
place = (-54, 597);
place = (-54, 597);
type = Stem;
},
{
place = (140, 211);
place = (140, 211);
type = Stem;
}
);
layerId = "A0B3C83F-707E-46F6-ACEE-65DB6FEE929C";
shapes = (
{
closed = 1;
nodes = (
(-54,1544,l),
(543,1544,l),
(543,1691,l),
(-54,1691,l)
);
},
{
closed = 1;
nodes = (
(140,0,l),
(351,0,l),
(351,1422,l),
(140,1422,l)
);
}
);
width = 491;
}
);
unicode = 298;
},
{
glyphname = Iogonek;
kernLeft = at;
lastChange = "2024-01-12 17:09:58 +0000";
layers = (
{
hints = (
{
horizontal = 1;
place = (-307, 150);
place = (-307, 150);
type = Stem;
},
{
horizontal = 1;
place = (0, 21);
target = up;
type = BottomGhost;
},
{
horizontal = 1;
place = (1422, -20);
target = down;
type = TopGhost;
},
{
place = (132, 151);
place = (132, 151);
type = Stem;
},
{
place = (140, 211);
place = (140, 211);
type = Stem;
}
);
layerId = "A0B3C83F-707E-46F6-ACEE-65DB6FEE929C";
shapes = (
{
closed = 1;
nodes = (
(132,-266,o),
(180,-307,o),
(284,-307,cs),
(317,-307,o),
(346,-304,o),
(434,-291,c),
(434,-143,l),
(352,-156,o),
(341,-157,o),
(324,-157,cs),
(294,-157,o),
(283,-148,o),
(283,-126,cs),
(283,-106,o),
(290,-83,o),
(322,6,c),
(174,6,l),
(146,-69,o),
(132,-130,o),
(132,-177,cs)
);
},
{
closed = 1;
nodes = (
(140,0,l),
(351,0,l),
(351,1422,l),
(140,1422,l)
);
}
);
width = 491;
}
);
unicode = 302;
},
{
glyphname = Itilde;
kernLeft = at;
lastChange = "2024-01-12 17:09:58 +0000";
layers = (
{
hints = (
{
horizontal = 1;
place = (0, 21);
target = up;
type = BottomGhost;
},
{
horizontal = 1;
place = (1422, -20);
target = down;
type = TopGhost;
},
{
horizontal = 1;
place = (1544, 154);
place = (1544, 154);
type = Stem;
},
{
horizontal = 1;
place = (1625, 148);
place = (1625, 148);
type = Stem;
},
{
place = (-85, 155);
place = (-85, 155);
type = Stem;
},
{
place = (140, 211);
place = (140, 211);
type = Stem;
},
{
place = (416, 157);
place = (416, 157);
type = Stem;
}
);
layerId = "A0B3C83F-707E-46F6-ACEE-65DB6FEE929C";
shapes = (
{
closed = 1;
nodes = (
(70,1552,l),
(70,1602,o),
(84,1625,o),
(115,1625,cs),
(146,1625,o),
(173,1616,o),
(248,1584,cs),
(318,1554,o),
(350,1544,o),
(381,1544,cs),
(488,1544,o),
(573,1644,o),
(573,1768,c),
(416,1768,l),
(416,1720,o),
(402,1698,o),
(371,1698,cs),
(340,1698,o),
(313,1706,o),
(240,1736,cs),
(172,1764,o),
(140,1773,o),
(109,1773,cs),
(-3,1773,o),
(-84,1680,o),
(-85,1552,c)
);
},
{
closed = 1;
nodes = (
(140,0,l),
(351,0,l),
(351,1422,l),
(140,1422,l)
);
}
);
width = 491;
}
);
unicode = 296;
},
{
glyphname = J;
kernLeft = J2;
kernRight = J;
lastChange = "2024-01-12 17:30:35 +0000";
layers = (
{
anchors = (
{
name = m.ring1;
pos = (590,1544);
}
);
hints = (
{
horizontal = 1;
place = (0, 210);
place = (0, 210);
type = Stem;
},
{
horizontal = 1;
place = (1422, -20);
target = down;
type = TopGhost;
},
{
place = (485, 210);
place = (485, 210);
type = Stem;
}
);
layerId = "A0B3C83F-707E-46F6-ACEE-65DB6FEE929C";
shapes = (
{
closed = 1;
nodes = (
(40,0,l),
(294,0,ls),
(515,0,o),
(695,177,o),
(695,395,cs),
(695,1422,l),
(485,1422,l),
(485,398,ls),
(485,294,o),
(399,210,o),
(294,210,cs),
(40,210,l)
);
}
);
width = 835;
}
);
unicode = 74;
},
{
glyphname = Jcircumflex;
kernLeft = J2;
lastChange = "2024-01-12 17:09:58 +0000";
layers = (
{
hints = (
{
horizontal = 1;
place = (0, 210);
place = (0, 210);
type = Stem;
},
{
horizontal = 1;
place = (1422, -20);
target = down;
type = TopGhost;
},
{
horizontal = 1;
place = (1543, 309);
place = (1543, 309);
type = Stem;
},
{
place = (279, 623);
place = (279, 623);
type = Stem;
},
{
place = (485, 210);
place = (485, 210);
type = Stem;
}
);
layerId = "A0B3C83F-707E-46F6-ACEE-65DB6FEE929C";
shapes = (
{
closed = 1;
nodes = (
(279,1543,l),
(420,1543,l),
(590,1715,l),
(761,1543,l),
(902,1543,l),
(668,1852,l),
(513,1852,l)
);
},
{
closed = 1;
nodes = (
(40,0,l),
(294,0,ls),
(515,0,o),
(695,177,o),
(695,395,cs),
(695,1422,l),
(485,1422,l),
(485,398,ls),
(485,294,o),
(399,210,o),
(294,210,cs),
(40,210,l)
);
}
);
width = 835;
}
);
unicode = 308;
},
{
glyphname = K;
kernLeft = B2;
lastChange = "2024-01-12 17:09:58 +0000";
layers = (
{
anchors = (
{
name = m.ogonek;
pos = (697,-120);
}
);
hints = (
{
horizontal = 1;
place = (0, 21);
target = up;
type = BottomGhost;
},
{
horizontal = 1;
place = (1422, -20);
target = down;
type = TopGhost;
},
{
place = (140, 211);
place = (140, 211);
type = Stem;
}
);
layerId = "A0B3C83F-707E-46F6-ACEE-65DB6FEE929C";
shapes = (
{
closed = 1;
nodes = (
(140,0,l),
(351,0,l),
(351,635,l),
(413,635,l),
(1059,0,l),
(1354,0,l),
(623,719,l),
(1311,1422,l),
(1020,1422,l),
(456,846,l),
(351,846,l),
(351,1422,l),
(140,1422,l)
);
}
);
width = 1394;
}
);
unicode = 75;
},
{
glyphname = L;
kernLeft = B2;
kernRight = L;
lastChange = "2024-01-12 17:30:35 +0000";
layers = (
{
anchors = (
{
name = m.ogonek;
pos = (641,-120);
},
{
name = m.ring1;
pos = (245,1544);
}
);
hints = (
{
horizontal = 1;
place = (0, 210);
place = (0, 210);
type = Stem;
},
{
horizontal = 1;
place = (1422, -20);
target = down;
type = TopGhost;
},
{
place = (140, 210);
place = (140, 210);
type = Stem;
}
);
layerId = "A0B3C83F-707E-46F6-ACEE-65DB6FEE929C";
shapes = (
{
closed = 1;
nodes = (
(140,398,ls),
(140,178,o),
(318,0,o),
(537,0,cs),
(1242,0,l),
(1242,210,l),
(537,210,ls),
(434,210,o),
(350,294,o),
(350,398,cs),
(350,1422,l),
(140,1422,l)
);
}
);
width = 1282;
}
);
unicode = 76;
},
{
glyphname = Lacute;
kernLeft = at;
kernRight = L;
lastChange = "2024-01-12 17:09:58 +0000";
layers = (
{
hints = (
{
horizontal = 1;
place = (0, 210);
place = (0, 210);
type = Stem;
},
{
horizontal = 1;
place = (1422, -20);
target = down;
type = TopGhost;
},
{
horizontal = 1;
place = (1544, 422);
place = (1544, 422);
type = Stem;
},
{
place = (131, 312);
place = (131, 312);
type = Stem;
},
{
place = (140, 210);
place = (140, 210);
type = Stem;
}
);
layerId = "A0B3C83F-707E-46F6-ACEE-65DB6FEE929C";
shapes = (
{
closed = 1;
nodes = (
(131,1597,l),
(245,1544,l),
(443,1878,l),
(260,1966,l)
);
},
{
closed = 1;
nodes = (
(140,398,ls),
(140,178,o),
(318,0,o),
(537,0,cs),
(1242,0,l),
(1242,210,l),
(537,210,ls),
(434,210,o),
(350,294,o),
(350,398,cs),
(350,1422,l),
(140,1422,l)
);
}
);
width = 1282;
}
);
unicode = 313;
},
{
glyphname = Lcaron;
kernLeft = at;
kernRight = dcaron;
lastChange = "2024-01-12 17:09:58 +0000";
layers = (
{
hints = (
{
horizontal = 1;
place = (0, 210);
place = (0, 210);
type = Stem;
},
{
horizontal = 1;
place = (1000, 422);
place = (1000, 422);
type = Stem;
},
{
horizontal = 1;
place = (1422, -20);
target = down;
type = TopGhost;
},
{
place = (140, 210);
place = (140, 210);
type = Stem;
},
{
place = (1425, 312);
place = (1425, 312);
type = Stem;
}
);
layerId = "A0B3C83F-707E-46F6-ACEE-65DB6FEE929C";
shapes = (
{
closed = 1;
nodes = (
(1425,1053,l),
(1539,1000,l),
(1737,1334,l),
(1554,1422,l)
);
},
{
closed = 1;
nodes = (
(140,398,ls),
(140,178,o),
(318,0,o),
(537,0,cs),
(1242,0,l),
(1242,210,l),
(537,210,ls),
(434,210,o),
(350,294,o),
(350,398,cs),
(350,1422,l),
(140,1422,l)
);
}
);
width = 1697;
}
);
unicode = 317;
},
{
glyphname = Ldot;
kernLeft = at;
kernRight = L;
lastChange = "2024-01-12 17:09:58 +0000";
layers = (
{
hints = (
{
horizontal = 1;
place = (0, 210);
place = (0, 210);
type = Stem;
},
{
horizontal = 1;
place = (601, 221);
place = (601, 221);
type = Stem;
},
{
horizontal = 1;
place = (1422, -20);
target = down;
type = TopGhost;
},
{
place = (140, 210);
place = (140, 210);
type = Stem;
},
{
place = (581, 221);
place = (581, 221);
type = Stem;
}
);
layerId = "A0B3C83F-707E-46F6-ACEE-65DB6FEE929C";
shapes = (
{
closed = 1;
nodes = (
(581,651,o),
(630,601,o),
(691,601,cs),
(753,601,o),
(802,650,o),
(802,712,cs),
(802,773,o),
(753,822,o),
(691,822,cs),
(630,822,o),
(581,773,o),
(581,712,cs)
);
},
{
closed = 1;
nodes = (
(140,398,ls),
(140,178,o),
(318,0,o),
(537,0,cs),
(1242,0,l),
(1242,210,l),
(537,210,ls),
(434,210,o),
(350,294,o),
(350,398,cs),
(350,1422,l),
(140,1422,l)
);
}
);
width = 1282;
}
);
unicode = 319;
},
{
glyphname = Lslash;
kernLeft = at;
kernRight = L;
lastChange = "2024-01-12 17:09:58 +0000";
layers = (
{
hints = (
{
horizontal = 1;
place = (0, 210);
place = (0, 210);
type = Stem;
},
{
horizontal = 1;
place = (1422, -20);
target = down;
type = TopGhost;
},
{
place = (251, 210);
place = (251, 210);
type = Stem;
}
);
layerId = "A0B3C83F-707E-46F6-ACEE-65DB6FEE929C";
shapes = (
{
closed = 1;
nodes = (
(60,626,l),
(134,499,l),
(251,566,l),
(251,398,ls),
(251,178,o),
(429,0,o),
(648,0,cs),
(1353,0,l),
(1353,210,l),
(648,210,ls),
(545,210,o),
(461,294,o),
(461,398,cs),
(461,687,l),
(651,797,l),
(577,924,l),
(461,857,l),
(461,1422,l),
(251,1422,l),
(251,736,l)
);
}
);
width = 1413;
}
);
unicode = 321;
},
{
glyphname = M;
kernLeft = B2;
kernRight = H;
lastChange = "2024-01-12 17:09:58 +0000";
layers = (
{
hints = (
{
horizontal = 1;
place = (0, 21);
target = up;
type = BottomGhost;
},
{
horizontal = 1;
place = (1422, -20);
target = down;
type = TopGhost;
},
{
place = (140, 211);
place = (140, 211);
type = Stem;
},
{
place = (1233, 211);
place = (1233, 211);
type = Stem;
}
);
layerId = "A0B3C83F-707E-46F6-ACEE-65DB6FEE929C";
shapes = (
{
closed = 1;
nodes = (
(140,0,l),
(351,0,l),
(351,1063,l),
(705,635,l),
(880,635,l),
(1233,1063,l),
(1233,0,l),
(1444,0,l),
(1444,1422,l),
(1251,1422,l),
(792,861,l),
(333,1422,l),
(140,1422,l)
);
}
);
width = 1584;
}
);
unicode = 77;
},
{
glyphname = Mdotaccent;
kernLeft = S;
lastChange = "2024-01-12 17:09:58 +0000";
layers = (
{
hints = (
{
horizontal = 1;
place = (0, 21);
target = up;
type = BottomGhost;
},
{
horizontal = 1;
place = (1422, -20);
target = down;
type = TopGhost;
},
{
horizontal = 1;
place = (1544, 221);
place = (1544, 221);
type = Stem;
},
{
place = (140, 211);
place = (140, 211);
type = Stem;
},
{
place = (682, 221);
place = (682, 221);
type = Stem;
},
{
place = (1233, 211);
place = (1233, 211);
type = Stem;
}
);
layerId = "A0B3C83F-707E-46F6-ACEE-65DB6FEE929C";
shapes = (
{
closed = 1;
nodes = (
(682,1593,o),
(732,1544,o),
(793,1544,cs),
(854,1544,o),
(903,1593,o),
(903,1654,cs),
(903,1716,o),
(854,1765,o),
(793,1765,cs),
(731,1765,o),
(682,1716,o),
(682,1654,cs)
);
},
{
closed = 1;
nodes = (
(140,0,l),
(351,0,l),
(351,1063,l),
(705,635,l),
(880,635,l),
(1233,1063,l),
(1233,0,l),
(1444,0,l),
(1444,1422,l),
(1251,1422,l),
(792,861,l),
(333,1422,l),
(140,1422,l)
);
}
);
width = 1584;
}
);
unicode = 7744;
},
{
glyphname = N;
kernLeft = B2;
kernRight = H;
lastChange = "2024-01-12 17:30:35 +0000";
layers = (
{
anchors = (
{
name = m.ogonek;
pos = (692,-120);
},
{
name = m.ring1;
pos = (692,1544);
}
);
hints = (
{
horizontal = 1;
place = (0, 21);
target = up;
type = BottomGhost;
},
{
horizontal = 1;
place = (1422, -20);
target = down;
type = TopGhost;
},
{
place = (140, 211);
place = (140, 211);
type = Stem;
},
{
place = (1033, 211);
place = (1033, 211);
type = Stem;
}
);
layerId = "A0B3C83F-707E-46F6-ACEE-65DB6FEE929C";
shapes = (
{
closed = 1;
nodes = (
(140,0,l),
(351,0,l),
(351,1102,l),
(970,0,l),
(1244,0,l),
(1244,1422,l),
(1033,1422,l),
(1033,305,l),
(414,1422,l),
(140,1422,l)
);
}
);
width = 1384;
}
);
unicode = 78;
},
{
glyphname = Nacute;
kernLeft = at;
lastChange = "2024-01-12 17:09:58 +0000";
layers = (
{
hints = (
{
horizontal = 1;
place = (0, 21);
target = up;
type = BottomGhost;
},
{
horizontal = 1;
place = (1422, -20);
target = down;
type = TopGhost;
},
{
horizontal = 1;
place = (1544, 422);
place = (1544, 422);
type = Stem;
},
{
place = (140, 211);
place = (140, 211);
type = Stem;
},
{
place = (578, 312);
place = (578, 312);
type = Stem;
},
{
place = (1033, 211);
place = (1033, 211);
type = Stem;
}
);
layerId = "A0B3C83F-707E-46F6-ACEE-65DB6FEE929C";
shapes = (
{
closed = 1;
nodes = (
(578,1597,l),
(692,1544,l),
(890,1878,l),
(707,1966,l)
);
},
{
closed = 1;
nodes = (
(140,0,l),
(351,0,l),
(351,1102,l),
(970,0,l),
(1244,0,l),
(1244,1422,l),
(1033,1422,l),
(1033,305,l),
(414,1422,l),
(140,1422,l)
);
}
);
width = 1384;
}
);
unicode = 323;
},
{
glyphname = Ncaron;
kernLeft = at;
lastChange = "2024-01-12 17:09:58 +0000";
layers = (
{
hints = (
{
horizontal = 1;
place = (0, 21);
target = up;
type = BottomGhost;
},
{
horizontal = 1;
place = (1422, -20);
target = down;
type = TopGhost;
},
{
horizontal = 1;
place = (1544, 309);
place = (1544, 309);
type = Stem;
},
{
place = (140, 211);
place = (140, 211);
type = Stem;
},
{
place = (380, 623);
place = (380, 623);
type = Stem;
},
{
place = (1033, 211);
place = (1033, 211);
type = Stem;
}
);
layerId = "A0B3C83F-707E-46F6-ACEE-65DB6FEE929C";
shapes = (
{
closed = 1;
nodes = (
(380,1853,l),
(614,1544,l),
(769,1544,l),
(1003,1853,l),
(862,1853,l),
(691,1681,l),
(521,1853,l)
);
},
{
closed = 1;
nodes = (
(140,0,l),
(351,0,l),
(351,1102,l),
(970,0,l),
(1244,0,l),
(1244,1422,l),
(1033,1422,l),
(1033,305,l),
(414,1422,l),
(140,1422,l)
);
}
);
width = 1384;
}
);
unicode = 327;
},
{
glyphname = Ntilde;
kernLeft = B2;
kernRight = H;
lastChange = "2024-01-12 17:09:58 +0000";
layers = (
{
hints = (
{
horizontal = 1;
place = (0, 21);
target = up;
type = BottomGhost;
},
{
horizontal = 1;
place = (1422, -20);
target = down;
type = TopGhost;
},
{
horizontal = 1;
place = (1544, 154);
place = (1544, 154);
type = Stem;
},
{
horizontal = 1;
place = (1625, 148);
place = (1625, 148);
type = Stem;
},
{
place = (140, 211);
place = (140, 211);
type = Stem;
},
{
place = (362, 155);
place = (362, 155);
type = Stem;
},
{
place = (863, 157);
place = (863, 157);
type = Stem;
},
{
place = (1033, 211);
place = (1033, 211);
type = Stem;
}
);
layerId = "A0B3C83F-707E-46F6-ACEE-65DB6FEE929C";
shapes = (
{
closed = 1;
nodes = (
(517,1552,l),
(517,1602,o),
(531,1625,o),
(562,1625,cs),
(593,1625,o),
(620,1616,o),
(695,1584,cs),
(765,1554,o),
(797,1544,o),
(828,1544,cs),
(935,1544,o),
(1020,1644,o),
(1020,1768,c),
(863,1768,l),
(863,1720,o),
(849,1698,o),
(818,1698,cs),
(787,1698,o),
(760,1706,o),
(687,1736,cs),
(619,1764,o),
(587,1773,o),
(556,1773,cs),
(444,1773,o),
(363,1680,o),
(362,1552,c)
);
},
{
closed = 1;
nodes = (
(140,0,l),
(351,0,l),
(351,1102,l),
(970,0,l),
(1244,0,l),
(1244,1422,l),
(1033,1422,l),
(1033,305,l),
(414,1422,l),
(140,1422,l)
);
}
);
width = 1384;
}
);
unicode = 209;
},
{
glyphname = Eng;
kernLeft = at;
lastChange = "2024-01-12 17:09:58 +0000";
layers = (
{
hints = (
{
horizontal = 1;
place = (-391, 211);
place = (-391, 211);
type = Stem;
},
{
horizontal = 1;
place = (0, 21);
target = up;
type = BottomGhost;
},
{
horizontal = 1;
place = (1422, -20);
target = down;
type = TopGhost;
},
{
place = (140, 211);
place = (140, 211);
type = Stem;
},
{
place = (1033, 211);
place = (1033, 211);
type = Stem;
}
);
layerId = "A0B3C83F-707E-46F6-ACEE-65DB6FEE929C";
shapes = (
{
closed = 1;
nodes = (
(140,0,l),
(351,0,l),
(351,1102,l),
(970,0,l),
(1033,0,l),
(1033,-60,ls),
(1033,-171,o),
(1021,-180,o),
(874,-180,c),
(874,-391,l),
(1157,-391,o),
(1244,-313,o),
(1244,-60,cs),
(1244,1422,l),
(1033,1422,l),
(1033,305,l),
(414,1422,l),
(140,1422,l)
);
}
);
width = 1384;
}
);
unicode = 330;
},
{
glyphname = O;
kernLeft = C2;
kernRight = D;
lastChange = "2024-01-12 17:30:35 +0000";
layers = (
{
anchors = (
{
name = m.ring1;
pos = (731,1544);
}
);
hints = (
{
horizontal = 1;
place = (0, 210);
place = (0, 210);
type = Stem;
},
{
horizontal = 1;
place = (1212, 210);
place = (1212, 210);
type = Stem;
},
{
place = (140, 211);
place = (140, 211);
type = Stem;
},
{
place = (1110, 211);
place = (1110, 211);
type = Stem;
}
);
layerId = "A0B3C83F-707E-46F6-ACEE-65DB6FEE929C";
shapes = (
{
closed = 1;
nodes = (
(140,400,ls),
(140,179,o),
(330,0,o),
(564,0,cs),
(897,0,ls),
(1131,0,o),
(1321,179,o),
(1321,400,cs),
(1321,1022,ls),
(1321,1243,o),
(1131,1422,o),
(897,1422,cs),
(564,1422,ls),
(330,1422,o),
(140,1243,o),
(140,1022,cs)
);
},
{
closed = 1;
nodes = (
(351,1023,ls),
(351,1127,o),
(446,1212,o),
(564,1212,cs),
(897,1212,ls),
(1015,1212,o),
(1110,1127,o),
(1110,1023,cs),
(1110,399,ls),
(1110,295,o),
(1015,210,o),
(897,210,cs),
(564,210,ls),
(446,210,o),
(351,295,o),
(351,399,cs)
);
}
);
width = 1461;
}
);
unicode = 79;
},
{
glyphname = Oacute;
kernLeft = C2;
kernRight = D;
lastChange = "2024-01-12 17:09:58 +0000";
layers = (
{
hints = (
{
horizontal = 1;
place = (0, 210);
place = (0, 210);
type = Stem;
},
{
horizontal = 1;
place = (1212, 210);
place = (1212, 210);
type = Stem;
},
{
horizontal = 1;
place = (1544, 422);
place = (1544, 422);
type = Stem;
},
{
place = (140, 211);
place = (140, 211);
type = Stem;
},
{
place = (617, 312);
place = (617, 312);
type = Stem;
},
{
place = (1110, 211);
place = (1110, 211);
type = Stem;
}
);
layerId = "A0B3C83F-707E-46F6-ACEE-65DB6FEE929C";
shapes = (
{
closed = 1;
nodes = (
(617,1597,l),
(731,1544,l),
(929,1878,l),
(746,1966,l)
);
},
{
closed = 1;
nodes = (
(140,400,ls),
(140,179,o),
(330,0,o),
(564,0,cs),
(897,0,ls),
(1131,0,o),
(1321,179,o),
(1321,400,cs),
(1321,1022,ls),
(1321,1243,o),
(1131,1422,o),
(897,1422,cs),
(564,1422,ls),
(330,1422,o),
(140,1243,o),
(140,1022,cs)
);
},
{
closed = 1;
nodes = (
(351,1023,ls),
(351,1127,o),
(446,1212,o),
(564,1212,cs),
(897,1212,ls),
(1015,1212,o),
(1110,1127,o),
(1110,1023,cs),
(1110,399,ls),
(1110,295,o),
(1015,210,o),
(897,210,cs),
(564,210,ls),
(446,210,o),
(351,295,o),
(351,399,cs)
);
}
);
width = 1461;
}
);
unicode = 211;
},
{
glyphname = Obreve;
kernLeft = at;
lastChange = "2024-01-12 17:09:58 +0000";
layers = (
{
hints = (
{
horizontal = 1;
place = (0, 210);
place = (0, 210);
type = Stem;
},
{
horizontal = 1;
place = (1212, 210);
place = (1212, 210);
type = Stem;
},
{
horizontal = 1;
place = (1546, 134);
place = (1546, 134);
type = Stem;
},
{
horizontal = 1;
place = (1844, -20);
target = down;
type = TopGhost;
},
{
place = (140, 211);
place = (140, 211);
type = Stem;
},
{
place = (433, 134);
place = (433, 134);
type = Stem;
},
{
place = (895, 134);
place = (895, 134);
type = Stem;
},
{
place = (1110, 211);
place = (1110, 211);
type = Stem;
}
);
layerId = "A0B3C83F-707E-46F6-ACEE-65DB6FEE929C";
shapes = (
{
closed = 1;
nodes = (
(433,1844,l),
(433,1680,o),
(567,1546,o),
(731,1546,cs),
(895,1546,o),
(1029,1680,o),
(1029,1844,c),
(895,1844,l),
(895,1754,o),
(821,1680,o),
(731,1680,cs),
(641,1680,o),
(567,1754,o),
(567,1844,c)
);
},
{
closed = 1;
nodes = (
(140,400,ls),
(140,179,o),
(330,0,o),
(564,0,cs),
(897,0,ls),
(1131,0,o),
(1321,179,o),
(1321,400,cs),
(1321,1022,ls),
(1321,1243,o),
(1131,1422,o),
(897,1422,cs),
(564,1422,ls),
(330,1422,o),
(140,1243,o),
(140,1022,cs)
);
},
{
closed = 1;
nodes = (
(351,1023,ls),
(351,1127,o),
(446,1212,o),
(564,1212,cs),
(897,1212,ls),
(1015,1212,o),
(1110,1127,o),
(1110,1023,cs),
(1110,399,ls),
(1110,295,o),
(1015,210,o),
(897,210,cs),
(564,210,ls),
(446,210,o),
(351,295,o),
(351,399,cs)
);
}
);
width = 1461;
}
);
unicode = 334;
},
{
glyphname = Ocircumflex;
kernLeft = C2;
kernRight = D;
lastChange = "2024-01-12 17:09:58 +0000";
layers = (
{
hints = (
{
horizontal = 1;
place = (0, 210);
place = (0, 210);
type = Stem;
},
{
horizontal = 1;
place = (1212, 210);
place = (1212, 210);
type = Stem;
},
{
horizontal = 1;
place = (1543, 309);
place = (1543, 309);
type = Stem;
},
{
place = (140, 211);
place = (140, 211);
type = Stem;
},
{
place = (420, 623);
place = (420, 623);
type = Stem;
},
{
place = (1110, 211);
place = (1110, 211);
type = Stem;
}
);
layerId = "A0B3C83F-707E-46F6-ACEE-65DB6FEE929C";
shapes = (
{
closed = 1;
nodes = (
(420,1543,l),
(561,1543,l),
(731,1715,l),
(902,1543,l),
(1043,1543,l),
(809,1852,l),
(654,1852,l)
);
},
{
closed = 1;
nodes = (
(140,400,ls),
(140,179,o),
(330,0,o),
(564,0,cs),
(897,0,ls),
(1131,0,o),
(1321,179,o),
(1321,400,cs),
(1321,1022,ls),
(1321,1243,o),
(1131,1422,o),
(897,1422,cs),
(564,1422,ls),
(330,1422,o),
(140,1243,o),
(140,1022,cs)
);
},
{
closed = 1;
nodes = (
(351,1023,ls),
(351,1127,o),
(446,1212,o),
(564,1212,cs),
(897,1212,ls),
(1015,1212,o),
(1110,1127,o),
(1110,1023,cs),
(1110,399,ls),
(1110,295,o),
(1015,210,o),
(897,210,cs),
(564,210,ls),
(446,210,o),
(351,295,o),
(351,399,cs)
);
}
);
width = 1461;
}
);
unicode = 212;
},
{
glyphname = Odieresis;
kernLeft = C2;
kernRight = D;
lastChange = "2024-01-12 17:09:58 +0000";
layers = (
{
hints = (
{
horizontal = 1;
place = (0, 210);
place = (0, 210);
type = Stem;
},
{
horizontal = 1;
place = (1212, 210);
place = (1212, 210);
type = Stem;
},
{
horizontal = 1;
place = (1545, 221);
place = (1545, 221);
type = Stem;
},
{
place = (140, 211);
place = (140, 211);
type = Stem;
},
{
place = (451, 221);
place = (451, 221);
type = Stem;
},
{
place = (791, 221);
place = (791, 221);
type = Stem;
},
{
place = (1110, 211);
place = (1110, 211);
type = Stem;
}
);
layerId = "A0B3C83F-707E-46F6-ACEE-65DB6FEE929C";
shapes = (
{
closed = 1;
nodes = (
(451,1594,o),
(500,1545,o),
(561,1545,cs),
(623,1545,o),
(672,1594,o),
(672,1655,cs),
(672,1717,o),
(623,1766,o),
(561,1766,cs),
(500,1766,o),
(451,1717,o),
(451,1655,cs)
);
},
{
closed = 1;
nodes = (
(791,1594,o),
(840,1545,o),
(901,1545,cs),
(963,1545,o),
(1012,1594,o),
(1012,1655,cs),
(1012,1717,o),
(963,1766,o),
(901,1766,cs),
(840,1766,o),
(791,1717,o),
(791,1655,cs)
);
},
{
closed = 1;
nodes = (
(140,400,ls),
(140,179,o),
(330,0,o),
(564,0,cs),
(897,0,ls),
(1131,0,o),
(1321,179,o),
(1321,400,cs),
(1321,1022,ls),
(1321,1243,o),
(1131,1422,o),
(897,1422,cs),
(564,1422,ls),
(330,1422,o),
(140,1243,o),
(140,1022,cs)
);
},
{
closed = 1;
nodes = (
(351,1023,ls),
(351,1127,o),
(446,1212,o),
(564,1212,cs),
(897,1212,ls),
(1015,1212,o),
(1110,1127,o),
(1110,1023,cs),
(1110,399,ls),
(1110,295,o),
(1015,210,o),
(897,210,cs),
(564,210,ls),
(446,210,o),
(351,295,o),
(351,399,cs)
);
}
);
width = 1461;
}
);
unicode = 214;
},
{
glyphname = Ograve;
kernLeft = C2;
kernRight = D;
lastChange = "2024-01-12 17:09:58 +0000";
layers = (
{
hints = (
{
horizontal = 1;
place = (0, 210);
place = (0, 210);
type = Stem;
},
{
horizontal = 1;
place = (1212, 210);
place = (1212, 210);
type = Stem;
},
{
horizontal = 1;
place = (1544, 422);
place = (1544, 422);
type = Stem;
},
{
place = (140, 211);
place = (140, 211);
type = Stem;
},
{
place = (533, 312);
place = (533, 312);
type = Stem;
},
{
place = (1110, 211);
place = (1110, 211);
type = Stem;
}
);
layerId = "A0B3C83F-707E-46F6-ACEE-65DB6FEE929C";
shapes = (
{
closed = 1;
nodes = (
(533,1878,l),
(731,1544,l),
(845,1597,l),
(716,1966,l)
);
},
{
closed = 1;
nodes = (
(140,400,ls),
(140,179,o),
(330,0,o),
(564,0,cs),
(897,0,ls),
(1131,0,o),
(1321,179,o),
(1321,400,cs),
(1321,1022,ls),
(1321,1243,o),
(1131,1422,o),
(897,1422,cs),
(564,1422,ls),
(330,1422,o),
(140,1243,o),
(140,1022,cs)
);
},
{
closed = 1;
nodes = (
(351,1023,ls),
(351,1127,o),
(446,1212,o),
(564,1212,cs),
(897,1212,ls),
(1015,1212,o),
(1110,1127,o),
(1110,1023,cs),
(1110,399,ls),
(1110,295,o),
(1015,210,o),
(897,210,cs),
(564,210,ls),
(446,210,o),
(351,295,o),
(351,399,cs)
);
}
);
width = 1461;
}
);
unicode = 210;
},
{
glyphname = Ohungarumlaut;
kernLeft = at;
lastChange = "2024-01-12 17:09:58 +0000";
layers = (
{
hints = (
{
horizontal = 1;
place = (0, 210);
place = (0, 210);
type = Stem;
},
{
horizontal = 1;
place = (1212, 210);
place = (1212, 210);
type = Stem;
},
{
horizontal = 1;
place = (1544, 422);
place = (1544, 422);
type = Stem;
},
{
place = (140, 211);
place = (140, 211);
type = Stem;
},
{
place = (1110, 211);
place = (1110, 211);
type = Stem;
}
);
layerId = "A0B3C83F-707E-46F6-ACEE-65DB6FEE929C";
shapes = (
{
closed = 1;
nodes = (
(427,1597,l),
(541,1544,l),
(739,1878,l),
(556,1966,l)
);
},
{
closed = 1;
nodes = (
(807,1597,l),
(921,1544,l),
(1119,1878,l),
(936,1966,l)
);
},
{
closed = 1;
nodes = (
(140,400,ls),
(140,179,o),
(330,0,o),
(564,0,cs),
(897,0,ls),
(1131,0,o),
(1321,179,o),
(1321,400,cs),
(1321,1022,ls),
(1321,1243,o),
(1131,1422,o),
(897,1422,cs),
(564,1422,ls),
(330,1422,o),
(140,1243,o),
(140,1022,cs)
);
},
{
closed = 1;
nodes = (
(351,1023,ls),
(351,1127,o),
(446,1212,o),
(564,1212,cs),
(897,1212,ls),
(1015,1212,o),
(1110,1127,o),
(1110,1023,cs),
(1110,399,ls),
(1110,295,o),
(1015,210,o),
(897,210,cs),
(564,210,ls),
(446,210,o),
(351,295,o),
(351,399,cs)
);
}
);
width = 1461;
}
);
unicode = 336;
},
{
glyphname = Omacron;
kernLeft = at;
lastChange = "2024-01-12 17:09:58 +0000";
layers = (
{
hints = (
{
horizontal = 1;
place = (0, 210);
place = (0, 210);
type = Stem;
},
{
horizontal = 1;
place = (1212, 210);
place = (1212, 210);
type = Stem;
},
{
horizontal = 1;
place = (1544, 147);
place = (1544, 147);
type = Stem;
},
{
place = (140, 211);
place = (140, 211);
type = Stem;
},
{
place = (432, 597);
place = (432, 597);
type = Stem;
},
{
place = (1110, 211);
place = (1110, 211);
type = Stem;
}
);
layerId = "A0B3C83F-707E-46F6-ACEE-65DB6FEE929C";
shapes = (
{
closed = 1;
nodes = (
(432,1544,l),
(1029,1544,l),
(1029,1691,l),
(432,1691,l)
);
},
{
closed = 1;
nodes = (
(140,400,ls),
(140,179,o),
(330,0,o),
(564,0,cs),
(897,0,ls),
(1131,0,o),
(1321,179,o),
(1321,400,cs),
(1321,1022,ls),
(1321,1243,o),
(1131,1422,o),
(897,1422,cs),
(564,1422,ls),
(330,1422,o),
(140,1243,o),
(140,1022,cs)
);
},
{
closed = 1;
nodes = (
(351,1023,ls),
(351,1127,o),
(446,1212,o),
(564,1212,cs),
(897,1212,ls),
(1015,1212,o),
(1110,1127,o),
(1110,1023,cs),
(1110,399,ls),
(1110,295,o),
(1015,210,o),
(897,210,cs),
(564,210,ls),
(446,210,o),
(351,295,o),
(351,399,cs)
);
}
);
width = 1461;
}
);
unicode = 332;
},
{
glyphname = Oslash;
kernLeft = C2;
lastChange = "2024-01-12 17:30:35 +0000";
layers = (
{
anchors = (
{
name = m.ring1;
pos = (731,1544);
}
);
hints = (
{
horizontal = 1;
place = (0, 210);
place = (0, 210);
type = Stem;
},
{
horizontal = 1;
place = (1212, 210);
place = (1212, 210);
type = Stem;
},
{
place = (143, 212);
place = (143, 212);
type = Stem;
},
{
place = (1113, 212);
place = (1113, 212);
type = Stem;
}
);
layerId = "A0B3C83F-707E-46F6-ACEE-65DB6FEE929C";
shapes = (
{
closed = 1;
nodes = (
(105,-4,l),
(259,-111,l),
(370,46,l),
(433,16,o),
(500,0,o),
(567,0,cs),
(901,0,ls),
(1135,0,o),
(1325,179,o),
(1325,400,cs),
(1325,1022,ls),
(1325,1114,o),
(1292,1202,o),
(1230,1274,c),
(1357,1457,l),
(1203,1564,l),
(1078,1385,l),
(1022,1409,o),
(962,1422,o),
(901,1422,cs),
(567,1422,ls),
(333,1422,o),
(143,1243,o),
(143,1022,cs),
(143,400,ls),
(143,315,o),
(171,233,o),
(224,165,c)
);
},
{
closed = 1;
nodes = (
(355,1023,ls),
(355,1128,o),
(450,1212,o),
(567,1212,cs),
(901,1212,ls),
(919,1212,o),
(936,1210,o),
(953,1206,c),
(359,359,l),
(356,370,o),
(355,382,o),
(355,399,cs)
);
},
{
closed = 1;
nodes = (
(1100,1089,l),
(1109,1070,o),
(1113,1048,o),
(1113,1023,cs),
(1113,399,ls),
(1113,294,o),
(1018,210,o),
(901,210,cs),
(567,210,ls),
(541,210,o),
(516,214,o),
(493,222,c)
);
}
);
width = 1462;
}
);
unicode = 216;
},
{
glyphname = Oslashacute;
kernLeft = at;
lastChange = "2024-01-12 17:09:58 +0000";
layers = (
{
hints = (
{
horizontal = 1;
place = (0, 210);
place = (0, 210);
type = Stem;
},
{
horizontal = 1;
place = (1212, 210);
place = (1212, 210);
type = Stem;
},
{
horizontal = 1;
place = (1544, 422);
place = (1544, 422);
type = Stem;
},
{
place = (143, 212);
place = (143, 212);
type = Stem;
},
{
place = (617, 312);
place = (617, 312);
type = Stem;
},
{
place = (1113, 212);
place = (1113, 212);
type = Stem;
}
);
layerId = "A0B3C83F-707E-46F6-ACEE-65DB6FEE929C";
shapes = (
{
closed = 1;
nodes = (
(617,1597,l),
(731,1544,l),
(929,1878,l),
(746,1966,l)
);
},
{
closed = 1;
nodes = (
(105,-4,l),
(259,-111,l),
(370,46,l),
(433,16,o),
(500,0,o),
(567,0,cs),
(901,0,ls),
(1135,0,o),
(1325,179,o),
(1325,400,cs),
(1325,1022,ls),
(1325,1114,o),
(1292,1202,o),
(1230,1274,c),
(1357,1457,l),
(1203,1564,l),
(1078,1385,l),
(1022,1409,o),
(962,1422,o),
(901,1422,cs),
(567,1422,ls),
(333,1422,o),
(143,1243,o),
(143,1022,cs),
(143,400,ls),
(143,315,o),
(171,233,o),
(224,165,c)
);
},
{
closed = 1;
nodes = (
(355,1023,ls),
(355,1128,o),
(450,1212,o),
(567,1212,cs),
(901,1212,ls),
(919,1212,o),
(936,1210,o),
(953,1206,c),
(359,359,l),
(356,370,o),
(355,382,o),
(355,399,cs)
);
},
{
closed = 1;
nodes = (
(1100,1089,l),
(1109,1070,o),
(1113,1048,o),
(1113,1023,cs),
(1113,399,ls),
(1113,294,o),
(1018,210,o),
(901,210,cs),
(567,210,ls),
(541,210,o),
(516,214,o),
(493,222,c)
);
}
);
width = 1462;
}
);
unicode = 510;
},
{
glyphname = Otilde;
kernLeft = C2;
kernRight = D;
lastChange = "2024-01-12 17:09:58 +0000";
layers = (
{
hints = (
{
horizontal = 1;
place = (0, 210);
place = (0, 210);
type = Stem;
},
{
horizontal = 1;
place = (1212, 210);
place = (1212, 210);
type = Stem;
},
{
horizontal = 1;
place = (1544, 154);
place = (1544, 154);
type = Stem;
},
{
horizontal = 1;
place = (1625, 148);
place = (1625, 148);
type = Stem;
},
{
place = (140, 211);
place = (140, 211);
type = Stem;
},
{
place = (401, 155);
place = (401, 155);
type = Stem;
},
{
place = (902, 157);
place = (902, 157);
type = Stem;
},
{
place = (1110, 211);
place = (1110, 211);
type = Stem;
}
);
layerId = "A0B3C83F-707E-46F6-ACEE-65DB6FEE929C";
shapes = (
{
closed = 1;
nodes = (
(556,1552,l),
(556,1602,o),
(570,1625,o),
(601,1625,cs),
(632,1625,o),
(659,1616,o),
(734,1584,cs),
(804,1554,o),
(836,1544,o),
(867,1544,cs),
(974,1544,o),
(1059,1644,o),
(1059,1768,c),
(902,1768,l),
(902,1720,o),
(888,1698,o),
(857,1698,cs),
(826,1698,o),
(799,1706,o),
(726,1736,cs),
(658,1764,o),
(626,1773,o),
(595,1773,cs),
(483,1773,o),
(402,1680,o),
(401,1552,c)
);
},
{
closed = 1;
nodes = (
(140,400,ls),
(140,179,o),
(330,0,o),
(564,0,cs),
(897,0,ls),
(1131,0,o),
(1321,179,o),
(1321,400,cs),
(1321,1022,ls),
(1321,1243,o),
(1131,1422,o),
(897,1422,cs),
(564,1422,ls),
(330,1422,o),
(140,1243,o),
(140,1022,cs)
);
},
{
closed = 1;
nodes = (
(351,1023,ls),
(351,1127,o),
(446,1212,o),
(564,1212,cs),
(897,1212,ls),
(1015,1212,o),
(1110,1127,o),
(1110,1023,cs),
(1110,399,ls),
(1110,295,o),
(1015,210,o),
(897,210,cs),
(564,210,ls),
(446,210,o),
(351,295,o),
(351,399,cs)
);
}
);
width = 1461;
}
);
unicode = 213;
},
{
glyphname = OE;
kernLeft = at;
lastChange = "2024-01-12 17:30:35 +0000";
layers = (
{
anchors = (
{
name = m.ring1;
pos = (1166,1544);
}
);
hints = (
{
horizontal = 1;
place = (0, 211);
place = (0, 211);
type = Stem;
},
{
horizontal = 1;
place = (635, 210);
place = (635, 210);
type = Stem;
},
{
horizontal = 1;
place = (1212, 210);
place = (1212, 210);
type = Stem;
},
{
place = (140, 211);
place = (140, 211);
type = Stem;
},
{
place = (1110, 211);
place = (1110, 211);
type = Stem;
}
);
layerId = "A0B3C83F-707E-46F6-ACEE-65DB6FEE929C";
shapes = (
{
closed = 1;
nodes = (
(140,400,ls),
(140,179,o),
(330,0,o),
(564,0,cs),
(897,0,ls),
(973,0,o),
(1044,18,o),
(1110,54,c),
(1110,0,l),
(2213,0,l),
(2213,211,l),
(1321,211,l),
(1321,1212,l),
(2213,1212,l),
(2213,1422,l),
(1110,1422,l),
(1110,1368,l),
(1044,1404,o),
(973,1422,o),
(897,1422,cs),
(564,1422,ls),
(330,1422,o),
(140,1243,o),
(140,1022,cs)
);
},
{
closed = 1;
nodes = (
(351,1023,ls),
(351,1127,o),
(446,1212,o),
(564,1212,cs),
(897,1212,ls),
(1015,1212,o),
(1110,1127,o),
(1110,1023,cs),
(1110,399,ls),
(1110,295,o),
(1015,210,o),
(897,210,cs),
(564,210,ls),
(446,210,o),
(351,295,o),
(351,399,cs)
);
},
{
closed = 1;
nodes = (
(1441,635,l),
(2213,635,l),
(2213,845,l),
(1441,845,l)
);
}
);
width = 2333;
}
);
unicode = 338;
},
{
glyphname = P;
kernLeft = B2;
lastChange = "2024-01-12 17:30:35 +0000";
layers = (
{
anchors = (
{
name = m.ring1;
pos = (674,1544);
}
);
hints = (
{
horizontal = 1;
place = (0, 21);
target = up;
type = BottomGhost;
},
{
horizontal = 1;
place = (585, 210);
place = (585, 210);
type = Stem;
},
{
horizontal = 1;
place = (1212, 210);
place = (1212, 210);
type = Stem;
},
{
place = (140, 211);
place = (140, 211);
type = Stem;
},
{
place = (1033, 210);
place = (1033, 210);
type = Stem;
}
);
layerId = "A0B3C83F-707E-46F6-ACEE-65DB6FEE929C";
shapes = (
{
closed = 1;
nodes = (
(140,0,l),
(351,0,l),
(351,1212,l),
(892,1212,ls),
(970,1212,o),
(1033,1149,o),
(1033,1072,cs),
(1033,933,ls),
(1033,856,o),
(970,795,o),
(892,795,cs),
(471,795,l),
(471,585,l),
(892,585,ls),
(1086,585,o),
(1243,739,o),
(1243,930,cs),
(1243,1072,ls),
(1243,1265,o),
(1086,1422,o),
(892,1422,cs),
(140,1422,l)
);
}
);
width = 1348;
}
);
unicode = 80;
},
{
glyphname = Pdotaccent;
kernLeft = S;
lastChange = "2024-01-12 17:09:58 +0000";
layers = (
{
hints = (
{
horizontal = 1;
place = (0, 21);
target = up;
type = BottomGhost;
},
{
horizontal = 1;
place = (585, 210);
place = (585, 210);
type = Stem;
},
{
horizontal = 1;
place = (1212, 210);
place = (1212, 210);
type = Stem;
},
{
horizontal = 1;
place = (1544, 221);
place = (1544, 221);
type = Stem;
},
{
place = (140, 211);
place = (140, 211);
type = Stem;
},
{
place = (563, 221);
place = (563, 221);
type = Stem;
},
{
place = (1033, 210);
place = (1033, 210);
type = Stem;
}
);
layerId = "A0B3C83F-707E-46F6-ACEE-65DB6FEE929C";
shapes = (
{
closed = 1;
nodes = (
(563,1593,o),
(613,1544,o),
(674,1544,cs),
(735,1544,o),
(784,1593,o),
(784,1654,cs),
(784,1716,o),
(735,1765,o),
(674,1765,cs),
(612,1765,o),
(563,1716,o),
(563,1654,cs)
);
},
{
closed = 1;
nodes = (
(140,0,l),
(351,0,l),
(351,1212,l),
(892,1212,ls),
(970,1212,o),
(1033,1149,o),
(1033,1072,cs),
(1033,933,ls),
(1033,856,o),
(970,795,o),
(892,795,cs),
(471,795,l),
(471,585,l),
(892,585,ls),
(1086,585,o),
(1243,739,o),
(1243,930,cs),
(1243,1072,ls),
(1243,1265,o),
(1086,1422,o),
(892,1422,cs),
(140,1422,l)
);
}
);
width = 1348;
}
);
unicode = 7766;
},
{
glyphname = Thorn;
kernLeft = at;
lastChange = "2024-01-12 17:09:58 +0000";
layers = (
{
hints = (
{
horizontal = 1;
place = (0, 21);
target = up;
type = BottomGhost;
},
{
horizontal = 1;
place = (189, 211);
place = (189, 211);
type = Stem;
},
{
horizontal = 1;
place = (1014, 211);
place = (1014, 211);
type = Stem;
},
{
horizontal = 1;
place = (1422, -20);
target = down;
type = TopGhost;
},
{
place = (120, 211);
place = (120, 211);
type = Stem;
},
{
place = (884, 211);
place = (884, 211);
type = Stem;
}
);
layerId = "A0B3C83F-707E-46F6-ACEE-65DB6FEE929C";
shapes = (
{
closed = 1;
nodes = (
(120,0,l),
(331,0,l),
(331,227,l),
(385,202,o),
(440,189,o),
(495,189,cs),
(721,189,ls),
(927,189,o),
(1095,357,o),
(1095,563,cs),
(1095,851,ls),
(1095,1057,o),
(927,1225,o),
(721,1225,cs),
(495,1225,ls),
(440,1225,o),
(385,1212,o),
(331,1187,c),
(331,1422,l),
(120,1422,l)
);
},
{
closed = 1;
nodes = (
(332,849,ls),
(332,940,o),
(405,1014,o),
(495,1014,cs),
(721,1014,ls),
(811,1014,o),
(884,940,o),
(884,849,cs),
(884,565,ls),
(884,474,o),
(811,400,o),
(721,400,cs),
(495,400,ls),
(405,400,o),
(332,474,o),
(332,565,cs)
);
}
);
width = 1195;
}
);
unicode = 222;
},
{
glyphname = Q;
kernLeft = C2;
kernRight = D;
lastChange = "2024-01-12 17:09:58 +0000";
layers = (
{
hints = (
{
horizontal = 1;
place = (0, 210);
place = (0, 210);
type = Stem;
},
{
horizontal = 1;
place = (1212, 210);
place = (1212, 210);
type = Stem;
},
{
place = (140, 211);
place = (140, 211);
type = Stem;
},
{
place = (1110, 211);
place = (1110, 211);
type = Stem;
}
);
layerId = "A0B3C83F-707E-46F6-ACEE-65DB6FEE929C";
shapes = (
{
closed = 1;
nodes = (
(140,400,ls),
(140,179,o),
(330,0,o),
(564,0,cs),
(655,0,l),
(928,-273,l),
(1077,-123,l),
(951,3,l),
(1162,28,o),
(1321,198,o),
(1321,400,cs),
(1321,1022,ls),
(1321,1243,o),
(1131,1422,o),
(897,1422,cs),
(564,1422,ls),
(330,1422,o),
(140,1243,o),
(140,1022,cs)
);
},
{
closed = 1;
nodes = (
(351,1023,ls),
(351,1127,o),
(446,1212,o),
(564,1212,cs),
(897,1212,ls),
(1015,1212,o),
(1110,1127,o),
(1110,1023,cs),
(1110,399,ls),
(1110,295,o),
(1015,210,o),
(897,210,cs),
(564,210,ls),
(446,210,o),
(351,295,o),
(351,399,cs)
);
}
);
width = 1461;
}
);
unicode = 81;
},
{
glyphname = R;
kernLeft = B2;
kernRight = R;
lastChange = "2024-01-12 17:30:35 +0000";
layers = (
{
anchors = (
{
name = m.ogonek;
pos = (687,-120);
},
{
name = m.ring1;
pos = (687,1544);
}
);
hints = (
{
horizontal = 1;
place = (0, 21);
target = up;
type = BottomGhost;
},
{
horizontal = 1;
place = (585, 210);
place = (585, 210);
type = Stem;
},
{
horizontal = 1;
place = (1212, 210);
place = (1212, 210);
type = Stem;
},
{
place = (140, 211);
place = (140, 211);
type = Stem;
},
{
place = (1033, 210);
place = (1033, 210);
type = Stem;
}
);
layerId = "A0B3C83F-707E-46F6-ACEE-65DB6FEE929C";
shapes = (
{
closed = 1;
nodes = (
(140,0,l),
(351,0,l),
(351,1212,l),
(892,1212,ls),
(970,1212,o),
(1033,1149,o),
(1033,1072,cs),
(1033,933,ls),
(1033,857,o),
(970,795,o),
(892,795,cs),
(471,795,l),
(471,585,l),
(634,585,l),
(1058,0,l),
(1315,0,l),
(891,585,l),
(1089,585,o),
(1243,736,o),
(1243,930,cs),
(1243,1072,ls),
(1243,1265,o),
(1085,1422,o),
(892,1422,cs),
(140,1422,l)
);
}
);
width = 1375;
}
);
unicode = 82;
},
{
glyphname = Racute;
kernLeft = at;
lastChange = "2024-01-12 17:09:58 +0000";
layers = (
{
hints = (
{
horizontal = 1;
place = (0, 21);
target = up;
type = BottomGhost;
},
{
horizontal = 1;
place = (585, 210);
place = (585, 210);
type = Stem;
},
{
horizontal = 1;
place = (1212, 210);
place = (1212, 210);
type = Stem;
},
{
horizontal = 1;
place = (1544, 422);
place = (1544, 422);
type = Stem;
},
{
place = (140, 211);
place = (140, 211);
type = Stem;
},
{
place = (614, 312);
place = (614, 312);
type = Stem;
},
{
place = (1033, 210);
place = (1033, 210);
type = Stem;
}
);
layerId = "A0B3C83F-707E-46F6-ACEE-65DB6FEE929C";
shapes = (
{
closed = 1;
nodes = (
(614,1597,l),
(728,1544,l),
(926,1878,l),
(743,1966,l)
);
},
{
closed = 1;
nodes = (
(140,0,l),
(351,0,l),
(351,1212,l),
(892,1212,ls),
(970,1212,o),
(1033,1149,o),
(1033,1072,cs),
(1033,933,ls),
(1033,857,o),
(970,795,o),
(892,795,cs),
(471,795,l),
(471,585,l),
(634,585,l),
(1058,0,l),
(1315,0,l),
(891,585,l),
(1089,585,o),
(1243,736,o),
(1243,930,cs),
(1243,1072,ls),
(1243,1265,o),
(1085,1422,o),
(892,1422,cs),
(140,1422,l)
);
}
);
width = 1375;
}
);
unicode = 340;
},
{
glyphname = Rcaron;
kernLeft = at;
kernRight = R;
lastChange = "2024-01-12 17:09:58 +0000";
layers = (
{
hints = (
{
horizontal = 1;
place = (0, 21);
target = up;
type = BottomGhost;
},
{
horizontal = 1;
place = (585, 210);
place = (585, 210);
type = Stem;
},
{
horizontal = 1;
place = (1212, 210);
place = (1212, 210);
type = Stem;
},
{
horizontal = 1;
place = (1544, 309);
place = (1544, 309);
type = Stem;
},
{
place = (140, 211);
place = (140, 211);
type = Stem;
},
{
place = (375, 623);
place = (375, 623);
type = Stem;
},
{
place = (1033, 210);
place = (1033, 210);
type = Stem;
}
);
layerId = "A0B3C83F-707E-46F6-ACEE-65DB6FEE929C";
shapes = (
{
closed = 1;
nodes = (
(375,1853,l),
(609,1544,l),
(764,1544,l),
(998,1853,l),
(857,1853,l),
(686,1681,l),
(516,1853,l)
);
},
{
closed = 1;
nodes = (
(140,0,l),
(351,0,l),
(351,1212,l),
(892,1212,ls),
(970,1212,o),
(1033,1149,o),
(1033,1072,cs),
(1033,933,ls),
(1033,857,o),
(970,795,o),
(892,795,cs),
(471,795,l),
(471,585,l),
(634,585,l),
(1058,0,l),
(1315,0,l),
(891,585,l),
(1089,585,o),
(1243,736,o),
(1243,930,cs),
(1243,1072,ls),
(1243,1265,o),
(1085,1422,o),
(892,1422,cs),
(140,1422,l)
);
}
);
width = 1375;
}
);
unicode = 344;
},
{
glyphname = S;
kernLeft = S;
kernRight = G;
lastChange = "2024-01-12 17:30:35 +0000";
layers = (
{
anchors = (
{
name = m.ogonek;
pos = (700,6);
},
{
name = m.ring1;
pos = (700,1544);
}
);
hints = (
{
horizontal = 1;
place = (0, 211);
place = (0, 211);
type = Stem;
},
{
horizontal = 1;
place = (635, 210);
place = (635, 210);
type = Stem;
},
{
horizontal = 1;
place = (1212, 210);
place = (1212, 210);
type = Stem;
},
{
place = (120, 211);
place = (120, 211);
type = Stem;
},
{
place = (1068, 211);
place = (1068, 211);
type = Stem;
}
);
layerId = "A0B3C83F-707E-46F6-ACEE-65DB6FEE929C";
shapes = (
{
closed = 1;
nodes = (
(120,973,ls),
(120,786,o),
(278,635,o),
(473,635,cs),
(926,635,ls),
(1004,635,o),
(1068,574,o),
(1068,499,cs),
(1068,346,ls),
(1068,271,o),
(1004,211,o),
(926,211,cs),
(121,211,l),
(121,0,l),
(926,0,ls),
(1121,0,o),
(1279,155,o),
(1279,345,cs),
(1279,500,ls),
(1279,690,o),
(1121,845,o),
(926,845,cs),
(473,845,ls),
(395,845,o),
(331,903,o),
(331,974,cs),
(331,1072,ls),
(331,1149,o),
(395,1212,o),
(473,1212,cs),
(1209,1212,l),
(1209,1422,l),
(473,1422,ls),
(278,1422,o),
(120,1268,o),
(120,1078,cs)
);
}
);
width = 1399;
}
);
unicode = 83;
},
{
glyphname = Sacute;
kernLeft = at;
lastChange = "2024-01-12 17:09:58 +0000";
layers = (
{
hints = (
{
horizontal = 1;
place = (0, 211);
place = (0, 211);
type = Stem;
},
{
horizontal = 1;
place = (635, 210);
place = (635, 210);
type = Stem;
},
{
horizontal = 1;
place = (1212, 210);
place = (1212, 210);
type = Stem;
},
{
horizontal = 1;
place = (1544, 422);
place = (1544, 422);
type = Stem;
},
{
place = (120, 211);
place = (120, 211);
type = Stem;
},
{
place = (586, 312);
place = (586, 312);
type = Stem;
},
{
place = (1068, 211);
place = (1068, 211);
type = Stem;
}
);
layerId = "A0B3C83F-707E-46F6-ACEE-65DB6FEE929C";
shapes = (
{
closed = 1;
nodes = (
(586,1597,l),
(700,1544,l),
(898,1878,l),
(715,1966,l)
);
},
{
closed = 1;
nodes = (
(120,973,ls),
(120,786,o),
(278,635,o),
(473,635,cs),
(926,635,ls),
(1004,635,o),
(1068,574,o),
(1068,499,cs),
(1068,346,ls),
(1068,271,o),
(1004,211,o),
(926,211,cs),
(121,211,l),
(121,0,l),
(926,0,ls),
(1121,0,o),
(1279,155,o),
(1279,345,cs),
(1279,500,ls),
(1279,690,o),
(1121,845,o),
(926,845,cs),
(473,845,ls),
(395,845,o),
(331,903,o),
(331,974,cs),
(331,1072,ls),
(331,1149,o),
(395,1212,o),
(473,1212,cs),
(1209,1212,l),
(1209,1422,l),
(473,1422,ls),
(278,1422,o),
(120,1268,o),
(120,1078,cs)
);
}
);
width = 1399;
}
);
unicode = 346;
},
{
glyphname = Scaron;
kernLeft = at;
lastChange = "2024-01-12 17:09:58 +0000";
layers = (
{
hints = (
{
horizontal = 1;
place = (0, 211);
place = (0, 211);
type = Stem;
},
{
horizontal = 1;
place = (635, 210);
place = (635, 210);
type = Stem;
},
{
horizontal = 1;
place = (1212, 210);
place = (1212, 210);
type = Stem;
},
{
horizontal = 1;
place = (1544, 309);
place = (1544, 309);
type = Stem;
},
{
place = (120, 211);
place = (120, 211);
type = Stem;
},
{
place = (388, 623);
place = (388, 623);
type = Stem;
},
{
place = (1068, 211);
place = (1068, 211);
type = Stem;
}
);
layerId = "A0B3C83F-707E-46F6-ACEE-65DB6FEE929C";
shapes = (
{
closed = 1;
nodes = (
(388,1853,l),
(622,1544,l),
(777,1544,l),
(1011,1853,l),
(870,1853,l),
(699,1681,l),
(529,1853,l)
);
},
{
closed = 1;
nodes = (
(120,973,ls),
(120,786,o),
(278,635,o),
(473,635,cs),
(926,635,ls),
(1004,635,o),
(1068,574,o),
(1068,499,cs),
(1068,346,ls),
(1068,271,o),
(1004,211,o),
(926,211,cs),
(121,211,l),
(121,0,l),
(926,0,ls),
(1121,0,o),
(1279,155,o),
(1279,345,cs),
(1279,500,ls),
(1279,690,o),
(1121,845,o),
(926,845,cs),
(473,845,ls),
(395,845,o),
(331,903,o),
(331,974,cs),
(331,1072,ls),
(331,1149,o),
(395,1212,o),
(473,1212,cs),
(1209,1212,l),
(1209,1422,l),
(473,1422,ls),
(278,1422,o),
(120,1268,o),
(120,1078,cs)
);
}
);
width = 1399;
}
);
unicode = 352;
},
{
glyphname = Scedilla;
kernLeft = at;
lastChange = "2024-01-12 17:09:58 +0000";
layers = (
{
hints = (
{
horizontal = 1;
place = (-307, 150);
place = (-307, 150);
type = Stem;
},
{
horizontal = 1;
place = (0, 211);
place = (0, 211);
type = Stem;
},
{
horizontal = 1;
place = (635, 210);
place = (635, 210);
type = Stem;
},
{
horizontal = 1;
place = (1212, 210);
place = (1212, 210);
type = Stem;
},
{
place = (120, 211);
place = (120, 211);
type = Stem;
},
{
place = (664, 151);
place = (664, 151);
type = Stem;
},
{
place = (1068, 211);
place = (1068, 211);
type = Stem;
}
);
layerId = "A0B3C83F-707E-46F6-ACEE-65DB6FEE929C";
shapes = (
{
closed = 1;
nodes = (
(513,-291,l),
(601,-304,o),
(630,-307,o),
(663,-307,cs),
(767,-307,o),
(815,-266,o),
(815,-177,cs),
(815,-130,o),
(801,-69,o),
(773,6,c),
(625,6,l),
(657,-83,o),
(664,-106,o),
(664,-126,cs),
(664,-148,o),
(653,-157,o),
(623,-157,cs),
(606,-157,o),
(595,-156,o),
(513,-143,c)
);
},
{
closed = 1;
nodes = (
(120,973,ls),
(120,786,o),
(278,635,o),
(473,635,cs),
(926,635,ls),
(1004,635,o),
(1068,574,o),
(1068,499,cs),
(1068,346,ls),
(1068,271,o),
(1004,211,o),
(926,211,cs),
(121,211,l),
(121,0,l),
(926,0,ls),
(1121,0,o),
(1279,155,o),
(1279,345,cs),
(1279,500,ls),
(1279,690,o),
(1121,845,o),
(926,845,cs),
(473,845,ls),
(395,845,o),
(331,903,o),
(331,974,cs),
(331,1072,ls),
(331,1149,o),
(395,1212,o),
(473,1212,cs),
(1209,1212,l),
(1209,1422,l),
(473,1422,ls),
(278,1422,o),
(120,1268,o),
(120,1078,cs)
);
}
);
width = 1399;
}
);
unicode = 350;
},
{
glyphname = Scircumflex;
kernLeft = at;
lastChange = "2024-01-12 17:09:58 +0000";
layers = (
{
hints = (
{
horizontal = 1;
place = (0, 211);
place = (0, 211);
type = Stem;
},
{
horizontal = 1;
place = (635, 210);
place = (635, 210);
type = Stem;
},
{
horizontal = 1;
place = (1212, 210);
place = (1212, 210);
type = Stem;
},
{
horizontal = 1;
place = (1543, 309);
place = (1543, 309);
type = Stem;
},
{
place = (120, 211);
place = (120, 211);
type = Stem;
},
{
place = (389, 623);
place = (389, 623);
type = Stem;
},
{
place = (1068, 211);
place = (1068, 211);
type = Stem;
}
);
layerId = "A0B3C83F-707E-46F6-ACEE-65DB6FEE929C";
shapes = (
{
closed = 1;
nodes = (
(389,1543,l),
(530,1543,l),
(700,1715,l),
(871,1543,l),
(1012,1543,l),
(778,1852,l),
(623,1852,l)
);
},
{
closed = 1;
nodes = (
(120,973,ls),
(120,786,o),
(278,635,o),
(473,635,cs),
(926,635,ls),
(1004,635,o),
(1068,574,o),
(1068,499,cs),
(1068,346,ls),
(1068,271,o),
(1004,211,o),
(926,211,cs),
(121,211,l),
(121,0,l),
(926,0,ls),
(1121,0,o),
(1279,155,o),
(1279,345,cs),
(1279,500,ls),
(1279,690,o),
(1121,845,o),
(926,845,cs),
(473,845,ls),
(395,845,o),
(331,903,o),
(331,974,cs),
(331,1072,ls),
(331,1149,o),
(395,1212,o),
(473,1212,cs),
(1209,1212,l),
(1209,1422,l),
(473,1422,ls),
(278,1422,o),
(120,1268,o),
(120,1078,cs)
);
}
);
width = 1399;
}
);
unicode = 348;
},
{
glyphname = Scommaaccent;
kernLeft = S;
lastChange = "2024-01-12 17:09:58 +0000";
layers = (
{
hints = (
{
horizontal = 1;
place = (-408, 414);
place = (-408, 414);
type = Stem;
},
{
horizontal = 1;
place = (0, 211);
place = (0, 211);
type = Stem;
},
{
horizontal = 1;
place = (635, 210);
place = (635, 210);
type = Stem;
},
{
horizontal = 1;
place = (1212, 210);
place = (1212, 210);
type = Stem;
},
{
place = (120, 211);
place = (120, 211);
type = Stem;
},
{
place = (519, 287);
place = (519, 287);
type = Stem;
},
{
place = (1068, 211);
place = (1068, 211);
type = Stem;
}
);
layerId = "A0B3C83F-707E-46F6-ACEE-65DB6FEE929C";
shapes = (
{
closed = 1;
nodes = (
(519,-408,l),
(677,-408,l),
(806,6,l),
(594,6,l)
);
},
{
closed = 1;
nodes = (
(120,973,ls),
(120,786,o),
(278,635,o),
(473,635,cs),
(926,635,ls),
(1004,635,o),
(1068,574,o),
(1068,499,cs),
(1068,346,ls),
(1068,271,o),
(1004,211,o),
(926,211,cs),
(121,211,l),
(121,0,l),
(926,0,ls),
(1121,0,o),
(1279,155,o),
(1279,345,cs),
(1279,500,ls),
(1279,690,o),
(1121,845,o),
(926,845,cs),
(473,845,ls),
(395,845,o),
(331,903,o),
(331,974,cs),
(331,1072,ls),
(331,1149,o),
(395,1212,o),
(473,1212,cs),
(1209,1212,l),
(1209,1422,l),
(473,1422,ls),
(278,1422,o),
(120,1268,o),
(120,1078,cs)
);
}
);
width = 1399;
}
);
unicode = 536;
},
{
glyphname = Sdotaccent;
kernLeft = S;
lastChange = "2024-01-12 17:09:58 +0000";
layers = (
{
hints = (
{
horizontal = 1;
place = (0, 211);
place = (0, 211);
type = Stem;
},
{
horizontal = 1;
place = (635, 210);
place = (635, 210);
type = Stem;
},
{
horizontal = 1;
place = (1212, 210);
place = (1212, 210);
type = Stem;
},
{
horizontal = 1;
place = (1544, 221);
place = (1544, 221);
type = Stem;
},
{
place = (120, 211);
place = (120, 211);
type = Stem;
},
{
place = (589, 221);
place = (589, 221);
type = Stem;
},
{
place = (1068, 211);
place = (1068, 211);
type = Stem;
}
);
layerId = "A0B3C83F-707E-46F6-ACEE-65DB6FEE929C";
shapes = (
{
closed = 1;
nodes = (
(589,1593,o),
(639,1544,o),
(700,1544,cs),
(761,1544,o),
(810,1593,o),
(810,1654,cs),
(810,1716,o),
(761,1765,o),
(700,1765,cs),
(638,1765,o),
(589,1716,o),
(589,1654,cs)
);
},
{
closed = 1;
nodes = (
(120,973,ls),
(120,786,o),
(278,635,o),
(473,635,cs),
(926,635,ls),
(1004,635,o),
(1068,574,o),
(1068,499,cs),
(1068,346,ls),
(1068,271,o),
(1004,211,o),
(926,211,cs),
(121,211,l),
(121,0,l),
(926,0,ls),
(1121,0,o),
(1279,155,o),
(1279,345,cs),
(1279,500,ls),
(1279,690,o),
(1121,845,o),
(926,845,cs),
(473,845,ls),
(395,845,o),
(331,903,o),
(331,974,cs),
(331,1072,ls),
(331,1149,o),
(395,1212,o),
(473,1212,cs),
(1209,1212,l),
(1209,1422,l),
(473,1422,ls),
(278,1422,o),
(120,1268,o),
(120,1078,cs)
);
}
);
width = 1399;
}
);
unicode = 7776;
},
{
glyphname = Germandbls;
kernLeft = S;
kernRight = B;
lastChange = "2024-01-12 17:26:04 +0000";
layers = (
{
hints = (
{
horizontal = 1;
place = (0, 210);
place = (0, 210);
type = Stem;
},
{
horizontal = 1;
place = (639, 210);
place = (639, 210);
type = Stem;
},
{
horizontal = 1;
place = (1212, 210);
place = (1212, 210);
type = Stem;
},
{
place = (140, 210);
place = (140, 210);
type = Stem;
},
{
place = (844, 210);
place = (844, 210);
type = Stem;
},
{
place = (873, 210);
place = (873, 210);
type = Stem;
}
);
layerId = "A0B3C83F-707E-46F6-ACEE-65DB6FEE929C";
shapes = (
{
closed = 1;
nodes = (
(140,0,l),
(351,0,l),
(351,1087,ls),
(351,1156,o),
(416,1212,o),
(496,1212,cs),
(941,1212,ls),
(1021,1212,o),
(1085,1156,o),
(1085,1087,cs),
(1085,994,ls),
(1085,914,o),
(1021,849,o),
(941,849,cs),
(459,849,l),
(459,639,l),
(949,639,ls),
(1047,639,o),
(1114,580,o),
(1114,494,cs),
(1114,335,ls),
(1114,266,o),
(1045,210,o),
(958,210,cs),
(459,210,l),
(459,0,l),
(969,0,ls),
(1165,0,o),
(1324,150,o),
(1324,335,cs),
(1324,494,ls),
(1324,617,o),
(1277,710,o),
(1190,758,c),
(1262,813,o),
(1295,888,o),
(1295,994,cs),
(1295,1087,ls),
(1295,1272,o),
(1136,1422,o),
(941,1422,cs),
(496,1422,ls),
(300,1422,o),
(140,1272,o),
(140,1087,cs)
);
}
);
width = 1444;
}
);
unicode = 7838;
},
{
glyphname = T;
kernLeft = T2;
kernRight = T;
lastChange = "2024-01-12 17:30:35 +0000";
layers = (
{
anchors = (
{
name = m.ogonek;
pos = (619,6);
},
{
name = m.ring1;
pos = (619,1544);
}
);
hints = (
{
horizontal = 1;
place = (0, 21);
target = up;
type = BottomGhost;
},
{
horizontal = 1;
place = (1212, 210);
place = (1212, 210);
type = Stem;
},
{
place = (513, 212);
place = (513, 212);
type = Stem;
}
);
layerId = "A0B3C83F-707E-46F6-ACEE-65DB6FEE929C";
shapes = (
{
closed = 1;
nodes = (
(40,1212,l),
(513,1212,l),
(513,0,l),
(725,0,l),
(725,1212,l),
(1198,1212,l),
(1198,1422,l),
(40,1422,l)
);
}
);
width = 1238;
}
);
unicode = 84;
},
{
glyphname = Tbar;
kernLeft = at;
kernRight = T;
lastChange = "2024-01-12 17:09:58 +0000";
layers = (
{
hints = (
{
horizontal = 1;
place = (0, 21);
target = up;
type = BottomGhost;
},
{
horizontal = 1;
place = (634, 212);
place = (634, 212);
type = Stem;
},
{
horizontal = 1;
place = (1212, 210);
place = (1212, 210);
type = Stem;
},
{
place = (518, 213);
place = (518, 213);
type = Stem;
}
);
layerId = "A0B3C83F-707E-46F6-ACEE-65DB6FEE929C";
shapes = (
{
closed = 1;
nodes = (
(40,1212,l),
(518,1212,l),
(518,846,l),
(291,846,l),
(291,634,l),
(518,634,l),
(518,0,l),
(731,0,l),
(731,634,l),
(956,634,l),
(956,846,l),
(731,846,l),
(731,1212,l),
(1198,1212,l),
(1198,1422,l),
(40,1422,l)
);
}
);
width = 1238;
}
);
unicode = 358;
},
{
glyphname = Tcaron;
kernLeft = T2;
kernRight = T;
lastChange = "2024-01-12 17:09:58 +0000";
layers = (
{
hints = (
{
horizontal = 1;
place = (0, 21);
target = up;
type = BottomGhost;
},
{
horizontal = 1;
place = (1212, 210);
place = (1212, 210);
type = Stem;
},
{
horizontal = 1;
place = (1544, 309);
place = (1544, 309);
type = Stem;
},
{
place = (307, 623);
place = (307, 623);
type = Stem;
},
{
place = (513, 212);
place = (513, 212);
type = Stem;
}
);
layerId = "A0B3C83F-707E-46F6-ACEE-65DB6FEE929C";
shapes = (
{
closed = 1;
nodes = (
(307,1853,l),
(541,1544,l),
(696,1544,l),
(930,1853,l),
(789,1853,l),
(618,1681,l),
(448,1853,l)
);
},
{
closed = 1;
nodes = (
(40,1212,l),
(513,1212,l),
(513,0,l),
(725,0,l),
(725,1212,l),
(1198,1212,l),
(1198,1422,l),
(40,1422,l)
);
}
);
width = 1238;
}
);
unicode = 356;
},
{
glyphname = Tdotaccent;
kernLeft = S;
kernRight = T;
lastChange = "2024-01-12 17:09:58 +0000";
layers = (
{
hints = (
{
horizontal = 1;
place = (0, 21);
target = up;
type = BottomGhost;
},
{
horizontal = 1;
place = (1212, 210);
place = (1212, 210);
type = Stem;
},
{
horizontal = 1;
place = (1544, 221);
place = (1544, 221);
type = Stem;
},
{
place = (508, 221);
place = (508, 221);
type = Stem;
},
{
place = (513, 212);
place = (513, 212);
type = Stem;
}
);
layerId = "A0B3C83F-707E-46F6-ACEE-65DB6FEE929C";
shapes = (
{
closed = 1;
nodes = (
(508,1593,o),
(558,1544,o),
(619,1544,cs),
(680,1544,o),
(729,1593,o),
(729,1654,cs),
(729,1716,o),
(680,1765,o),
(619,1765,cs),
(557,1765,o),
(508,1716,o),
(508,1654,cs)
);
},
{
closed = 1;
nodes = (
(40,1212,l),
(513,1212,l),
(513,0,l),
(725,0,l),
(725,1212,l),
(1198,1212,l),
(1198,1422,l),
(40,1422,l)
);
}
);
width = 1238;
}
);
unicode = 7786;
},
{
glyphname = U;
kernLeft = S;
kernRight = J;
lastChange = "2024-01-12 17:30:35 +0000";
layers = (
{
anchors = (
{
name = m.ogonek;
pos = (718,6);
},
{
name = m.ring1;
pos = (718,1544);
}
);
hints = (
{
horizontal = 1;
place = (0, 211);
place = (0, 211);
type = Stem;
},
{
horizontal = 1;
place = (1422, -20);
target = down;
type = TopGhost;
},
{
place = (140, 211);
place = (140, 211);
type = Stem;
},
{
place = (1088, 210);
place = (1088, 210);
type = Stem;
}
);
layerId = "A0B3C83F-707E-46F6-ACEE-65DB6FEE929C";
shapes = (
{
closed = 1;
nodes = (
(140,397,ls),
(140,178,o),
(321,0,o),
(545,0,cs),
(894,0,ls),
(1117,0,o),
(1298,178,o),
(1298,397,cs),
(1298,1422,l),
(1088,1422,l),
(1088,399,ls),
(1088,295,o),
(1001,211,o),
(894,211,cs),
(545,211,ls),
(438,211,o),
(351,295,o),
(351,399,cs),
(351,1422,l),
(140,1422,l)
);
}
);
width = 1438;
}
);
unicode = 85;
},
{
glyphname = Uacute;
kernLeft = S;
kernRight = J;
lastChange = "2024-01-12 17:09:58 +0000";
layers = (
{
hints = (
{
horizontal = 1;
place = (0, 211);
place = (0, 211);
type = Stem;
},
{
horizontal = 1;
place = (1422, -20);
target = down;
type = TopGhost;
},
{
horizontal = 1;
place = (1544, 422);
place = (1544, 422);
type = Stem;
},
{
place = (140, 211);
place = (140, 211);
type = Stem;
},
{
place = (604, 312);
place = (604, 312);
type = Stem;
},
{
place = (1088, 210);
place = (1088, 210);
type = Stem;
}
);
layerId = "A0B3C83F-707E-46F6-ACEE-65DB6FEE929C";
shapes = (
{
closed = 1;
nodes = (
(604,1597,l),
(718,1544,l),
(916,1878,l),
(733,1966,l)
);
},
{
closed = 1;
nodes = (
(140,397,ls),
(140,178,o),
(321,0,o),
(545,0,cs),
(894,0,ls),
(1117,0,o),
(1298,178,o),
(1298,397,cs),
(1298,1422,l),
(1088,1422,l),
(1088,399,ls),
(1088,295,o),
(1001,211,o),
(894,211,cs),
(545,211,ls),
(438,211,o),
(351,295,o),
(351,399,cs),
(351,1422,l),
(140,1422,l)
);
}
);
width = 1438;
}
);
unicode = 218;
},
{
glyphname = Ubreve;
kernLeft = at;
kernRight = J;
lastChange = "2024-01-12 17:09:58 +0000";
layers = (
{
hints = (
{
horizontal = 1;
place = (0, 211);
place = (0, 211);
type = Stem;
},
{
horizontal = 1;
place = (1422, -20);
target = down;
type = TopGhost;
},
{
horizontal = 1;
place = (1546, 134);
place = (1546, 134);
type = Stem;
},
{
horizontal = 1;
place = (1844, -20);
target = down;
type = TopGhost;
},
{
place = (140, 211);
place = (140, 211);
type = Stem;
},
{
place = (420, 134);
place = (420, 134);
type = Stem;
},
{
place = (882, 134);
place = (882, 134);
type = Stem;
},
{
place = (1088, 210);
place = (1088, 210);
type = Stem;
}
);
layerId = "A0B3C83F-707E-46F6-ACEE-65DB6FEE929C";
shapes = (
{
closed = 1;
nodes = (
(420,1844,l),
(420,1680,o),
(554,1546,o),
(718,1546,cs),
(882,1546,o),
(1016,1680,o),
(1016,1844,c),
(882,1844,l),
(882,1754,o),
(808,1680,o),
(718,1680,cs),
(628,1680,o),
(554,1754,o),
(554,1844,c)
);
},
{
closed = 1;
nodes = (
(140,397,ls),
(140,178,o),
(321,0,o),
(545,0,cs),
(894,0,ls),
(1117,0,o),
(1298,178,o),
(1298,397,cs),
(1298,1422,l),
(1088,1422,l),
(1088,399,ls),
(1088,295,o),
(1001,211,o),
(894,211,cs),
(545,211,ls),
(438,211,o),
(351,295,o),
(351,399,cs),
(351,1422,l),
(140,1422,l)
);
}
);
width = 1438;
}
);
unicode = 364;
},
{
glyphname = Ucircumflex;
kernLeft = S;
kernRight = J;
lastChange = "2024-01-12 17:09:58 +0000";
layers = (
{
hints = (
{
horizontal = 1;
place = (0, 211);
place = (0, 211);
type = Stem;
},
{
horizontal = 1;
place = (1422, -20);
target = down;
type = TopGhost;
},
{
horizontal = 1;
place = (1543, 309);
place = (1543, 309);
type = Stem;
},
{
place = (140, 211);
place = (140, 211);
type = Stem;
},
{
place = (407, 623);
place = (407, 623);
type = Stem;
},
{
place = (1088, 210);
place = (1088, 210);
type = Stem;
}
);
layerId = "A0B3C83F-707E-46F6-ACEE-65DB6FEE929C";
shapes = (
{
closed = 1;
nodes = (
(407,1543,l),
(548,1543,l),
(718,1715,l),
(889,1543,l),
(1030,1543,l),
(796,1852,l),
(641,1852,l)
);
},
{
closed = 1;
nodes = (
(140,397,ls),
(140,178,o),
(321,0,o),
(545,0,cs),
(894,0,ls),
(1117,0,o),
(1298,178,o),
(1298,397,cs),
(1298,1422,l),
(1088,1422,l),
(1088,399,ls),
(1088,295,o),
(1001,211,o),
(894,211,cs),
(545,211,ls),
(438,211,o),
(351,295,o),
(351,399,cs),
(351,1422,l),
(140,1422,l)
);
}
);
width = 1438;
}
);
unicode = 219;
},
{
glyphname = Udieresis;
kernLeft = S;
kernRight = J;
lastChange = "2024-01-12 17:09:58 +0000";
layers = (
{
hints = (
{
horizontal = 1;
place = (0, 211);
place = (0, 211);
type = Stem;
},
{
horizontal = 1;
place = (1422, -20);
target = down;
type = TopGhost;
},
{
horizontal = 1;
place = (1545, 221);
place = (1545, 221);
type = Stem;
},
{
place = (140, 211);
place = (140, 211);
type = Stem;
},
{
place = (438, 221);
place = (438, 221);
type = Stem;
},
{
place = (778, 221);
place = (778, 221);
type = Stem;
},
{
place = (1088, 210);
place = (1088, 210);
type = Stem;
}
);
layerId = "A0B3C83F-707E-46F6-ACEE-65DB6FEE929C";
shapes = (
{
closed = 1;
nodes = (
(438,1594,o),
(487,1545,o),
(548,1545,cs),
(610,1545,o),
(659,1594,o),
(659,1655,cs),
(659,1717,o),
(610,1766,o),
(548,1766,cs),
(487,1766,o),
(438,1717,o),
(438,1655,cs)
);
},
{
closed = 1;
nodes = (
(778,1594,o),
(827,1545,o),
(888,1545,cs),
(950,1545,o),
(999,1594,o),
(999,1655,cs),
(999,1717,o),
(950,1766,o),
(888,1766,cs),
(827,1766,o),
(778,1717,o),
(778,1655,cs)
);
},
{
closed = 1;
nodes = (
(140,397,ls),
(140,178,o),
(321,0,o),
(545,0,cs),
(894,0,ls),
(1117,0,o),
(1298,178,o),
(1298,397,cs),
(1298,1422,l),
(1088,1422,l),
(1088,399,ls),
(1088,295,o),
(1001,211,o),
(894,211,cs),
(545,211,ls),
(438,211,o),
(351,295,o),
(351,399,cs),
(351,1422,l),
(140,1422,l)
);
}
);
width = 1438;
}
);
unicode = 220;
},
{
glyphname = Ugrave;
kernLeft = S;
kernRight = J;
lastChange = "2024-01-12 17:09:58 +0000";
layers = (
{
hints = (
{
horizontal = 1;
place = (0, 211);
place = (0, 211);
type = Stem;
},
{
horizontal = 1;
place = (1422, -20);
target = down;
type = TopGhost;
},
{
horizontal = 1;
place = (1544, 422);
place = (1544, 422);
type = Stem;
},
{
place = (140, 211);
place = (140, 211);
type = Stem;
},
{
place = (520, 312);
place = (520, 312);
type = Stem;
},
{
place = (1088, 210);
place = (1088, 210);
type = Stem;
}
);
layerId = "A0B3C83F-707E-46F6-ACEE-65DB6FEE929C";
shapes = (
{
closed = 1;
nodes = (
(520,1878,l),
(718,1544,l),
(832,1597,l),
(703,1966,l)
);
},
{
closed = 1;
nodes = (
(140,397,ls),
(140,178,o),
(321,0,o),
(545,0,cs),
(894,0,ls),
(1117,0,o),
(1298,178,o),
(1298,397,cs),
(1298,1422,l),
(1088,1422,l),
(1088,399,ls),
(1088,295,o),
(1001,211,o),
(894,211,cs),
(545,211,ls),
(438,211,o),
(351,295,o),
(351,399,cs),
(351,1422,l),
(140,1422,l)
);
}
);
width = 1438;
}
);
unicode = 217;
},
{
glyphname = Uhungarumlaut;
kernLeft = at;
kernRight = J;
lastChange = "2024-01-12 17:09:58 +0000";
layers = (
{
hints = (
{
horizontal = 1;
place = (0, 211);
place = (0, 211);
type = Stem;
},
{
horizontal = 1;
place = (1422, -20);
target = down;
type = TopGhost;
},
{
horizontal = 1;
place = (1544, 422);
place = (1544, 422);
type = Stem;
},
{
place = (140, 211);
place = (140, 211);
type = Stem;
},
{
place = (1088, 210);
place = (1088, 210);
type = Stem;
}
);
layerId = "A0B3C83F-707E-46F6-ACEE-65DB6FEE929C";
shapes = (
{
closed = 1;
nodes = (
(415,1597,l),
(529,1544,l),
(727,1878,l),
(544,1966,l)
);
},
{
closed = 1;
nodes = (
(795,1597,l),
(909,1544,l),
(1107,1878,l),
(924,1966,l)
);
},
{
closed = 1;
nodes = (
(140,397,ls),
(140,178,o),
(321,0,o),
(545,0,cs),
(894,0,ls),
(1117,0,o),
(1298,178,o),
(1298,397,cs),
(1298,1422,l),
(1088,1422,l),
(1088,399,ls),
(1088,295,o),
(1001,211,o),
(894,211,cs),
(545,211,ls),
(438,211,o),
(351,295,o),
(351,399,cs),
(351,1422,l),
(140,1422,l)
);
}
);
width = 1438;
}
);
unicode = 368;
},
{
glyphname = Umacron;
kernLeft = at;
kernRight = J;
lastChange = "2024-01-12 17:09:58 +0000";
layers = (
{
hints = (
{
horizontal = 1;
place = (0, 211);
place = (0, 211);
type = Stem;
},
{
horizontal = 1;
place = (1422, -20);
target = down;
type = TopGhost;
},
{
horizontal = 1;
place = (1544, 147);
place = (1544, 147);
type = Stem;
},
{
place = (140, 211);
place = (140, 211);
type = Stem;
},
{
place = (419, 597);
place = (419, 597);
type = Stem;
},
{
place = (1088, 210);
place = (1088, 210);
type = Stem;
}
);
layerId = "A0B3C83F-707E-46F6-ACEE-65DB6FEE929C";
shapes = (
{
closed = 1;
nodes = (
(419,1544,l),
(1016,1544,l),
(1016,1691,l),
(419,1691,l)
);
},
{
closed = 1;
nodes = (
(140,397,ls),
(140,178,o),
(321,0,o),
(545,0,cs),
(894,0,ls),
(1117,0,o),
(1298,178,o),
(1298,397,cs),
(1298,1422,l),
(1088,1422,l),
(1088,399,ls),
(1088,295,o),
(1001,211,o),
(894,211,cs),
(545,211,ls),
(438,211,o),
(351,295,o),
(351,399,cs),
(351,1422,l),
(140,1422,l)
);
}
);
width = 1438;
}
);
unicode = 362;
},
{
glyphname = Uogonek;
kernLeft = at;
kernRight = J;
lastChange = "2024-01-12 17:09:58 +0000";
layers = (
{
hints = (
{
horizontal = 1;
place = (-307, 150);
place = (-307, 150);
type = Stem;
},
{
horizontal = 1;
place = (0, 211);
place = (0, 211);
type = Stem;
},
{
horizontal = 1;
place = (1422, -20);
target = down;
type = TopGhost;
},
{
place = (140, 211);
place = (140, 211);
type = Stem;
},
{
place = (604, 151);
place = (604, 151);
type = Stem;
},
{
place = (1088, 210);
place = (1088, 210);
type = Stem;
}
);
layerId = "A0B3C83F-707E-46F6-ACEE-65DB6FEE929C";
shapes = (
{
closed = 1;
nodes = (
(604,-266,o),
(652,-307,o),
(756,-307,cs),
(789,-307,o),
(818,-304,o),
(906,-291,c),
(906,-143,l),
(824,-156,o),
(813,-157,o),
(796,-157,cs),
(766,-157,o),
(755,-148,o),
(755,-126,cs),
(755,-106,o),
(762,-83,o),
(794,6,c),
(646,6,l),
(618,-69,o),
(604,-130,o),
(604,-177,cs)
);
},
{
closed = 1;
nodes = (
(140,397,ls),
(140,178,o),
(321,0,o),
(545,0,cs),
(894,0,ls),
(1117,0,o),
(1298,178,o),
(1298,397,cs),
(1298,1422,l),
(1088,1422,l),
(1088,399,ls),
(1088,295,o),
(1001,211,o),
(894,211,cs),
(545,211,ls),
(438,211,o),
(351,295,o),
(351,399,cs),
(351,1422,l),
(140,1422,l)
);
}
);
width = 1438;
}
);
unicode = 370;
},
{
glyphname = Uring;
kernLeft = at;
kernRight = J;
lastChange = "2024-01-12 17:09:58 +0000";
layers = (
{
hints = (
{
horizontal = 1;
place = (0, 211);
place = (0, 211);
type = Stem;
},
{
horizontal = 1;
place = (1422, -20);
target = down;
type = TopGhost;
},
{
horizontal = 1;
place = (1544, 118);
place = (1544, 118);
type = Stem;
},
{
horizontal = 1;
place = (1807, 118);
place = (1807, 118);
type = Stem;
},
{
place = (140, 211);
place = (140, 211);
type = Stem;
},
{
place = (528, 118);
place = (528, 118);
type = Stem;
},
{
place = (790, 118);
place = (790, 118);
type = Stem;
},
{
place = (1088, 210);
place = (1088, 210);
type = Stem;
}
);
layerId = "A0B3C83F-707E-46F6-ACEE-65DB6FEE929C";
shapes = (
{
closed = 1;
nodes = (
(528,1713,ls),
(528,1619,o),
(604,1544,o),
(698,1544,cs),
(738,1544,ls),
(832,1544,o),
(908,1619,o),
(908,1713,cs),
(908,1756,ls),
(908,1850,o),
(832,1925,o),
(738,1925,cs),
(698,1925,ls),
(604,1925,o),
(528,1850,o),
(528,1756,cs)
);
},
{
closed = 1;
nodes = (
(646,1756,ls),
(646,1784,o),
(669,1807,o),
(698,1807,cs),
(738,1807,ls),
(767,1807,o),
(790,1784,o),
(790,1756,cs),
(790,1713,ls),
(790,1685,o),
(767,1662,o),
(738,1662,cs),
(698,1662,ls),
(669,1662,o),
(646,1685,o),
(646,1713,cs)
);
},
{
closed = 1;
nodes = (
(140,397,ls),
(140,178,o),
(321,0,o),
(545,0,cs),
(894,0,ls),
(1117,0,o),
(1298,178,o),
(1298,397,cs),
(1298,1422,l),
(1088,1422,l),
(1088,399,ls),
(1088,295,o),
(1001,211,o),
(894,211,cs),
(545,211,ls),
(438,211,o),
(351,295,o),
(351,399,cs),
(351,1422,l),
(140,1422,l)
);
}
);
width = 1438;
}
);
unicode = 366;
},
{
glyphname = Utilde;
kernLeft = at;
kernRight = J;
lastChange = "2024-01-12 17:09:58 +0000";
layers = (
{
hints = (
{
horizontal = 1;
place = (0, 211);
place = (0, 211);
type = Stem;
},
{
horizontal = 1;
place = (1422, -20);
target = down;
type = TopGhost;
},
{
horizontal = 1;
place = (1544, 154);
place = (1544, 154);
type = Stem;
},
{
horizontal = 1;
place = (1625, 148);
place = (1625, 148);
type = Stem;
},
{
place = (140, 211);
place = (140, 211);
type = Stem;
},
{
place = (388, 155);
place = (388, 155);
type = Stem;
},
{
place = (889, 157);
place = (889, 157);
type = Stem;
},
{
place = (1088, 210);
place = (1088, 210);
type = Stem;
}
);
layerId = "A0B3C83F-707E-46F6-ACEE-65DB6FEE929C";
shapes = (
{
closed = 1;
nodes = (
(543,1552,l),
(543,1602,o),
(557,1625,o),
(588,1625,cs),
(619,1625,o),
(646,1616,o),
(721,1584,cs),
(791,1554,o),
(823,1544,o),
(854,1544,cs),
(961,1544,o),
(1046,1644,o),
(1046,1768,c),
(889,1768,l),
(889,1720,o),
(875,1698,o),
(844,1698,cs),
(813,1698,o),
(786,1706,o),
(713,1736,cs),
(645,1764,o),
(613,1773,o),
(582,1773,cs),
(470,1773,o),
(389,1680,o),
(388,1552,c)
);
},
{
closed = 1;
nodes = (
(140,397,ls),
(140,178,o),
(321,0,o),
(545,0,cs),
(894,0,ls),
(1117,0,o),
(1298,178,o),
(1298,397,cs),
(1298,1422,l),
(1088,1422,l),
(1088,399,ls),
(1088,295,o),
(1001,211,o),
(894,211,cs),
(545,211,ls),
(438,211,o),
(351,295,o),
(351,399,cs),
(351,1422,l),
(140,1422,l)
);
}
);
width = 1438;
}
);
unicode = 360;
},
{
glyphname = V;
lastChange = "2024-01-12 17:09:58 +0000";
layers = (
{
hints = (
{
horizontal = 1;
place = (0, 21);
target = up;
type = BottomGhost;
},
{
horizontal = 1;
place = (1422, -20);
target = down;
type = TopGhost;
}
);
layerId = "A0B3C83F-707E-46F6-ACEE-65DB6FEE929C";
shapes = (
{
closed = 1;
nodes = (
(40,1422,l),
(549,0,l),
(812,0,l),
(1321,1422,l),
(1096,1422,l),
(681,256,l),
(265,1422,l)
);
}
);
width = 1361;
}
);
unicode = 86;
},
{
glyphname = W;
kernLeft = W2;
kernRight = W;
lastChange = "2024-01-12 17:30:35 +0000";
layers = (
{
anchors = (
{
name = m.ring1;
pos = (823,1544);
}
);
hints = (
{
horizontal = 1;
place = (0, 21);
target = up;
type = BottomGhost;
},
{
horizontal = 1;
place = (1422, -20);
target = down;
type = TopGhost;
}
);
layerId = "A0B3C83F-707E-46F6-ACEE-65DB6FEE929C";
shapes = (
{
closed = 1;
nodes = (
(70,1422,l),
(317,0,l),
(508,0,l),
(823,572,l),
(1139,0,l),
(1329,0,l),
(1576,1422,l),
(1365,1422,l),
(1179,350,l),
(923,816,l),
(724,816,l),
(468,350,l),
(282,1422,l)
);
}
);
width = 1646;
}
);
unicode = 87;
},
{
glyphname = Wacute;
kernLeft = W2;
kernRight = W;
lastChange = "2024-01-12 17:09:58 +0000";
layers = (
{
hints = (
{
horizontal = 1;
place = (0, 21);
target = up;
type = BottomGhost;
},
{
horizontal = 1;
place = (1422, -20);
target = down;
type = TopGhost;
},
{
horizontal = 1;
place = (1544, 422);
place = (1544, 422);
type = Stem;
},
{
place = (709, 312);
place = (709, 312);
type = Stem;
}
);
layerId = "A0B3C83F-707E-46F6-ACEE-65DB6FEE929C";
shapes = (
{
closed = 1;
nodes = (
(709,1597,l),
(823,1544,l),
(1021,1878,l),
(838,1966,l)
);
},
{
closed = 1;
nodes = (
(70,1422,l),
(317,0,l),
(508,0,l),
(823,572,l),
(1139,0,l),
(1329,0,l),
(1576,1422,l),
(1365,1422,l),
(1179,350,l),
(923,816,l),
(724,816,l),
(468,350,l),
(282,1422,l)
);
}
);
width = 1646;
}
);
unicode = 7810;
},
{
glyphname = Wcircumflex;
kernLeft = W2;
lastChange = "2024-01-12 17:09:58 +0000";
layers = (
{
hints = (
{
horizontal = 1;
place = (0, 21);
target = up;
type = BottomGhost;
},
{
horizontal = 1;
place = (1422, -20);
target = down;
type = TopGhost;
},
{
horizontal = 1;
place = (1543, 309);
place = (1543, 309);
type = Stem;
},
{
place = (512, 623);
place = (512, 623);
type = Stem;
}
);
layerId = "A0B3C83F-707E-46F6-ACEE-65DB6FEE929C";
shapes = (
{
closed = 1;
nodes = (
(512,1543,l),
(653,1543,l),
(823,1715,l),
(994,1543,l),
(1135,1543,l),
(901,1852,l),
(746,1852,l)
);
},
{
closed = 1;
nodes = (
(70,1422,l),
(317,0,l),
(508,0,l),
(823,572,l),
(1139,0,l),
(1329,0,l),
(1576,1422,l),
(1365,1422,l),
(1179,350,l),
(923,816,l),
(724,816,l),
(468,350,l),
(282,1422,l)
);
}
);
width = 1646;
}
);
unicode = 372;
},
{
glyphname = Wdieresis;
kernLeft = W2;
kernRight = W;
lastChange = "2024-01-12 17:09:58 +0000";
layers = (
{
hints = (
{
horizontal = 1;
place = (0, 21);
target = up;
type = BottomGhost;
},
{
horizontal = 1;
place = (1422, -20);
target = down;
type = TopGhost;
},
{
horizontal = 1;
place = (1545, 221);
place = (1545, 221);
type = Stem;
},
{
place = (543, 221);
place = (543, 221);
type = Stem;
},
{
place = (883, 221);
place = (883, 221);
type = Stem;
}
);
layerId = "A0B3C83F-707E-46F6-ACEE-65DB6FEE929C";
shapes = (
{
closed = 1;
nodes = (
(543,1594,o),
(592,1545,o),
(653,1545,cs),
(715,1545,o),
(764,1594,o),
(764,1655,cs),
(764,1717,o),
(715,1766,o),
(653,1766,cs),
(592,1766,o),
(543,1717,o),
(543,1655,cs)
);
},
{
closed = 1;
nodes = (
(883,1594,o),
(932,1545,o),
(993,1545,cs),
(1055,1545,o),
(1104,1594,o),
(1104,1655,cs),
(1104,1717,o),
(1055,1766,o),
(993,1766,cs),
(932,1766,o),
(883,1717,o),
(883,1655,cs)
);
},
{
closed = 1;
nodes = (
(70,1422,l),
(317,0,l),
(508,0,l),
(823,572,l),
(1139,0,l),
(1329,0,l),
(1576,1422,l),
(1365,1422,l),
(1179,350,l),
(923,816,l),
(724,816,l),
(468,350,l),
(282,1422,l)
);
}
);
width = 1646;
}
);
unicode = 7812;
},
{
glyphname = Wgrave;
kernLeft = W2;
kernRight = W;
lastChange = "2024-01-12 17:09:58 +0000";
layers = (
{
hints = (
{
horizontal = 1;
place = (0, 21);
target = up;
type = BottomGhost;
},
{
horizontal = 1;
place = (1422, -20);
target = down;
type = TopGhost;
},
{
horizontal = 1;
place = (1544, 422);
place = (1544, 422);
type = Stem;
},
{
place = (625, 312);
place = (625, 312);
type = Stem;
}
);
layerId = "A0B3C83F-707E-46F6-ACEE-65DB6FEE929C";
shapes = (
{
closed = 1;
nodes = (
(625,1878,l),
(823,1544,l),
(937,1597,l),
(808,1966,l)
);
},
{
closed = 1;
nodes = (
(70,1422,l),
(317,0,l),
(508,0,l),
(823,572,l),
(1139,0,l),
(1329,0,l),
(1576,1422,l),
(1365,1422,l),
(1179,350,l),
(923,816,l),
(724,816,l),
(468,350,l),
(282,1422,l)
);
}
);
width = 1646;
}
);
unicode = 7808;
},
{
glyphname = X;
lastChange = "2024-01-12 17:09:58 +0000";
layers = (
{
hints = (
{
horizontal = 1;
place = (0, 21);
target = up;
type = BottomGhost;
},
{
horizontal = 1;
place = (1422, -20);
target = down;
type = TopGhost;
}
);
layerId = "A0B3C83F-707E-46F6-ACEE-65DB6FEE929C";
shapes = (
{
closed = 1;
nodes = (
(40,0,l),
(298,0,l),
(687,540,l),
(1075,0,l),
(1332,0,l),
(818,711,l),
(1332,1422,l),
(1075,1422,l),
(687,883,l),
(298,1422,l),
(40,1422,l),
(555,711,l)
);
}
);
width = 1372;
}
);
unicode = 88;
},
{
glyphname = Y;
kernLeft = Y2;
kernRight = Y;
lastChange = "2024-01-12 17:30:35 +0000";
layers = (
{
anchors = (
{
name = m.ring1;
pos = (686,1544);
}
);
hints = (
{
horizontal = 1;
place = (0, 21);
target = up;
type = BottomGhost;
},
{
horizontal = 1;
place = (1422, -20);
target = down;
type = TopGhost;
},
{
place = (579, 216);
place = (579, 216);
type = Stem;
}
);
layerId = "A0B3C83F-707E-46F6-ACEE-65DB6FEE929C";
shapes = (
{
closed = 1;
nodes = (
(40,1422,l),
(579,679,l),
(579,0,l),
(795,0,l),
(795,679,l),
(1331,1422,l),
(1075,1422,l),
(687,883,l),
(297,1422,l)
);
}
);
width = 1371;
}
);
unicode = 89;
},
{
glyphname = Yacute;
kernLeft = Y2;
kernRight = Y;
lastChange = "2024-01-12 17:09:58 +0000";
layers = (
{
hints = (
{
horizontal = 1;
place = (0, 21);
target = up;
type = BottomGhost;
},
{
horizontal = 1;
place = (1422, -20);
target = down;
type = TopGhost;
},
{
horizontal = 1;
place = (1544, 422);
place = (1544, 422);
type = Stem;
},
{
place = (572, 312);
place = (572, 312);
type = Stem;
},
{
place = (579, 216);
place = (579, 216);
type = Stem;
}
);
layerId = "A0B3C83F-707E-46F6-ACEE-65DB6FEE929C";
shapes = (
{
closed = 1;
nodes = (
(572,1597,l),
(686,1544,l),
(884,1878,l),
(701,1966,l)
);
},
{
closed = 1;
nodes = (
(40,1422,l),
(579,679,l),
(579,0,l),
(795,0,l),
(795,679,l),
(1331,1422,l),
(1075,1422,l),
(687,883,l),
(297,1422,l)
);
}
);
width = 1371;
}
);
unicode = 221;
},
{
glyphname = Ycircumflex;
kernLeft = Y2;
kernRight = Y;
lastChange = "2024-01-12 17:09:58 +0000";
layers = (
{
hints = (
{
horizontal = 1;
place = (0, 21);
target = up;
type = BottomGhost;
},
{
horizontal = 1;
place = (1422, -20);
target = down;
type = TopGhost;
},
{
horizontal = 1;
place = (1543, 309);
place = (1543, 309);
type = Stem;
},
{
place = (375, 623);
place = (375, 623);
type = Stem;
},
{
place = (579, 216);
place = (579, 216);
type = Stem;
}
);
layerId = "A0B3C83F-707E-46F6-ACEE-65DB6FEE929C";
shapes = (
{
closed = 1;
nodes = (
(375,1543,l),
(516,1543,l),
(686,1715,l),
(857,1543,l),
(998,1543,l),
(764,1852,l),
(609,1852,l)
);
},
{
closed = 1;
nodes = (
(40,1422,l),
(579,679,l),
(579,0,l),
(795,0,l),
(795,679,l),
(1331,1422,l),
(1075,1422,l),
(687,883,l),
(297,1422,l)
);
}
);
width = 1371;
}
);
unicode = 374;
},
{
glyphname = Ydieresis;
kernLeft = Y2;
kernRight = Y;
lastChange = "2024-01-12 17:09:58 +0000";
layers = (
{
hints = (
{
horizontal = 1;
place = (0, 21);
target = up;
type = BottomGhost;
},
{
horizontal = 1;
place = (1422, -20);
target = down;
type = TopGhost;
},
{
horizontal = 1;
place = (1545, 221);
place = (1545, 221);
type = Stem;
},
{
place = (406, 221);
place = (406, 221);
type = Stem;
},
{
place = (579, 216);
place = (579, 216);
type = Stem;
},
{
place = (746, 221);
place = (746, 221);
type = Stem;
}
);
layerId = "A0B3C83F-707E-46F6-ACEE-65DB6FEE929C";
shapes = (
{
closed = 1;
nodes = (
(406,1594,o),
(455,1545,o),
(516,1545,cs),
(578,1545,o),
(627,1594,o),
(627,1655,cs),
(627,1717,o),
(578,1766,o),
(516,1766,cs),
(455,1766,o),
(406,1717,o),
(406,1655,cs)
);
},
{
closed = 1;
nodes = (
(746,1594,o),
(795,1545,o),
(856,1545,cs),
(918,1545,o),
(967,1594,o),
(967,1655,cs),
(967,1717,o),
(918,1766,o),
(856,1766,cs),
(795,1766,o),
(746,1717,o),
(746,1655,cs)
);
},
{
closed = 1;
nodes = (
(40,1422,l),
(579,679,l),
(579,0,l),
(795,0,l),
(795,679,l),
(1331,1422,l),
(1075,1422,l),
(687,883,l),
(297,1422,l)
);
}
);
width = 1371;
}
);
unicode = 376;
},
{
glyphname = Ygrave;
kernLeft = at;
kernRight = Y;
lastChange = "2024-01-12 17:09:58 +0000";
layers = (
{
hints = (
{
horizontal = 1;
place = (0, 21);
target = up;
type = BottomGhost;
},
{
horizontal = 1;
place = (1422, -20);
target = down;
type = TopGhost;
},
{
horizontal = 1;
place = (1544, 422);
place = (1544, 422);
type = Stem;
},
{
place = (488, 312);
place = (488, 312);
type = Stem;
},
{
place = (579, 216);
place = (579, 216);
type = Stem;
}
);
layerId = "A0B3C83F-707E-46F6-ACEE-65DB6FEE929C";
shapes = (
{
closed = 1;
nodes = (
(488,1878,l),
(686,1544,l),
(800,1597,l),
(671,1966,l)
);
},
{
closed = 1;
nodes = (
(40,1422,l),
(579,679,l),
(579,0,l),
(795,0,l),
(795,679,l),
(1331,1422,l),
(1075,1422,l),
(687,883,l),
(297,1422,l)
);
}
);
width = 1371;
}
);
unicode = 7922;
},
{
glyphname = Z;
kernLeft = S;
lastChange = "2024-01-12 17:30:35 +0000";
layers = (
{
anchors = (
{
name = m.ogonek;
pos = (674,6);
},
{
name = m.ring1;
pos = (674,1544);
}
);
hints = (
{
horizontal = 1;
place = (0, 208);
place = (0, 208);
type = Stem;
},
{
horizontal = 1;
place = (1212, 210);
place = (1212, 210);
type = Stem;
}
);
layerId = "A0B3C83F-707E-46F6-ACEE-65DB6FEE929C";
shapes = (
{
closed = 1;
nodes = (
(120,0,l),
(1223,0,l),
(1223,208,l),
(422,208,l),
(1227,1265,l),
(1227,1422,l),
(120,1422,l),
(120,1212,l),
(927,1212,l),
(120,155,l)
);
}
);
width = 1347;
}
);
unicode = 90;
},
{
glyphname = Zacute;
kernLeft = S;
lastChange = "2024-01-12 17:09:58 +0000";
layers = (
{
hints = (
{
horizontal = 1;
place = (0, 208);
place = (0, 208);
type = Stem;
},
{
horizontal = 1;
place = (1212, 210);
place = (1212, 210);
type = Stem;
},
{
horizontal = 1;
place = (1544, 422);
place = (1544, 422);
type = Stem;
},
{
place = (560, 312);
place = (560, 312);
type = Stem;
}
);
layerId = "A0B3C83F-707E-46F6-ACEE-65DB6FEE929C";
shapes = (
{
closed = 1;
nodes = (
(560,1597,l),
(674,1544,l),
(872,1878,l),
(689,1966,l)
);
},
{
closed = 1;
nodes = (
(120,0,l),
(1223,0,l),
(1223,208,l),
(422,208,l),
(1227,1265,l),
(1227,1422,l),
(120,1422,l),
(120,1212,l),
(927,1212,l),
(120,155,l)
);
}
);
width = 1347;
}
);
unicode = 377;
},
{
glyphname = Zcaron;
kernLeft = S;
lastChange = "2024-01-12 17:09:58 +0000";
layers = (
{
hints = (
{
horizontal = 1;
place = (0, 208);
place = (0, 208);
type = Stem;
},
{
horizontal = 1;
place = (1212, 210);
place = (1212, 210);
type = Stem;
},
{
horizontal = 1;
place = (1544, 309);
place = (1544, 309);
type = Stem;
},
{
place = (362, 623);
place = (362, 623);
type = Stem;
}
);
layerId = "A0B3C83F-707E-46F6-ACEE-65DB6FEE929C";
shapes = (
{
closed = 1;
nodes = (
(362,1853,l),
(596,1544,l),
(751,1544,l),
(985,1853,l),
(844,1853,l),
(673,1681,l),
(503,1853,l)
);
},
{
closed = 1;
nodes = (
(120,0,l),
(1223,0,l),
(1223,208,l),
(422,208,l),
(1227,1265,l),
(1227,1422,l),
(120,1422,l),
(120,1212,l),
(927,1212,l),
(120,155,l)
);
}
);
width = 1347;
}
);
unicode = 381;
},
{
glyphname = Zdotaccent;
kernLeft = S;
lastChange = "2024-01-12 17:09:58 +0000";
layers = (
{
hints = (
{
horizontal = 1;
place = (0, 208);
place = (0, 208);
type = Stem;
},
{
horizontal = 1;
place = (1212, 210);
place = (1212, 210);
type = Stem;
},
{
horizontal = 1;
place = (1544, 221);
place = (1544, 221);
type = Stem;
},
{
place = (563, 221);
place = (563, 221);
type = Stem;
}
);
layerId = "A0B3C83F-707E-46F6-ACEE-65DB6FEE929C";
shapes = (
{
closed = 1;
nodes = (
(563,1593,o),
(613,1544,o),
(674,1544,cs),
(735,1544,o),
(784,1593,o),
(784,1654,cs),
(784,1716,o),
(735,1765,o),
(674,1765,cs),
(612,1765,o),
(563,1716,o),
(563,1654,cs)
);
},
{
closed = 1;
nodes = (
(120,0,l),
(1223,0,l),
(1223,208,l),
(422,208,l),
(1227,1265,l),
(1227,1422,l),
(120,1422,l),
(120,1212,l),
(927,1212,l),
(120,155,l)
);
}
);
width = 1347;
}
);
unicode = 379;
},
{
glyphname = uni0122;
kernLeft = at;
lastChange = "2024-01-12 17:09:58 +0000";
layers = (
{
hints = (
{
horizontal = 1;
place = (-534, 414);
place = (-534, 414);
type = Stem;
},
{
horizontal = 1;
place = (0, 210);
place = (0, 210);
type = Stem;
},
{
horizontal = 1;
place = (585, 210);
place = (585, 210);
type = Stem;
},
{
horizontal = 1;
place = (1212, 210);
place = (1212, 210);
type = Stem;
},
{
place = (120, 211);
place = (120, 211);
type = Stem;
},
{
place = (566, 287);
place = (566, 287);
type = Stem;
},
{
place = (1090, 211);
place = (1090, 211);
type = Stem;
}
);
layerId = "A0B3C83F-707E-46F6-ACEE-65DB6FEE929C";
shapes = (
{
closed = 1;
nodes = (
(566,-534,l),
(724,-534,l),
(853,-120,l),
(641,-120,l)
);
},
{
closed = 1;
nodes = (
(120,400,ls),
(120,179,o),
(310,0,o),
(544,0,cs),
(877,0,ls),
(1111,0,o),
(1301,179,o),
(1301,400,cs),
(1301,795,l),
(704,795,l),
(704,585,l),
(1090,585,l),
(1090,399,ls),
(1090,295,o),
(995,210,o),
(877,210,cs),
(544,210,ls),
(426,210,o),
(331,295,o),
(331,399,cs),
(331,1023,ls),
(331,1127,o),
(426,1212,o),
(544,1212,cs),
(1217,1212,l),
(1217,1422,l),
(544,1422,ls),
(310,1422,o),
(120,1243,o),
(120,1022,cs)
);
}
);
width = 1421;
}
);
unicode = 290;
},
{
glyphname = uni0136;
kernLeft = at;
lastChange = "2024-01-12 17:09:58 +0000";
layers = (
{
hints = (
{
horizontal = 1;
place = (-534, 414);
place = (-534, 414);
type = Stem;
},
{
horizontal = 1;
place = (0, 21);
target = up;
type = BottomGhost;
},
{
horizontal = 1;
place = (1422, -20);
target = down;
type = TopGhost;
},
{
place = (140, 211);
place = (140, 211);
type = Stem;
},
{
place = (516, 287);
place = (516, 287);
type = Stem;
}
);
layerId = "A0B3C83F-707E-46F6-ACEE-65DB6FEE929C";
shapes = (
{
closed = 1;
nodes = (
(516,-534,l),
(674,-534,l),
(803,-120,l),
(591,-120,l)
);
},
{
closed = 1;
nodes = (
(140,0,l),
(351,0,l),
(351,635,l),
(413,635,l),
(1059,0,l),
(1354,0,l),
(623,719,l),
(1311,1422,l),
(1020,1422,l),
(456,846,l),
(351,846,l),
(351,1422,l),
(140,1422,l)
);
}
);
width = 1394;
}
);
unicode = 310;
},
{
glyphname = uni013B;
kernLeft = at;
kernRight = L;
lastChange = "2024-01-12 17:09:58 +0000";
layers = (
{
hints = (
{
horizontal = 1;
place = (-534, 414);
place = (-534, 414);
type = Stem;
},
{
horizontal = 1;
place = (0, 210);
place = (0, 210);
type = Stem;
},
{
horizontal = 1;
place = (1422, -20);
target = down;
type = TopGhost;
},
{
place = (140, 210);
place = (140, 210);
type = Stem;
},
{
place = (497, 287);
place = (497, 287);
type = Stem;
}
);
layerId = "A0B3C83F-707E-46F6-ACEE-65DB6FEE929C";
shapes = (
{
closed = 1;
nodes = (
(497,-534,l),
(655,-534,l),
(784,-120,l),
(572,-120,l)
);
},
{
closed = 1;
nodes = (
(140,398,ls),
(140,178,o),
(318,0,o),
(537,0,cs),
(1242,0,l),
(1242,210,l),
(537,210,ls),
(434,210,o),
(350,294,o),
(350,398,cs),
(350,1422,l),
(140,1422,l)
);
}
);
width = 1282;
}
);
unicode = 315;
},
{
glyphname = uni0145;
kernLeft = at;
lastChange = "2024-01-12 17:09:58 +0000";
layers = (
{
hints = (
{
horizontal = 1;
place = (-534, 414);
place = (-534, 414);
type = Stem;
},
{
horizontal = 1;
place = (0, 21);
target = up;
type = BottomGhost;
},
{
horizontal = 1;
place = (1422, -20);
target = down;
type = TopGhost;
},
{
place = (140, 211);
place = (140, 211);
type = Stem;
},
{
place = (548, 287);
place = (548, 287);
type = Stem;
},
{
place = (1033, 211);
place = (1033, 211);
type = Stem;
}
);
layerId = "A0B3C83F-707E-46F6-ACEE-65DB6FEE929C";
shapes = (
{
closed = 1;
nodes = (
(548,-534,l),
(706,-534,l),
(835,-120,l),
(623,-120,l)
);
},
{
closed = 1;
nodes = (
(140,0,l),
(351,0,l),
(351,1102,l),
(970,0,l),
(1244,0,l),
(1244,1422,l),
(1033,1422,l),
(1033,305,l),
(414,1422,l),
(140,1422,l)
);
}
);
width = 1384;
}
);
unicode = 325;
},
{
glyphname = uni0156;
kernLeft = at;
lastChange = "2024-01-12 17:09:58 +0000";
layers = (
{
hints = (
{
horizontal = 1;
place = (-534, 414);
place = (-534, 414);
type = Stem;
},
{
horizontal = 1;
place = (0, 21);
target = up;
type = BottomGhost;
},
{
horizontal = 1;
place = (585, 210);
place = (585, 210);
type = Stem;
},
{
horizontal = 1;
place = (1212, 210);
place = (1212, 210);
type = Stem;
},
{
place = (140, 211);
place = (140, 211);
type = Stem;
},
{
place = (543, 287);
place = (543, 287);
type = Stem;
},
{
place = (1033, 210);
place = (1033, 210);
type = Stem;
}
);
layerId = "A0B3C83F-707E-46F6-ACEE-65DB6FEE929C";
shapes = (
{
closed = 1;
nodes = (
(543,-534,l),
(701,-534,l),
(830,-120,l),
(618,-120,l)
);
},
{
closed = 1;
nodes = (
(140,0,l),
(351,0,l),
(351,1212,l),
(892,1212,ls),
(970,1212,o),
(1033,1149,o),
(1033,1072,cs),
(1033,933,ls),
(1033,857,o),
(970,795,o),
(892,795,cs),
(471,795,l),
(471,585,l),
(634,585,l),
(1058,0,l),
(1315,0,l),
(891,585,l),
(1089,585,o),
(1243,736,o),
(1243,930,cs),
(1243,1072,ls),
(1243,1265,o),
(1085,1422,o),
(892,1422,cs),
(140,1422,l)
);
}
);
width = 1375;
}
);
unicode = 342;
},
{
glyphname = uni0162;
kernLeft = at;
kernRight = T;
lastChange = "2024-01-12 17:09:58 +0000";
layers = (
{
hints = (
{
horizontal = 1;
place = (-307, 150);
place = (-307, 150);
type = Stem;
},
{
horizontal = 1;
place = (0, 21);
target = up;
type = BottomGhost;
},
{
horizontal = 1;
place = (1212, 210);
place = (1212, 210);
type = Stem;
},
{
place = (513, 212);
place = (513, 212);
type = Stem;
},
{
place = (583, 151);
place = (583, 151);
type = Stem;
}
);
layerId = "A0B3C83F-707E-46F6-ACEE-65DB6FEE929C";
shapes = (
{
closed = 1;
nodes = (
(432,-291,l),
(520,-304,o),
(549,-307,o),
(582,-307,cs),
(686,-307,o),
(734,-266,o),
(734,-177,cs),
(734,-130,o),
(720,-69,o),
(692,6,c),
(544,6,l),
(576,-83,o),
(583,-106,o),
(583,-126,cs),
(583,-148,o),
(572,-157,o),
(542,-157,cs),
(525,-157,o),
(514,-156,o),
(432,-143,c)
);
},
{
closed = 1;
nodes = (
(40,1212,l),
(513,1212,l),
(513,0,l),
(725,0,l),
(725,1212,l),
(1198,1212,l),
(1198,1422,l),
(40,1422,l)
);
}
);
width = 1238;
}
);
unicode = 354;
},
{
glyphname = uni021A;
kernLeft = S;
kernRight = T;
lastChange = "2024-01-12 17:09:58 +0000";
layers = (
{
hints = (
{
horizontal = 1;
place = (-408, 414);
place = (-408, 414);
type = Stem;
},
{
horizontal = 1;
place = (0, 21);
target = up;
type = BottomGhost;
},
{
horizontal = 1;
place = (1212, 210);
place = (1212, 210);
type = Stem;
},
{
place = (438, 287);
place = (438, 287);
type = Stem;
},
{
place = (513, 212);
place = (513, 212);
type = Stem;
}
);
layerId = "A0B3C83F-707E-46F6-ACEE-65DB6FEE929C";
shapes = (
{
closed = 1;
nodes = (
(438,-408,l),
(596,-408,l),
(725,6,l),
(513,6,l)
);
},
{
closed = 1;
nodes = (
(40,1212,l),
(513,1212,l),
(513,0,l),
(725,0,l),
(725,1212,l),
(1198,1212,l),
(1198,1422,l),
(40,1422,l)
);
}
);
width = 1238;
}
);
unicode = 538;
},
{
glyphname = uni1E02;
kernLeft = S;
lastChange = "2024-01-12 17:09:58 +0000";
layers = (
{
hints = (
{
horizontal = 1;
place = (0, 211);
place = (0, 211);
type = Stem;
},
{
horizontal = 1;
place = (639, 210);
place = (639, 210);
type = Stem;
},
{
horizontal = 1;
place = (1212, 210);
place = (1212, 210);
type = Stem;
},
{
horizontal = 1;
place = (1544, 221);
place = (1544, 221);
type = Stem;
},
{
place = (140, 211);
place = (140, 211);
type = Stem;
},
{
place = (593, 221);
place = (593, 221);
type = Stem;
},
{
place = (1033, 210);
place = (1033, 210);
type = Stem;
},
{
place = (1088, 210);
place = (1088, 210);
type = Stem;
}
);
layerId = "A0B3C83F-707E-46F6-ACEE-65DB6FEE929C";
shapes = (
{
closed = 1;
nodes = (
(593,1593,o),
(643,1544,o),
(704,1544,cs),
(765,1544,o),
(814,1593,o),
(814,1654,cs),
(814,1716,o),
(765,1765,o),
(704,1765,cs),
(642,1765,o),
(593,1716,o),
(593,1654,cs)
);
},
{
closed = 1;
nodes = (
(140,0,l),
(946,0,ls),
(1140,0,o),
(1298,154,o),
(1298,343,cs),
(1298,500,ls),
(1298,627,o),
(1258,707,o),
(1163,768,c),
(1213,813,o),
(1243,892,o),
(1243,979,cs),
(1243,1072,ls),
(1243,1267,o),
(1086,1422,o),
(889,1422,cs),
(140,1422,l)
);
},
{
closed = 1;
nodes = (
(351,211,l),
(351,1212,l),
(889,1212,ls),
(968,1212,o),
(1033,1149,o),
(1033,1072,cs),
(1033,981,ls),
(1033,908,o),
(968,849,o),
(889,849,cs),
(471,849,l),
(471,639,l),
(947,639,ls),
(1025,639,o),
(1088,578,o),
(1088,503,cs),
(1088,346,ls),
(1088,271,o),
(1025,211,o),
(948,211,cs)
);
}
);
width = 1408;
}
);
unicode = 7682;
},
{
glyphname = uni1E1E;
kernLeft = S;
kernRight = F;
lastChange = "2024-01-12 17:09:58 +0000";
layers = (
{
hints = (
{
horizontal = 1;
place = (0, 21);
target = up;
type = BottomGhost;
},
{
horizontal = 1;
place = (635, 210);
place = (635, 210);
type = Stem;
},
{
horizontal = 1;
place = (1212, 210);
place = (1212, 210);
type = Stem;
},
{
horizontal = 1;
place = (1544, 221);
place = (1544, 221);
type = Stem;
},
{
place = (140, 211);
place = (140, 211);
type = Stem;
},
{
place = (495, 221);
place = (495, 221);
type = Stem;
}
);
layerId = "A0B3C83F-707E-46F6-ACEE-65DB6FEE929C";
shapes = (
{
closed = 1;
nodes = (
(495,1593,o),
(545,1544,o),
(606,1544,cs),
(667,1544,o),
(716,1593,o),
(716,1654,cs),
(716,1716,o),
(667,1765,o),
(606,1765,cs),
(544,1765,o),
(495,1716,o),
(495,1654,cs)
);
},
{
closed = 1;
nodes = (
(140,0,l),
(351,0,l),
(351,1212,l),
(1092,1212,l),
(1092,1422,l),
(140,1422,l)
);
},
{
closed = 1;
nodes = (
(471,635,l),
(1092,635,l),
(1092,845,l),
(471,845,l)
);
}
);
width = 1212;
}
);
unicode = 7710;
},
{
glyphname = a;
kernLeft = a2;
kernRight = a;
lastChange = "2024-01-12 17:30:35 +0000";
layers = (
{
anchors = (
{
name = m.ogonek;
pos = (958,6);
},
{
name = m.ring1;
pos = (591,1158);
}
);
hints = (
{
horizontal = 1;
place = (0, 211);
place = (0, 211);
type = Stem;
},
{
horizontal = 1;
place = (825, 211);
place = (825, 211);
type = Stem;
},
{
place = (110, 211);
place = (110, 211);
type = Stem;
},
{
place = (851, 211);
place = (851, 211);
type = Stem;
}
);
layerId = "A0B3C83F-707E-46F6-ACEE-65DB6FEE929C";
shapes = (
{
closed = 1;
nodes = (
(110,374,ls),
(110,168,o),
(278,0,o),
(484,0,cs),
(731,0,l),
(731,211,l),
(484,211,ls),
(394,211,o),
(321,285,o),
(321,376,cs),
(321,662,ls),
(321,752,o),
(394,825,o),
(484,825,cs),
(851,825,l),
(851,0,l),
(1062,0,l),
(1062,1036,l),
(484,1036,ls),
(278,1036,o),
(110,869,o),
(110,664,cs)
);
}
);
width = 1182;
}
);
unicode = 97;
},
{
glyphname = aacute;
kernLeft = a2;
kernRight = a;
lastChange = "2024-01-12 17:09:58 +0000";
layers = (
{
hints = (
{
horizontal = 1;
place = (0, 211);
place = (0, 211);
type = Stem;
},
{
horizontal = 1;
place = (825, 211);
place = (825, 211);
type = Stem;
},
{
horizontal = 1;
place = (1158, 422);
place = (1158, 422);
type = Stem;
},
{
place = (110, 211);
place = (110, 211);
type = Stem;
},
{
place = (477, 312);
place = (477, 312);
type = Stem;
},
{
place = (851, 211);
place = (851, 211);
type = Stem;
}
);
layerId = "A0B3C83F-707E-46F6-ACEE-65DB6FEE929C";
shapes = (
{
closed = 1;
nodes = (
(477,1211,l),
(591,1158,l),
(789,1492,l),
(606,1580,l)
);
},
{
closed = 1;
nodes = (
(110,374,ls),
(110,168,o),
(278,0,o),
(484,0,cs),
(731,0,l),
(731,211,l),
(484,211,ls),
(394,211,o),
(321,285,o),
(321,376,cs),
(321,662,ls),
(321,752,o),
(394,825,o),
(484,825,cs),
(851,825,l),
(851,0,l),
(1062,0,l),
(1062,1036,l),
(484,1036,ls),
(278,1036,o),
(110,869,o),
(110,664,cs)
);
}
);
width = 1182;
}
);
unicode = 225;
},
{
glyphname = abreve;
kernLeft = a2;
lastChange = "2024-01-12 17:09:58 +0000";
layers = (
{
hints = (
{
horizontal = 1;
place = (0, 211);
place = (0, 211);
type = Stem;
},
{
horizontal = 1;
place = (825, 211);
place = (825, 211);
type = Stem;
},
{
horizontal = 1;
place = (1160, 134);
place = (1160, 134);
type = Stem;
},
{
horizontal = 1;
place = (1458, -20);
target = down;
type = TopGhost;
},
{
place = (110, 211);
place = (110, 211);
type = Stem;
},
{
place = (293, 134);
place = (293, 134);
type = Stem;
},
{
place = (755, 134);
place = (755, 134);
type = Stem;
},
{
place = (851, 211);
place = (851, 211);
type = Stem;
}
);
layerId = "A0B3C83F-707E-46F6-ACEE-65DB6FEE929C";
shapes = (
{
closed = 1;
nodes = (
(293,1458,l),
(293,1294,o),
(427,1160,o),
(591,1160,cs),
(755,1160,o),
(889,1294,o),
(889,1458,c),
(755,1458,l),
(755,1368,o),
(681,1294,o),
(591,1294,cs),
(501,1294,o),
(427,1368,o),
(427,1458,c)
);
},
{
closed = 1;
nodes = (
(110,374,ls),
(110,168,o),
(278,0,o),
(484,0,cs),
(731,0,l),
(731,211,l),
(484,211,ls),
(394,211,o),
(321,285,o),
(321,376,cs),
(321,662,ls),
(321,752,o),
(394,825,o),
(484,825,cs),
(851,825,l),
(851,0,l),
(1062,0,l),
(1062,1036,l),
(484,1036,ls),
(278,1036,o),
(110,869,o),
(110,664,cs)
);
}
);
width = 1182;
}
);
unicode = 259;
},
{
glyphname = acircumflex;
kernLeft = a2;
kernRight = a;
lastChange = "2024-01-12 17:09:58 +0000";
layers = (
{
hints = (
{
horizontal = 1;
place = (0, 211);
place = (0, 211);
type = Stem;
},
{
horizontal = 1;
place = (825, 211);
place = (825, 211);
type = Stem;
},
{
horizontal = 1;
place = (1157, 309);
place = (1157, 309);
type = Stem;
},
{
place = (110, 211);
place = (110, 211);
type = Stem;
},
{
place = (280, 623);
place = (280, 623);
type = Stem;
},
{
place = (851, 211);
place = (851, 211);
type = Stem;
}
);
layerId = "A0B3C83F-707E-46F6-ACEE-65DB6FEE929C";
shapes = (
{
closed = 1;
nodes = (
(280,1157,l),
(421,1157,l),
(591,1329,l),
(762,1157,l),
(903,1157,l),
(669,1466,l),
(514,1466,l)
);
},
{
closed = 1;
nodes = (
(110,374,ls),
(110,168,o),
(278,0,o),
(484,0,cs),
(731,0,l),
(731,211,l),
(484,211,ls),
(394,211,o),
(321,285,o),
(321,376,cs),
(321,662,ls),
(321,752,o),
(394,825,o),
(484,825,cs),
(851,825,l),
(851,0,l),
(1062,0,l),
(1062,1036,l),
(484,1036,ls),
(278,1036,o),
(110,869,o),
(110,664,cs)
);
}
);
width = 1182;
}
);
unicode = 226;
},
{
glyphname = adieresis;
kernLeft = a2;
kernRight = a;
lastChange = "2024-01-12 17:09:58 +0000";
layers = (
{
hints = (
{
horizontal = 1;
place = (0, 211);
place = (0, 211);
type = Stem;
},
{
horizontal = 1;
place = (825, 211);
place = (825, 211);
type = Stem;
},
{
horizontal = 1;
place = (1159, 221);
place = (1159, 221);
type = Stem;
},
{
place = (110, 211);
place = (110, 211);
type = Stem;
},
{
place = (311, 221);
place = (311, 221);
type = Stem;
},
{
place = (651, 221);
place = (651, 221);
type = Stem;
},
{
place = (851, 211);
place = (851, 211);
type = Stem;
}
);
layerId = "A0B3C83F-707E-46F6-ACEE-65DB6FEE929C";
shapes = (
{
closed = 1;
nodes = (
(311,1208,o),
(360,1159,o),
(421,1159,cs),
(483,1159,o),
(532,1208,o),
(532,1269,cs),
(532,1331,o),
(483,1380,o),
(421,1380,cs),
(360,1380,o),
(311,1331,o),
(311,1269,cs)
);
},
{
closed = 1;
nodes = (
(651,1208,o),
(700,1159,o),
(761,1159,cs),
(823,1159,o),
(872,1208,o),
(872,1269,cs),
(872,1331,o),
(823,1380,o),
(761,1380,cs),
(700,1380,o),
(651,1331,o),
(651,1269,cs)
);
},
{
closed = 1;
nodes = (
(110,374,ls),
(110,168,o),
(278,0,o),
(484,0,cs),
(731,0,l),
(731,211,l),
(484,211,ls),
(394,211,o),
(321,285,o),
(321,376,cs),
(321,662,ls),
(321,752,o),
(394,825,o),
(484,825,cs),
(851,825,l),
(851,0,l),
(1062,0,l),
(1062,1036,l),
(484,1036,ls),
(278,1036,o),
(110,869,o),
(110,664,cs)
);
}
);
width = 1182;
}
);
unicode = 228;
},
{
glyphname = agrave;
kernLeft = a2;
kernRight = a;
lastChange = "2024-01-12 17:09:58 +0000";
layers = (
{
hints = (
{
horizontal = 1;
place = (0, 211);
place = (0, 211);
type = Stem;
},
{
horizontal = 1;
place = (825, 211);
place = (825, 211);
type = Stem;
},
{
horizontal = 1;
place = (1158, 422);
place = (1158, 422);
type = Stem;
},
{
place = (110, 211);
place = (110, 211);
type = Stem;
},
{
place = (393, 312);
place = (393, 312);
type = Stem;
},
{
place = (851, 211);
place = (851, 211);
type = Stem;
}
);
layerId = "A0B3C83F-707E-46F6-ACEE-65DB6FEE929C";
shapes = (
{
closed = 1;
nodes = (
(393,1492,l),
(591,1158,l),
(705,1211,l),
(576,1580,l)
);
},
{
closed = 1;
nodes = (
(110,374,ls),
(110,168,o),
(278,0,o),
(484,0,cs),
(731,0,l),
(731,211,l),
(484,211,ls),
(394,211,o),
(321,285,o),
(321,376,cs),
(321,662,ls),
(321,752,o),
(394,825,o),
(484,825,cs),
(851,825,l),
(851,0,l),
(1062,0,l),
(1062,1036,l),
(484,1036,ls),
(278,1036,o),
(110,869,o),
(110,664,cs)
);
}
);
width = 1182;
}
);
unicode = 224;
},
{
glyphname = amacron;
kernLeft = a2;
kernRight = a;
lastChange = "2024-01-12 17:09:58 +0000";
layers = (
{
hints = (
{
horizontal = 1;
place = (0, 211);
place = (0, 211);
type = Stem;
},
{
horizontal = 1;
place = (825, 211);
place = (825, 211);
type = Stem;
},
{
horizontal = 1;
place = (1158, 147);
place = (1158, 147);
type = Stem;
},
{
place = (110, 211);
place = (110, 211);
type = Stem;
},
{
place = (292, 597);
place = (292, 597);
type = Stem;
},
{
place = (851, 211);
place = (851, 211);
type = Stem;
}
);
layerId = "A0B3C83F-707E-46F6-ACEE-65DB6FEE929C";
shapes = (
{
closed = 1;
nodes = (
(292,1158,l),
(889,1158,l),
(889,1305,l),
(292,1305,l)
);
},
{
closed = 1;
nodes = (
(110,374,ls),
(110,168,o),
(278,0,o),
(484,0,cs),
(731,0,l),
(731,211,l),
(484,211,ls),
(394,211,o),
(321,285,o),
(321,376,cs),
(321,662,ls),
(321,752,o),
(394,825,o),
(484,825,cs),
(851,825,l),
(851,0,l),
(1062,0,l),
(1062,1036,l),
(484,1036,ls),
(278,1036,o),
(110,869,o),
(110,664,cs)
);
}
);
width = 1182;
}
);
unicode = 257;
},
{
glyphname = aogonek;
kernLeft = a2;
kernRight = a;
lastChange = "2024-01-12 17:09:58 +0000";
layers = (
{
hints = (
{
horizontal = 1;
place = (-307, 150);
place = (-307, 150);
type = Stem;
},
{
horizontal = 1;
place = (0, 211);
place = (0, 211);
type = Stem;
},
{
horizontal = 1;
place = (825, 211);
place = (825, 211);
type = Stem;
},
{
place = (110, 211);
place = (110, 211);
type = Stem;
},
{
place = (844, 151);
place = (844, 151);
type = Stem;
},
{
place = (851, 211);
place = (851, 211);
type = Stem;
}
);
layerId = "A0B3C83F-707E-46F6-ACEE-65DB6FEE929C";
shapes = (
{
closed = 1;
nodes = (
(844,-266,o),
(892,-307,o),
(996,-307,cs),
(1029,-307,o),
(1058,-304,o),
(1146,-291,c),
(1146,-143,l),
(1064,-156,o),
(1053,-157,o),
(1036,-157,cs),
(1006,-157,o),
(995,-148,o),
(995,-126,cs),
(995,-106,o),
(1002,-83,o),
(1034,6,c),
(886,6,l),
(858,-69,o),
(844,-130,o),
(844,-177,cs)
);
},
{
closed = 1;
nodes = (
(110,374,ls),
(110,168,o),
(278,0,o),
(484,0,cs),
(731,0,l),
(731,211,l),
(484,211,ls),
(394,211,o),
(321,285,o),
(321,376,cs),
(321,662,ls),
(321,752,o),
(394,825,o),
(484,825,cs),
(851,825,l),
(851,0,l),
(1062,0,l),
(1062,1036,l),
(484,1036,ls),
(278,1036,o),
(110,869,o),
(110,664,cs)
);
}
);
width = 1182;
}
);
unicode = 261;
},
{
glyphname = aring;
kernLeft = a2;
kernRight = a;
lastChange = "2024-01-12 17:09:58 +0000";
layers = (
{
hints = (
{
horizontal = 1;
place = (0, 211);
place = (0, 211);
type = Stem;
},
{
horizontal = 1;
place = (825, 211);
place = (825, 211);
type = Stem;
},
{
horizontal = 1;
place = (1158, 118);
place = (1158, 118);
type = Stem;
},
{
horizontal = 1;
place = (1421, 118);
place = (1421, 118);
type = Stem;
},
{
place = (110, 211);
place = (110, 211);
type = Stem;
},
{
place = (401, 118);
place = (401, 118);
type = Stem;
},
{
place = (663, 118);
place = (663, 118);
type = Stem;
},
{
place = (851, 211);
place = (851, 211);
type = Stem;
}
);
layerId = "A0B3C83F-707E-46F6-ACEE-65DB6FEE929C";
shapes = (
{
closed = 1;
nodes = (
(401,1327,ls),
(401,1233,o),
(477,1158,o),
(571,1158,cs),
(611,1158,ls),
(705,1158,o),
(781,1233,o),
(781,1327,cs),
(781,1370,ls),
(781,1464,o),
(705,1539,o),
(611,1539,cs),
(571,1539,ls),
(477,1539,o),
(401,1464,o),
(401,1370,cs)
);
},
{
closed = 1;
nodes = (
(519,1370,ls),
(519,1398,o),
(542,1421,o),
(571,1421,cs),
(611,1421,ls),
(640,1421,o),
(663,1398,o),
(663,1370,cs),
(663,1327,ls),
(663,1299,o),
(640,1276,o),
(611,1276,cs),
(571,1276,ls),
(542,1276,o),
(519,1299,o),
(519,1327,cs)
);
},
{
closed = 1;
nodes = (
(110,374,ls),
(110,168,o),
(278,0,o),
(484,0,cs),
(731,0,l),
(731,211,l),
(484,211,ls),
(394,211,o),
(321,285,o),
(321,376,cs),
(321,662,ls),
(321,752,o),
(394,825,o),
(484,825,cs),
(851,825,l),
(851,0,l),
(1062,0,l),
(1062,1036,l),
(484,1036,ls),
(278,1036,o),
(110,869,o),
(110,664,cs)
);
}
);
width = 1182;
}
);
unicode = 229;
},
{
glyphname = atilde;
kernLeft = a2;
kernRight = a;
lastChange = "2024-01-12 17:09:58 +0000";
layers = (
{
hints = (
{
horizontal = 1;
place = (0, 211);
place = (0, 211);
type = Stem;
},
{
horizontal = 1;
place = (825, 211);
place = (825, 211);
type = Stem;
},
{
horizontal = 1;
place = (1158, 154);
place = (1158, 154);
type = Stem;
},
{
horizontal = 1;
place = (1239, 148);
place = (1239, 148);
type = Stem;
},
{
place = (110, 211);
place = (110, 211);
type = Stem;
},
{
place = (261, 155);
place = (261, 155);
type = Stem;
},
{
place = (762, 157);
place = (762, 157);
type = Stem;
},
{
place = (851, 211);
place = (851, 211);
type = Stem;
}
);
layerId = "A0B3C83F-707E-46F6-ACEE-65DB6FEE929C";
shapes = (
{
closed = 1;
nodes = (
(416,1166,l),
(416,1216,o),
(430,1239,o),
(461,1239,cs),
(492,1239,o),
(519,1230,o),
(594,1198,cs),
(664,1168,o),
(696,1158,o),
(727,1158,cs),
(834,1158,o),
(919,1258,o),
(919,1382,c),
(762,1382,l),
(762,1334,o),
(748,1312,o),
(717,1312,cs),
(686,1312,o),
(659,1320,o),
(586,1350,cs),
(518,1378,o),
(486,1387,o),
(455,1387,cs),
(343,1387,o),
(262,1294,o),
(261,1166,c)
);
},
{
closed = 1;
nodes = (
(110,374,ls),
(110,168,o),
(278,0,o),
(484,0,cs),
(731,0,l),
(731,211,l),
(484,211,ls),
(394,211,o),
(321,285,o),
(321,376,cs),
(321,662,ls),
(321,752,o),
(394,825,o),
(484,825,cs),
(851,825,l),
(851,0,l),
(1062,0,l),
(1062,1036,l),
(484,1036,ls),
(278,1036,o),
(110,869,o),
(110,664,cs)
);
}
);
width = 1182;
}
);
unicode = 227;
},
{
glyphname = ae;
kernLeft = at;
lastChange = "2024-01-12 17:30:35 +0000";
layers = (
{
anchors = (
{
name = m.ring1;
pos = (956,1158);
}
);
hints = (
{
horizontal = 1;
place = (0, 211);
place = (0, 211);
type = Stem;
},
{
horizontal = 1;
place = (408, 210);
place = (408, 210);
type = Stem;
},
{
horizontal = 1;
place = (825, 211);
place = (825, 211);
type = Stem;
},
{
place = (110, 211);
place = (110, 211);
type = Stem;
},
{
place = (851, 211);
place = (851, 211);
type = Stem;
},
{
place = (1593, 210);
place = (1593, 210);
type = Stem;
}
);
layerId = "A0B3C83F-707E-46F6-ACEE-65DB6FEE929C";
shapes = (
{
closed = 1;
nodes = (
(110,374,ls),
(110,168,o),
(278,0,o),
(484,0,cs),
(731,0,l),
(731,211,l),
(484,211,ls),
(394,211,o),
(321,285,o),
(321,376,cs),
(321,662,ls),
(321,752,o),
(394,825,o),
(484,825,cs),
(851,825,l),
(851,0,l),
(1062,0,l),
(1062,11,l),
(1091,4,o),
(1116,0,o),
(1141,0,cs),
(1730,0,l),
(1730,211,l),
(1141,211,ls),
(1097,211,o),
(1062,248,o),
(1062,293,cs),
(1062,825,l),
(1506,825,ls),
(1554,825,o),
(1593,785,o),
(1593,735,cs),
(1593,707,ls),
(1593,658,o),
(1554,618,o),
(1506,618,cs),
(1182,618,l),
(1182,408,l),
(1504,408,ls),
(1669,408,o),
(1803,542,o),
(1803,706,cs),
(1803,735,ls),
(1803,901,o),
(1669,1036,o),
(1504,1036,cs),
(484,1036,ls),
(278,1036,o),
(110,869,o),
(110,664,cs)
);
}
);
width = 1913;
}
);
unicode = 230;
},
{
glyphname = aeacute;
kernLeft = a2;
lastChange = "2024-01-12 17:09:58 +0000";
layers = (
{
hints = (
{
horizontal = 1;
place = (0, 211);
place = (0, 211);
type = Stem;
},
{
horizontal = 1;
place = (408, 210);
place = (408, 210);
type = Stem;
},
{
horizontal = 1;
place = (825, 211);
place = (825, 211);
type = Stem;
},
{
horizontal = 1;
place = (1158, 422);
place = (1158, 422);
type = Stem;
},
{
place = (110, 211);
place = (110, 211);
type = Stem;
},
{
place = (842, 312);
place = (842, 312);
type = Stem;
},
{
place = (851, 211);
place = (851, 211);
type = Stem;
},
{
place = (1593, 210);
place = (1593, 210);
type = Stem;
}
);
layerId = "A0B3C83F-707E-46F6-ACEE-65DB6FEE929C";
shapes = (
{
closed = 1;
nodes = (
(842,1211,l),
(956,1158,l),
(1154,1492,l),
(971,1580,l)
);
},
{
closed = 1;
nodes = (
(110,374,ls),
(110,168,o),
(278,0,o),
(484,0,cs),
(731,0,l),
(731,211,l),
(484,211,ls),
(394,211,o),
(321,285,o),
(321,376,cs),
(321,662,ls),
(321,752,o),
(394,825,o),
(484,825,cs),
(851,825,l),
(851,0,l),
(1062,0,l),
(1062,11,l),
(1091,4,o),
(1116,0,o),
(1141,0,cs),
(1730,0,l),
(1730,211,l),
(1141,211,ls),
(1097,211,o),
(1062,248,o),
(1062,293,cs),
(1062,825,l),
(1506,825,ls),
(1554,825,o),
(1593,785,o),
(1593,735,cs),
(1593,707,ls),
(1593,658,o),
(1554,618,o),
(1506,618,cs),
(1182,618,l),
(1182,408,l),
(1504,408,ls),
(1669,408,o),
(1803,542,o),
(1803,706,cs),
(1803,735,ls),
(1803,901,o),
(1669,1036,o),
(1504,1036,cs),
(484,1036,ls),
(278,1036,o),
(110,869,o),
(110,664,cs)
);
}
);
width = 1913;
}
);
unicode = 509;
},
{
glyphname = b;
kernLeft = S;
lastChange = "2024-01-12 17:30:35 +0000";
layers = (
{
anchors = (
{
name = m.ring1;
pos = (591,1544);
}
);
hints = (
{
horizontal = 1;
place = (0, 211);
place = (0, 211);
type = Stem;
},
{
horizontal = 1;
place = (825, 211);
place = (825, 211);
type = Stem;
},
{
horizontal = 1;
place = (1422, -20);
target = down;
type = TopGhost;
},
{
place = (110, 211);
place = (110, 211);
type = Stem;
},
{
place = (851, 211);
place = (851, 211);
type = Stem;
}
);
layerId = "A0B3C83F-707E-46F6-ACEE-65DB6FEE929C";
shapes = (
{
closed = 1;
nodes = (
(110,211,ls),
(110,95,o),
(205,0,o),
(321,0,cs),
(688,0,ls),
(894,0,o),
(1062,167,o),
(1062,372,cs),
(1062,662,ls),
(1062,868,o),
(894,1036,o),
(688,1036,cs),
(441,1036,l),
(441,825,l),
(688,825,ls),
(778,825,o),
(851,751,o),
(851,660,cs),
(851,374,ls),
(851,284,o),
(778,211,o),
(688,211,cs),
(321,211,l),
(321,1422,l),
(110,1422,l)
);
}
);
width = 1182;
}
);
unicode = 98;
},
{
glyphname = bdotaccent;
kernLeft = S;
lastChange = "2024-01-12 17:09:58 +0000";
layers = (
{
hints = (
{
horizontal = 1;
place = (0, 211);
place = (0, 211);
type = Stem;
},
{
horizontal = 1;
place = (825, 211);
place = (825, 211);
type = Stem;
},
{
horizontal = 1;
place = (1158, 221);
place = (1158, 221);
type = Stem;
},
{
horizontal = 1;
place = (1422, -20);
target = down;
type = TopGhost;
},
{
place = (110, 211);
place = (110, 211);
type = Stem;
},
{
place = (481, 221);
place = (481, 221);
type = Stem;
},
{
place = (851, 211);
place = (851, 211);
type = Stem;
}
);
layerId = "A0B3C83F-707E-46F6-ACEE-65DB6FEE929C";
shapes = (
{
closed = 1;
nodes = (
(481,1207,o),
(531,1158,o),
(592,1158,cs),
(653,1158,o),
(702,1207,o),
(702,1268,cs),
(702,1330,o),
(653,1379,o),
(592,1379,cs),
(530,1379,o),
(481,1330,o),
(481,1268,cs)
);
},
{
closed = 1;
nodes = (
(110,211,ls),
(110,95,o),
(205,0,o),
(321,0,cs),
(688,0,ls),
(894,0,o),
(1062,167,o),
(1062,372,cs),
(1062,662,ls),
(1062,868,o),
(894,1036,o),
(688,1036,cs),
(441,1036,l),
(441,825,l),
(688,825,ls),
(778,825,o),
(851,751,o),
(851,660,cs),
(851,374,ls),
(851,284,o),
(778,211,o),
(688,211,cs),
(321,211,l),
(321,1422,l),
(110,1422,l)
);
}
);
width = 1182;
}
);
unicode = 7683;
},
{
glyphname = c;
kernLeft = c2;
kernRight = c;
lastChange = "2024-01-12 17:30:35 +0000";
layers = (
{
anchors = (
{
name = m.ogonek;
pos = (648,5);
},
{
name = m.ring1;
pos = (648,1158);
}
);
hints = (
{
horizontal = 1;
place = (0, 211);
place = (0, 211);
type = Stem;
},
{
horizontal = 1;
place = (825, 211);
place = (825, 211);
type = Stem;
},
{
place = (110, 211);
place = (110, 211);
type = Stem;
}
);
layerId = "A0B3C83F-707E-46F6-ACEE-65DB6FEE929C";
shapes = (
{
closed = 1;
nodes = (
(110,376,ls),
(110,169,o),
(282,0,o),
(494,0,cs),
(1077,0,l),
(1077,211,l),
(494,211,ls),
(398,211,o),
(321,286,o),
(321,378,cs),
(321,659,ls),
(321,751,o),
(399,825,o),
(494,825,cs),
(1077,825,l),
(1077,1036,l),
(494,1036,ls),
(282,1036,o),
(110,868,o),
(110,662,cs)
);
}
);
width = 1187;
}
);
unicode = 99;
},
{
glyphname = cacute;
kernLeft = at;
kernRight = c;
lastChange = "2024-01-12 17:09:58 +0000";
layers = (
{
hints = (
{
horizontal = 1;
place = (0, 211);
place = (0, 211);
type = Stem;
},
{
horizontal = 1;
place = (825, 211);
place = (825, 211);
type = Stem;
},
{
horizontal = 1;
place = (1158, 422);
place = (1158, 422);
type = Stem;
},
{
place = (110, 211);
place = (110, 211);
type = Stem;
},
{
place = (534, 312);
place = (534, 312);
type = Stem;
}
);
layerId = "A0B3C83F-707E-46F6-ACEE-65DB6FEE929C";
shapes = (
{
closed = 1;
nodes = (
(534,1211,l),
(648,1158,l),
(846,1492,l),
(663,1580,l)
);
},
{
closed = 1;
nodes = (
(110,376,ls),
(110,169,o),
(282,0,o),
(494,0,cs),
(1077,0,l),
(1077,211,l),
(494,211,ls),
(398,211,o),
(321,286,o),
(321,378,cs),
(321,659,ls),
(321,751,o),
(399,825,o),
(494,825,cs),
(1077,825,l),
(1077,1036,l),
(494,1036,ls),
(282,1036,o),
(110,868,o),
(110,662,cs)
);
}
);
width = 1187;
}
);
unicode = 263;
},
{
glyphname = ccaron;
kernLeft = at;
kernRight = c;
lastChange = "2024-01-12 17:09:58 +0000";
layers = (
{
hints = (
{
horizontal = 1;
place = (0, 211);
place = (0, 211);
type = Stem;
},
{
horizontal = 1;
place = (825, 211);
place = (825, 211);
type = Stem;
},
{
horizontal = 1;
place = (1158, 309);
place = (1158, 309);
type = Stem;
},
{
place = (110, 211);
place = (110, 211);
type = Stem;
},
{
place = (336, 623);
place = (336, 623);
type = Stem;
}
);
layerId = "A0B3C83F-707E-46F6-ACEE-65DB6FEE929C";
shapes = (
{
closed = 1;
nodes = (
(336,1467,l),
(570,1158,l),
(725,1158,l),
(959,1467,l),
(818,1467,l),
(647,1295,l),
(477,1467,l)
);
},
{
closed = 1;
nodes = (
(110,376,ls),
(110,169,o),
(282,0,o),
(494,0,cs),
(1077,0,l),
(1077,211,l),
(494,211,ls),
(398,211,o),
(321,286,o),
(321,378,cs),
(321,659,ls),
(321,751,o),
(399,825,o),
(494,825,cs),
(1077,825,l),
(1077,1036,l),
(494,1036,ls),
(282,1036,o),
(110,868,o),
(110,662,cs)
);
}
);
width = 1187;
}
);
unicode = 269;
},
{
glyphname = ccedilla;
kernLeft = at;
kernRight = c;
lastChange = "2024-01-12 17:09:58 +0000";
layers = (
{
hints = (
{
horizontal = 1;
place = (-308, 150);
place = (-308, 150);
type = Stem;
},
{
horizontal = 1;
place = (0, 211);
place = (0, 211);
type = Stem;
},
{
horizontal = 1;
place = (825, 211);
place = (825, 211);
type = Stem;
},
{
place = (110, 211);
place = (110, 211);
type = Stem;
},
{
place = (612, 151);
place = (612, 151);
type = Stem;
}
);
layerId = "A0B3C83F-707E-46F6-ACEE-65DB6FEE929C";
shapes = (
{
closed = 1;
nodes = (
(461,-292,l),
(549,-305,o),
(578,-308,o),
(611,-308,cs),
(715,-308,o),
(763,-267,o),
(763,-178,cs),
(763,-131,o),
(749,-70,o),
(721,5,c),
(573,5,l),
(605,-84,o),
(612,-107,o),
(612,-127,cs),
(612,-149,o),
(601,-158,o),
(571,-158,cs),
(554,-158,o),
(543,-157,o),
(461,-144,c)
);
},
{
closed = 1;
nodes = (
(110,376,ls),
(110,169,o),
(282,0,o),
(494,0,cs),
(1077,0,l),
(1077,211,l),
(494,211,ls),
(398,211,o),
(321,286,o),
(321,378,cs),
(321,659,ls),
(321,751,o),
(399,825,o),
(494,825,cs),
(1077,825,l),
(1077,1036,l),
(494,1036,ls),
(282,1036,o),
(110,868,o),
(110,662,cs)
);
}
);
width = 1187;
}
);
unicode = 231;
},
{
glyphname = ccircumflex;
kernLeft = at;
kernRight = c;
lastChange = "2024-01-12 17:09:58 +0000";
layers = (
{
hints = (
{
horizontal = 1;
place = (0, 211);
place = (0, 211);
type = Stem;
},
{
horizontal = 1;
place = (825, 211);
place = (825, 211);
type = Stem;
},
{
horizontal = 1;
place = (1157, 309);
place = (1157, 309);
type = Stem;
},
{
place = (110, 211);
place = (110, 211);
type = Stem;
},
{
place = (337, 623);
place = (337, 623);
type = Stem;
}
);
layerId = "A0B3C83F-707E-46F6-ACEE-65DB6FEE929C";
shapes = (
{
closed = 1;
nodes = (
(337,1157,l),
(478,1157,l),
(648,1329,l),
(819,1157,l),
(960,1157,l),
(726,1466,l),
(571,1466,l)
);
},
{
closed = 1;
nodes = (
(110,376,ls),
(110,169,o),
(282,0,o),
(494,0,cs),
(1077,0,l),
(1077,211,l),
(494,211,ls),
(398,211,o),
(321,286,o),
(321,378,cs),
(321,659,ls),
(321,751,o),
(399,825,o),
(494,825,cs),
(1077,825,l),
(1077,1036,l),
(494,1036,ls),
(282,1036,o),
(110,868,o),
(110,662,cs)
);
}
);
width = 1187;
}
);
unicode = 265;
},
{
glyphname = cdotaccent;
kernLeft = at;
kernRight = c;
lastChange = "2024-01-12 17:09:58 +0000";
layers = (
{
hints = (
{
horizontal = 1;
place = (0, 211);
place = (0, 211);
type = Stem;
},
{
horizontal = 1;
place = (825, 211);
place = (825, 211);
type = Stem;
},
{
horizontal = 1;
place = (1158, 221);
place = (1158, 221);
type = Stem;
},
{
place = (110, 211);
place = (110, 211);
type = Stem;
},
{
place = (537, 221);
place = (537, 221);
type = Stem;
}
);
layerId = "A0B3C83F-707E-46F6-ACEE-65DB6FEE929C";
shapes = (
{
closed = 1;
nodes = (
(537,1207,o),
(587,1158,o),
(648,1158,cs),
(709,1158,o),
(758,1207,o),
(758,1268,cs),
(758,1330,o),
(709,1379,o),
(648,1379,cs),
(586,1379,o),
(537,1330,o),
(537,1268,cs)
);
},
{
closed = 1;
nodes = (
(110,376,ls),
(110,169,o),
(282,0,o),
(494,0,cs),
(1077,0,l),
(1077,211,l),
(494,211,ls),
(398,211,o),
(321,286,o),
(321,378,cs),
(321,659,ls),
(321,751,o),
(399,825,o),
(494,825,cs),
(1077,825,l),
(1077,1036,l),
(494,1036,ls),
(282,1036,o),
(110,868,o),
(110,662,cs)
);
}
);
width = 1187;
}
);
unicode = 267;
},
{
glyphname = d;
kernLeft = a2;
kernRight = J;
lastChange = "2024-01-12 17:30:35 +0000";
layers = (
{
anchors = (
{
name = m.ring1;
pos = (591,1544);
}
);
hints = (
{
horizontal = 1;
place = (0, 211);
place = (0, 211);
type = Stem;
},
{
horizontal = 1;
place = (825, 211);
place = (825, 211);
type = Stem;
},
{
horizontal = 1;
place = (1422, -20);
target = down;
type = TopGhost;
},
{
place = (110, 211);
place = (110, 211);
type = Stem;
},
{
place = (851, 211);
place = (851, 211);
type = Stem;
}
);
layerId = "A0B3C83F-707E-46F6-ACEE-65DB6FEE929C";
shapes = (
{
closed = 1;
nodes = (
(110,372,ls),
(110,167,o),
(278,0,o),
(484,0,cs),
(851,0,ls),
(967,0,o),
(1062,95,o),
(1062,211,cs),
(1062,1422,l),
(851,1422,l),
(851,211,l),
(484,211,ls),
(394,211,o),
(321,284,o),
(321,374,cs),
(321,660,ls),
(321,751,o),
(394,825,o),
(484,825,cs),
(731,825,l),
(731,1036,l),
(484,1036,ls),
(278,1036,o),
(110,868,o),
(110,662,cs)
);
}
);
width = 1182;
}
);
unicode = 100;
},
{
glyphname = eth;
kernLeft = at;
lastChange = "2024-01-12 17:09:58 +0000";
layers = (
{
hints = (
{
horizontal = 1;
place = (0, 211);
place = (0, 211);
type = Stem;
},
{
horizontal = 1;
place = (825, 211);
place = (825, 211);
type = Stem;
},
{
horizontal = 1;
place = (1216, 206);
place = (1216, 206);
type = Stem;
},
{
place = (110, 211);
place = (110, 211);
type = Stem;
},
{
place = (851, 211);
place = (851, 211);
type = Stem;
}
);
layerId = "A0B3C83F-707E-46F6-ACEE-65DB6FEE929C";
shapes = (
{
closed = 1;
nodes = (
(110,372,ls),
(110,167,o),
(278,0,o),
(484,0,cs),
(851,0,ls),
(967,0,o),
(1062,95,o),
(1062,211,cs),
(1062,1048,ls),
(1062,1090,o),
(1056,1130,o),
(1044,1164,c),
(1256,1287,l),
(1182,1414,l),
(971,1292,l),
(899,1375,o),
(797,1422,o),
(688,1422,cs),
(321,1422,l),
(321,1216,l),
(690,1216,ls),
(779,1216,o),
(851,1141,o),
(851,1049,cs),
(851,211,l),
(484,211,ls),
(394,211,o),
(321,284,o),
(321,374,cs),
(321,660,ls),
(321,751,o),
(394,825,o),
(484,825,cs),
(731,825,l),
(731,1036,l),
(484,1036,ls),
(278,1036,o),
(110,868,o),
(110,662,cs)
);
}
);
width = 1266;
}
);
unicode = 240;
},
{
glyphname = dcaron;
kernLeft = at;
kernRight = dcaron;
lastChange = "2024-01-12 17:09:58 +0000";
layers = (
{
hints = (
{
horizontal = 1;
place = (0, 211);
place = (0, 211);
type = Stem;
},
{
horizontal = 1;
place = (825, 211);
place = (825, 211);
type = Stem;
},
{
horizontal = 1;
place = (1000, 422);
place = (1000, 422);
type = Stem;
},
{
horizontal = 1;
place = (1422, -20);
target = down;
type = TopGhost;
},
{
place = (110, 211);
place = (110, 211);
type = Stem;
},
{
place = (851, 211);
place = (851, 211);
type = Stem;
},
{
place = (1245, 312);
place = (1245, 312);
type = Stem;
}
);
layerId = "A0B3C83F-707E-46F6-ACEE-65DB6FEE929C";
shapes = (
{
closed = 1;
nodes = (
(1245,1053,l),
(1359,1000,l),
(1557,1334,l),
(1374,1422,l)
);
},
{
closed = 1;
nodes = (
(110,372,ls),
(110,167,o),
(278,0,o),
(484,0,cs),
(851,0,ls),
(967,0,o),
(1062,95,o),
(1062,211,cs),
(1062,1422,l),
(851,1422,l),
(851,211,l),
(484,211,ls),
(394,211,o),
(321,284,o),
(321,374,cs),
(321,660,ls),
(321,751,o),
(394,825,o),
(484,825,cs),
(731,825,l),
(731,1036,l),
(484,1036,ls),
(278,1036,o),
(110,868,o),
(110,662,cs)
);
}
);
width = 1507;
}
);
unicode = 271;
},
{
glyphname = dcroat;
kernLeft = at;
lastChange = "2024-01-12 17:09:58 +0000";
layers = (
{
hints = (
{
horizontal = 1;
place = (0, 211);
place = (0, 211);
type = Stem;
},
{
horizontal = 1;
place = (825, 211);
place = (825, 211);
type = Stem;
},
{
horizontal = 1;
place = (1156, 147);
place = (1156, 147);
type = Stem;
},
{
horizontal = 1;
place = (1422, -20);
target = down;
type = TopGhost;
},
{
place = (110, 211);
place = (110, 211);
type = Stem;
},
{
place = (851, 211);
place = (851, 211);
type = Stem;
}
);
layerId = "A0B3C83F-707E-46F6-ACEE-65DB6FEE929C";
shapes = (
{
closed = 1;
nodes = (
(110,372,ls),
(110,167,o),
(278,0,o),
(484,0,cs),
(851,0,ls),
(967,0,o),
(1062,95,o),
(1062,211,cs),
(1062,1156,l),
(1222,1156,l),
(1222,1303,l),
(1062,1303,l),
(1062,1422,l),
(851,1422,l),
(851,1303,l),
(691,1303,l),
(691,1156,l),
(851,1156,l),
(851,211,l),
(484,211,ls),
(394,211,o),
(321,284,o),
(321,374,cs),
(321,660,ls),
(321,751,o),
(394,825,o),
(484,825,cs),
(731,825,l),
(731,1036,l),
(484,1036,ls),
(278,1036,o),
(110,868,o),
(110,662,cs)
);
}
);
width = 1262;
}
);
unicode = 273;
},
{
glyphname = ddotaccent;
kernLeft = S;
lastChange = "2024-01-12 17:09:58 +0000";
layers = (
{
hints = (
{
horizontal = 1;
place = (0, 211);
place = (0, 211);
type = Stem;
},
{
horizontal = 1;
place = (825, 211);
place = (825, 211);
type = Stem;
},
{
horizontal = 1;
place = (1158, 221);
place = (1158, 221);
type = Stem;
},
{
horizontal = 1;
place = (1422, -20);
target = down;
type = TopGhost;
},
{
place = (110, 211);
place = (110, 211);
type = Stem;
},
{
place = (481, 221);
place = (481, 221);
type = Stem;
},
{
place = (851, 211);
place = (851, 211);
type = Stem;
}
);
layerId = "A0B3C83F-707E-46F6-ACEE-65DB6FEE929C";
shapes = (
{
closed = 1;
nodes = (
(481,1207,o),
(531,1158,o),
(592,1158,cs),
(653,1158,o),
(702,1207,o),
(702,1268,cs),
(702,1330,o),
(653,1379,o),
(592,1379,cs),
(530,1379,o),
(481,1330,o),
(481,1268,cs)
);
},
{
closed = 1;
nodes = (
(110,372,ls),
(110,167,o),
(278,0,o),
(484,0,cs),
(851,0,ls),
(967,0,o),
(1062,95,o),
(1062,211,cs),
(1062,1422,l),
(851,1422,l),
(851,211,l),
(484,211,ls),
(394,211,o),
(321,284,o),
(321,374,cs),
(321,660,ls),
(321,751,o),
(394,825,o),
(484,825,cs),
(731,825,l),
(731,1036,l),
(484,1036,ls),
(278,1036,o),
(110,868,o),
(110,662,cs)
);
}
);
width = 1182;
}
);
unicode = 7691;
},
{
glyphname = e;
kernLeft = e2;
kernRight = e;
lastChange = "2024-01-12 17:30:35 +0000";
layers = (
{
anchors = (
{
name = m.ogonek;
pos = (591,6);
},
{
name = m.ring1;
pos = (591,1158);
}
);
hints = (
{
horizontal = 1;
place = (0, 211);
place = (0, 211);
type = Stem;
},
{
horizontal = 1;
place = (408, 210);
place = (408, 210);
type = Stem;
},
{
horizontal = 1;
place = (825, 211);
place = (825, 211);
type = Stem;
},
{
place = (120, 211);
place = (120, 211);
type = Stem;
},
{
place = (862, 210);
place = (862, 210);
type = Stem;
}
);
layerId = "A0B3C83F-707E-46F6-ACEE-65DB6FEE929C";
shapes = (
{
closed = 1;
nodes = (
(120,292,ls),
(120,131,o),
(250,0,o),
(410,0,cs),
(999,0,l),
(999,211,l),
(410,211,ls),
(366,211,o),
(331,248,o),
(331,293,cs),
(331,825,l),
(775,825,ls),
(823,825,o),
(862,785,o),
(862,735,cs),
(862,707,ls),
(862,658,o),
(823,618,o),
(775,618,cs),
(451,618,l),
(451,408,l),
(773,408,ls),
(938,408,o),
(1072,542,o),
(1072,706,cs),
(1072,735,ls),
(1072,901,o),
(938,1036,o),
(773,1036,cs),
(341,1036,ls),
(219,1036,o),
(120,940,o),
(120,822,cs)
);
}
);
width = 1182;
}
);
unicode = 101;
},
{
glyphname = eacute;
kernLeft = e2;
kernRight = e;
lastChange = "2024-01-12 17:09:58 +0000";
layers = (
{
hints = (
{
horizontal = 1;
place = (0, 211);
place = (0, 211);
type = Stem;
},
{
horizontal = 1;
place = (408, 210);
place = (408, 210);
type = Stem;
},
{
horizontal = 1;
place = (825, 211);
place = (825, 211);
type = Stem;
},
{
horizontal = 1;
place = (1158, 422);
place = (1158, 422);
type = Stem;
},
{
place = (120, 211);
place = (120, 211);
type = Stem;
},
{
place = (477, 312);
place = (477, 312);
type = Stem;
},
{
place = (862, 210);
place = (862, 210);
type = Stem;
}
);
layerId = "A0B3C83F-707E-46F6-ACEE-65DB6FEE929C";
shapes = (
{
closed = 1;
nodes = (
(477,1211,l),
(591,1158,l),
(789,1492,l),
(606,1580,l)
);
},
{
closed = 1;
nodes = (
(120,292,ls),
(120,131,o),
(250,0,o),
(410,0,cs),
(999,0,l),
(999,211,l),
(410,211,ls),
(366,211,o),
(331,248,o),
(331,293,cs),
(331,825,l),
(775,825,ls),
(823,825,o),
(862,785,o),
(862,735,cs),
(862,707,ls),
(862,658,o),
(823,618,o),
(775,618,cs),
(451,618,l),
(451,408,l),
(773,408,ls),
(938,408,o),
(1072,542,o),
(1072,706,cs),
(1072,735,ls),
(1072,901,o),
(938,1036,o),
(773,1036,cs),
(341,1036,ls),
(219,1036,o),
(120,940,o),
(120,822,cs)
);
}
);
width = 1182;
}
);
unicode = 233;
},
{
glyphname = ebreve;
kernLeft = e2;
kernRight = e;
lastChange = "2024-01-12 17:09:58 +0000";
layers = (
{
hints = (
{
horizontal = 1;
place = (0, 211);
place = (0, 211);
type = Stem;
},
{
horizontal = 1;
place = (408, 210);
place = (408, 210);
type = Stem;
},
{
horizontal = 1;
place = (825, 211);
place = (825, 211);
type = Stem;
},
{
horizontal = 1;
place = (1160, 134);
place = (1160, 134);
type = Stem;
},
{
horizontal = 1;
place = (1458, -20);
target = down;
type = TopGhost;
},
{
place = (120, 211);
place = (120, 211);
type = Stem;
},
{
place = (293, 134);
place = (293, 134);
type = Stem;
},
{
place = (755, 134);
place = (755, 134);
type = Stem;
},
{
place = (862, 210);
place = (862, 210);
type = Stem;
}
);
layerId = "A0B3C83F-707E-46F6-ACEE-65DB6FEE929C";
shapes = (
{
closed = 1;
nodes = (
(293,1458,l),
(293,1294,o),
(427,1160,o),
(591,1160,cs),
(755,1160,o),
(889,1294,o),
(889,1458,c),
(755,1458,l),
(755,1368,o),
(681,1294,o),
(591,1294,cs),
(501,1294,o),
(427,1368,o),
(427,1458,c)
);
},
{
closed = 1;
nodes = (
(120,292,ls),
(120,131,o),
(250,0,o),
(410,0,cs),
(999,0,l),
(999,211,l),
(410,211,ls),
(366,211,o),
(331,248,o),
(331,293,cs),
(331,825,l),
(775,825,ls),
(823,825,o),
(862,785,o),
(862,735,cs),
(862,707,ls),
(862,658,o),
(823,618,o),
(775,618,cs),
(451,618,l),
(451,408,l),
(773,408,ls),
(938,408,o),
(1072,542,o),
(1072,706,cs),
(1072,735,ls),
(1072,901,o),
(938,1036,o),
(773,1036,cs),
(341,1036,ls),
(219,1036,o),
(120,940,o),
(120,822,cs)
);
}
);
width = 1182;
}
);
unicode = 277;
},
{
glyphname = ecaron;
kernLeft = e2;
kernRight = e;
lastChange = "2024-01-12 17:09:58 +0000";
layers = (
{
hints = (
{
horizontal = 1;
place = (0, 211);
place = (0, 211);
type = Stem;
},
{
horizontal = 1;
place = (408, 210);
place = (408, 210);
type = Stem;
},
{
horizontal = 1;
place = (825, 211);
place = (825, 211);
type = Stem;
},
{
horizontal = 1;
place = (1158, 309);
place = (1158, 309);
type = Stem;
},
{
place = (120, 211);
place = (120, 211);
type = Stem;
},
{
place = (279, 623);
place = (279, 623);
type = Stem;
},
{
place = (862, 210);
place = (862, 210);
type = Stem;
}
);
layerId = "A0B3C83F-707E-46F6-ACEE-65DB6FEE929C";
shapes = (
{
closed = 1;
nodes = (
(279,1467,l),
(513,1158,l),
(668,1158,l),
(902,1467,l),
(761,1467,l),
(590,1295,l),
(420,1467,l)
);
},
{
closed = 1;
nodes = (
(120,292,ls),
(120,131,o),
(250,0,o),
(410,0,cs),
(999,0,l),
(999,211,l),
(410,211,ls),
(366,211,o),
(331,248,o),
(331,293,cs),
(331,825,l),
(775,825,ls),
(823,825,o),
(862,785,o),
(862,735,cs),
(862,707,ls),
(862,658,o),
(823,618,o),
(775,618,cs),
(451,618,l),
(451,408,l),
(773,408,ls),
(938,408,o),
(1072,542,o),
(1072,706,cs),
(1072,735,ls),
(1072,901,o),
(938,1036,o),
(773,1036,cs),
(341,1036,ls),
(219,1036,o),
(120,940,o),
(120,822,cs)
);
}
);
width = 1182;
}
);
unicode = 283;
},
{
glyphname = ecircumflex;
kernLeft = e2;
kernRight = e;
lastChange = "2024-01-12 17:09:58 +0000";
layers = (
{
hints = (
{
horizontal = 1;
place = (0, 211);
place = (0, 211);
type = Stem;
},
{
horizontal = 1;
place = (408, 210);
place = (408, 210);
type = Stem;
},
{
horizontal = 1;
place = (825, 211);
place = (825, 211);
type = Stem;
},
{
horizontal = 1;
place = (1157, 309);
place = (1157, 309);
type = Stem;
},
{
place = (120, 211);
place = (120, 211);
type = Stem;
},
{
place = (280, 623);
place = (280, 623);
type = Stem;
},
{
place = (862, 210);
place = (862, 210);
type = Stem;
}
);
layerId = "A0B3C83F-707E-46F6-ACEE-65DB6FEE929C";
shapes = (
{
closed = 1;
nodes = (
(280,1157,l),
(421,1157,l),
(591,1329,l),
(762,1157,l),
(903,1157,l),
(669,1466,l),
(514,1466,l)
);
},
{
closed = 1;
nodes = (
(120,292,ls),
(120,131,o),
(250,0,o),
(410,0,cs),
(999,0,l),
(999,211,l),
(410,211,ls),
(366,211,o),
(331,248,o),
(331,293,cs),
(331,825,l),
(775,825,ls),
(823,825,o),
(862,785,o),
(862,735,cs),
(862,707,ls),
(862,658,o),
(823,618,o),
(775,618,cs),
(451,618,l),
(451,408,l),
(773,408,ls),
(938,408,o),
(1072,542,o),
(1072,706,cs),
(1072,735,ls),
(1072,901,o),
(938,1036,o),
(773,1036,cs),
(341,1036,ls),
(219,1036,o),
(120,940,o),
(120,822,cs)
);
}
);
width = 1182;
}
);
unicode = 234;
},
{
glyphname = edieresis;
kernLeft = e2;
kernRight = e;
lastChange = "2024-01-12 17:09:58 +0000";
layers = (
{
hints = (
{
horizontal = 1;
place = (0, 211);
place = (0, 211);
type = Stem;
},
{
horizontal = 1;
place = (408, 210);
place = (408, 210);
type = Stem;
},
{
horizontal = 1;
place = (825, 211);
place = (825, 211);
type = Stem;
},
{
horizontal = 1;
place = (1159, 221);
place = (1159, 221);
type = Stem;
},
{
place = (120, 211);
place = (120, 211);
type = Stem;
},
{
place = (311, 221);
place = (311, 221);
type = Stem;
},
{
place = (651, 221);
place = (651, 221);
type = Stem;
},
{
place = (862, 210);
place = (862, 210);
type = Stem;
}
);
layerId = "A0B3C83F-707E-46F6-ACEE-65DB6FEE929C";
shapes = (
{
closed = 1;
nodes = (
(311,1208,o),
(360,1159,o),
(421,1159,cs),
(483,1159,o),
(532,1208,o),
(532,1269,cs),
(532,1331,o),
(483,1380,o),
(421,1380,cs),
(360,1380,o),
(311,1331,o),
(311,1269,cs)
);
},
{
closed = 1;
nodes = (
(651,1208,o),
(700,1159,o),
(761,1159,cs),
(823,1159,o),
(872,1208,o),
(872,1269,cs),
(872,1331,o),
(823,1380,o),
(761,1380,cs),
(700,1380,o),
(651,1331,o),
(651,1269,cs)
);
},
{
closed = 1;
nodes = (
(120,292,ls),
(120,131,o),
(250,0,o),
(410,0,cs),
(999,0,l),
(999,211,l),
(410,211,ls),
(366,211,o),
(331,248,o),
(331,293,cs),
(331,825,l),
(775,825,ls),
(823,825,o),
(862,785,o),
(862,735,cs),
(862,707,ls),
(862,658,o),
(823,618,o),
(775,618,cs),
(451,618,l),
(451,408,l),
(773,408,ls),
(938,408,o),
(1072,542,o),
(1072,706,cs),
(1072,735,ls),
(1072,901,o),
(938,1036,o),
(773,1036,cs),
(341,1036,ls),
(219,1036,o),
(120,940,o),
(120,822,cs)
);
}
);
width = 1182;
}
);
unicode = 235;
},
{
glyphname = edotaccent;
kernLeft = e2;
kernRight = e;
lastChange = "2024-01-12 17:09:58 +0000";
layers = (
{
hints = (
{
horizontal = 1;
place = (0, 211);
place = (0, 211);
type = Stem;
},
{
horizontal = 1;
place = (408, 210);
place = (408, 210);
type = Stem;
},
{
horizontal = 1;
place = (825, 211);
place = (825, 211);
type = Stem;
},
{
horizontal = 1;
place = (1158, 221);
place = (1158, 221);
type = Stem;
},
{
place = (120, 211);
place = (120, 211);
type = Stem;
},
{
place = (480, 221);
place = (480, 221);
type = Stem;
},
{
place = (862, 210);
place = (862, 210);
type = Stem;
}
);
layerId = "A0B3C83F-707E-46F6-ACEE-65DB6FEE929C";
shapes = (
{
closed = 1;
nodes = (
(480,1207,o),
(530,1158,o),
(591,1158,cs),
(652,1158,o),
(701,1207,o),
(701,1268,cs),
(701,1330,o),
(652,1379,o),
(591,1379,cs),
(529,1379,o),
(480,1330,o),
(480,1268,cs)
);
},
{
closed = 1;
nodes = (
(120,292,ls),
(120,131,o),
(250,0,o),
(410,0,cs),
(999,0,l),
(999,211,l),
(410,211,ls),
(366,211,o),
(331,248,o),
(331,293,cs),
(331,825,l),
(775,825,ls),
(823,825,o),
(862,785,o),
(862,735,cs),
(862,707,ls),
(862,658,o),
(823,618,o),
(775,618,cs),
(451,618,l),
(451,408,l),
(773,408,ls),
(938,408,o),
(1072,542,o),
(1072,706,cs),
(1072,735,ls),
(1072,901,o),
(938,1036,o),
(773,1036,cs),
(341,1036,ls),
(219,1036,o),
(120,940,o),
(120,822,cs)
);
}
);
width = 1182;
}
);
unicode = 279;
},
{
glyphname = egrave;
kernLeft = e2;
kernRight = e;
lastChange = "2024-01-12 17:09:58 +0000";
layers = (
{
hints = (
{
horizontal = 1;
place = (0, 211);
place = (0, 211);
type = Stem;
},
{
horizontal = 1;
place = (408, 210);
place = (408, 210);
type = Stem;
},
{
horizontal = 1;
place = (825, 211);
place = (825, 211);
type = Stem;
},
{
horizontal = 1;
place = (1158, 422);
place = (1158, 422);
type = Stem;
},
{
place = (120, 211);
place = (120, 211);
type = Stem;
},
{
place = (393, 312);
place = (393, 312);
type = Stem;
},
{
place = (862, 210);
place = (862, 210);
type = Stem;
}
);
layerId = "A0B3C83F-707E-46F6-ACEE-65DB6FEE929C";
shapes = (
{
closed = 1;
nodes = (
(393,1492,l),
(591,1158,l),
(705,1211,l),
(576,1580,l)
);
},
{
closed = 1;
nodes = (
(120,292,ls),
(120,131,o),
(250,0,o),
(410,0,cs),
(999,0,l),
(999,211,l),
(410,211,ls),
(366,211,o),
(331,248,o),
(331,293,cs),
(331,825,l),
(775,825,ls),
(823,825,o),
(862,785,o),
(862,735,cs),
(862,707,ls),
(862,658,o),
(823,618,o),
(775,618,cs),
(451,618,l),
(451,408,l),
(773,408,ls),
(938,408,o),
(1072,542,o),
(1072,706,cs),
(1072,735,ls),
(1072,901,o),
(938,1036,o),
(773,1036,cs),
(341,1036,ls),
(219,1036,o),
(120,940,o),
(120,822,cs)
);
}
);
width = 1182;
}
);
unicode = 232;
},
{
glyphname = emacron;
kernLeft = e2;
kernRight = e;
lastChange = "2024-01-12 17:09:58 +0000";
layers = (
{
hints = (
{
horizontal = 1;
place = (0, 211);
place = (0, 211);
type = Stem;
},
{
horizontal = 1;
place = (408, 210);
place = (408, 210);
type = Stem;
},
{
horizontal = 1;
place = (825, 211);
place = (825, 211);
type = Stem;
},
{
horizontal = 1;
place = (1158, 147);
place = (1158, 147);
type = Stem;
},
{
place = (120, 211);
place = (120, 211);
type = Stem;
},
{
place = (292, 597);
place = (292, 597);
type = Stem;
},
{
place = (862, 210);
place = (862, 210);
type = Stem;
}
);
layerId = "A0B3C83F-707E-46F6-ACEE-65DB6FEE929C";
shapes = (
{
closed = 1;
nodes = (
(292,1158,l),
(889,1158,l),
(889,1305,l),
(292,1305,l)
);
},
{
closed = 1;
nodes = (
(120,292,ls),
(120,131,o),
(250,0,o),
(410,0,cs),
(999,0,l),
(999,211,l),
(410,211,ls),
(366,211,o),
(331,248,o),
(331,293,cs),
(331,825,l),
(775,825,ls),
(823,825,o),
(862,785,o),
(862,735,cs),
(862,707,ls),
(862,658,o),
(823,618,o),
(775,618,cs),
(451,618,l),
(451,408,l),
(773,408,ls),
(938,408,o),
(1072,542,o),
(1072,706,cs),
(1072,735,ls),
(1072,901,o),
(938,1036,o),
(773,1036,cs),
(341,1036,ls),
(219,1036,o),
(120,940,o),
(120,822,cs)
);
}
);
width = 1182;
}
);
unicode = 275;
},
{
glyphname = eogonek;
kernLeft = e2;
kernRight = e;
lastChange = "2024-01-12 17:09:58 +0000";
layers = (
{
hints = (
{
horizontal = 1;
place = (-307, 150);
place = (-307, 150);
type = Stem;
},
{
horizontal = 1;
place = (0, 211);
place = (0, 211);
type = Stem;
},
{
horizontal = 1;
place = (408, 210);
place = (408, 210);
type = Stem;
},
{
horizontal = 1;
place = (825, 211);
place = (825, 211);
type = Stem;
},
{
place = (120, 211);
place = (120, 211);
type = Stem;
},
{
place = (477, 151);
place = (477, 151);
type = Stem;
},
{
place = (862, 210);
place = (862, 210);
type = Stem;
}
);
layerId = "A0B3C83F-707E-46F6-ACEE-65DB6FEE929C";
shapes = (
{
closed = 1;
nodes = (
(477,-266,o),
(525,-307,o),
(629,-307,cs),
(662,-307,o),
(691,-304,o),
(779,-291,c),
(779,-143,l),
(697,-156,o),
(686,-157,o),
(669,-157,cs),
(639,-157,o),
(628,-148,o),
(628,-126,cs),
(628,-106,o),
(635,-83,o),
(667,6,c),
(519,6,l),
(491,-69,o),
(477,-130,o),
(477,-177,cs)
);
},
{
closed = 1;
nodes = (
(120,292,ls),
(120,131,o),
(250,0,o),
(410,0,cs),
(999,0,l),
(999,211,l),
(410,211,ls),
(366,211,o),
(331,248,o),
(331,293,cs),
(331,825,l),
(775,825,ls),
(823,825,o),
(862,785,o),
(862,735,cs),
(862,707,ls),
(862,658,o),
(823,618,o),
(775,618,cs),
(451,618,l),
(451,408,l),
(773,408,ls),
(938,408,o),
(1072,542,o),
(1072,706,cs),
(1072,735,ls),
(1072,901,o),
(938,1036,o),
(773,1036,cs),
(341,1036,ls),
(219,1036,o),
(120,940,o),
(120,822,cs)
);
}
);
width = 1182;
}
);
unicode = 281;
},
{
glyphname = f;
kernLeft = S;
kernRight = f;
lastChange = "2024-01-12 17:30:35 +0000";
layers = (
{
anchors = (
{
name = m.ring1;
pos = (360,1544);
}
);
hints = (
{
horizontal = 1;
place = (0, 21);
target = up;
type = BottomGhost;
},
{
horizontal = 1;
place = (826, 210);
place = (826, 210);
type = Stem;
},
{
horizontal = 1;
place = (1212, 210);
place = (1212, 210);
type = Stem;
},
{
place = (120, 211);
place = (120, 211);
type = Stem;
}
);
layerId = "A0B3C83F-707E-46F6-ACEE-65DB6FEE929C";
shapes = (
{
closed = 1;
nodes = (
(120,0,l),
(331,0,l),
(331,826,l),
(653,826,l),
(653,1036,l),
(331,1036,l),
(331,1125,ls),
(331,1173,o),
(370,1212,o),
(418,1212,cs),
(649,1212,l),
(649,1422,l),
(418,1422,ls),
(254,1422,o),
(120,1289,o),
(120,1125,cs)
);
}
);
width = 723;
}
);
unicode = 102;
},
{
glyphname = g;
kernLeft = c2;
kernRight = g;
lastChange = "2024-01-12 17:30:35 +0000";
layers = (
{
anchors = (
{
name = m.ring1;
pos = (591,1158);
}
);
hints = (
{
horizontal = 1;
place = (-386, 211);
place = (-386, 211);
type = Stem;
},
{
horizontal = 1;
place = (0, 211);
place = (0, 211);
type = Stem;
},
{
horizontal = 1;
place = (825, 211);
place = (825, 211);
type = Stem;
},
{
place = (110, 211);
place = (110, 211);
type = Stem;
},
{
place = (851, 211);
place = (851, 211);
type = Stem;
}
);
layerId = "A0B3C83F-707E-46F6-ACEE-65DB6FEE929C";
shapes = (
{
closed = 1;
nodes = (
(110,373,ls),
(110,167,o),
(278,0,o),
(484,0,cs),
(731,0,l),
(731,211,l),
(484,211,ls),
(394,211,o),
(321,285,o),
(321,375,cs),
(321,662,ls),
(321,752,o),
(394,825,o),
(484,825,cs),
(851,825,l),
(851,-13,ls),
(851,-102,o),
(777,-175,o),
(685,-175,cs),
(177,-175,l),
(177,-386,l),
(688,-386,ls),
(894,-386,o),
(1062,-218,o),
(1062,-12,cs),
(1062,825,ls),
(1062,941,o),
(967,1036,o),
(851,1036,cs),
(484,1036,ls),
(278,1036,o),
(110,869,o),
(110,664,cs)
);
}
);
width = 1182;
}
);
unicode = 103;
},
{
glyphname = gbreve;
kernLeft = at;
lastChange = "2024-01-12 17:09:58 +0000";
layers = (
{
hints = (
{
horizontal = 1;
place = (-386, 211);
place = (-386, 211);
type = Stem;
},
{
horizontal = 1;
place = (0, 211);
place = (0, 211);
type = Stem;
},
{
horizontal = 1;
place = (825, 211);
place = (825, 211);
type = Stem;
},
{
horizontal = 1;
place = (1160, 134);
place = (1160, 134);
type = Stem;
},
{
horizontal = 1;
place = (1458, -20);
target = down;
type = TopGhost;
},
{
place = (110, 211);
place = (110, 211);
type = Stem;
},
{
place = (293, 134);
place = (293, 134);
type = Stem;
},
{
place = (755, 134);
place = (755, 134);
type = Stem;
},
{
place = (851, 211);
place = (851, 211);
type = Stem;
}
);
layerId = "A0B3C83F-707E-46F6-ACEE-65DB6FEE929C";
shapes = (
{
closed = 1;
nodes = (
(293,1458,l),
(293,1294,o),
(427,1160,o),
(591,1160,cs),
(755,1160,o),
(889,1294,o),
(889,1458,c),
(755,1458,l),
(755,1368,o),
(681,1294,o),
(591,1294,cs),
(501,1294,o),
(427,1368,o),
(427,1458,c)
);
},
{
closed = 1;
nodes = (
(110,373,ls),
(110,167,o),
(278,0,o),
(484,0,cs),
(731,0,l),
(731,211,l),
(484,211,ls),
(394,211,o),
(321,285,o),
(321,375,cs),
(321,662,ls),
(321,752,o),
(394,825,o),
(484,825,cs),
(851,825,l),
(851,-13,ls),
(851,-102,o),
(777,-175,o),
(685,-175,cs),
(177,-175,l),
(177,-386,l),
(688,-386,ls),
(894,-386,o),
(1062,-218,o),
(1062,-12,cs),
(1062,825,ls),
(1062,941,o),
(967,1036,o),
(851,1036,cs),
(484,1036,ls),
(278,1036,o),
(110,869,o),
(110,664,cs)
);
}
);
width = 1182;
}
);
unicode = 287;
},
{
glyphname = gcircumflex;
kernLeft = at;
lastChange = "2024-01-12 17:09:58 +0000";
layers = (
{
hints = (
{
horizontal = 1;
place = (-386, 211);
place = (-386, 211);
type = Stem;
},
{
horizontal = 1;
place = (0, 211);
place = (0, 211);
type = Stem;
},
{
horizontal = 1;
place = (825, 211);
place = (825, 211);
type = Stem;
},
{
horizontal = 1;
place = (1157, 309);
place = (1157, 309);
type = Stem;
},
{
place = (110, 211);
place = (110, 211);
type = Stem;
},
{
place = (280, 623);
place = (280, 623);
type = Stem;
},
{
place = (851, 211);
place = (851, 211);
type = Stem;
}
);
layerId = "A0B3C83F-707E-46F6-ACEE-65DB6FEE929C";
shapes = (
{
closed = 1;
nodes = (
(280,1157,l),
(421,1157,l),
(591,1329,l),
(762,1157,l),
(903,1157,l),
(669,1466,l),
(514,1466,l)
);
},
{
closed = 1;
nodes = (
(110,373,ls),
(110,167,o),
(278,0,o),
(484,0,cs),
(731,0,l),
(731,211,l),
(484,211,ls),
(394,211,o),
(321,285,o),
(321,375,cs),
(321,662,ls),
(321,752,o),
(394,825,o),
(484,825,cs),
(851,825,l),
(851,-13,ls),
(851,-102,o),
(777,-175,o),
(685,-175,cs),
(177,-175,l),
(177,-386,l),
(688,-386,ls),
(894,-386,o),
(1062,-218,o),
(1062,-12,cs),
(1062,825,ls),
(1062,941,o),
(967,1036,o),
(851,1036,cs),
(484,1036,ls),
(278,1036,o),
(110,869,o),
(110,664,cs)
);
}
);
width = 1182;
}
);
unicode = 285;
},
{
glyphname = gdotaccent;
kernLeft = at;
lastChange = "2024-01-12 17:09:58 +0000";
layers = (
{
hints = (
{
horizontal = 1;
place = (-386, 211);
place = (-386, 211);
type = Stem;
},
{
horizontal = 1;
place = (0, 211);
place = (0, 211);
type = Stem;
},
{
horizontal = 1;
place = (825, 211);
place = (825, 211);
type = Stem;
},
{
horizontal = 1;
place = (1158, 221);
place = (1158, 221);
type = Stem;
},
{
place = (110, 211);
place = (110, 211);
type = Stem;
},
{
place = (480, 221);
place = (480, 221);
type = Stem;
},
{
place = (851, 211);
place = (851, 211);
type = Stem;
}
);
layerId = "A0B3C83F-707E-46F6-ACEE-65DB6FEE929C";
shapes = (
{
closed = 1;
nodes = (
(480,1207,o),
(530,1158,o),
(591,1158,cs),
(652,1158,o),
(701,1207,o),
(701,1268,cs),
(701,1330,o),
(652,1379,o),
(591,1379,cs),
(529,1379,o),
(480,1330,o),
(480,1268,cs)
);
},
{
closed = 1;
nodes = (
(110,373,ls),
(110,167,o),
(278,0,o),
(484,0,cs),
(731,0,l),
(731,211,l),
(484,211,ls),
(394,211,o),
(321,285,o),
(321,375,cs),
(321,662,ls),
(321,752,o),
(394,825,o),
(484,825,cs),
(851,825,l),
(851,-13,ls),
(851,-102,o),
(777,-175,o),
(685,-175,cs),
(177,-175,l),
(177,-386,l),
(688,-386,ls),
(894,-386,o),
(1062,-218,o),
(1062,-12,cs),
(1062,825,ls),
(1062,941,o),
(967,1036,o),
(851,1036,cs),
(484,1036,ls),
(278,1036,o),
(110,869,o),
(110,664,cs)
);
}
);
width = 1182;
}
);
unicode = 289;
},
{
glyphname = h;
kernLeft = B2;
lastChange = "2024-01-12 17:30:35 +0000";
layers = (
{
anchors = (
{
name = m.ring1;
pos = (225,1544);
}
);
hints = (
{
horizontal = 1;
place = (0, 21);
target = up;
type = BottomGhost;
},
{
horizontal = 1;
place = (825, 211);
place = (825, 211);
type = Stem;
},
{
horizontal = 1;
place = (1422, -20);
target = down;
type = TopGhost;
},
{
place = (120, 211);
place = (120, 211);
type = Stem;
},
{
place = (836, 211);
place = (836, 211);
type = Stem;
}
);
layerId = "A0B3C83F-707E-46F6-ACEE-65DB6FEE929C";
shapes = (
{
closed = 1;
nodes = (
(120,0,l),
(331,0,l),
(331,825,l),
(657,825,ls),
(753,825,o),
(836,748,o),
(836,660,cs),
(836,0,l),
(1047,0,l),
(1047,663,ls),
(1047,869,o),
(872,1036,o),
(657,1036,cs),
(331,1036,l),
(331,1422,l),
(120,1422,l)
);
}
);
width = 1167;
}
);
unicode = 104;
},
{
glyphname = hbar;
kernLeft = at;
lastChange = "2024-01-12 17:09:58 +0000";
layers = (
{
hints = (
{
horizontal = 1;
place = (0, 21);
target = up;
type = BottomGhost;
},
{
horizontal = 1;
place = (825, 211);
place = (825, 211);
type = Stem;
},
{
horizontal = 1;
place = (1156, 147);
place = (1156, 147);
type = Stem;
},
{
horizontal = 1;
place = (1422, -20);
target = down;
type = TopGhost;
},
{
place = (220, 211);
place = (220, 211);
type = Stem;
},
{
place = (936, 211);
place = (936, 211);
type = Stem;
}
);
layerId = "A0B3C83F-707E-46F6-ACEE-65DB6FEE929C";
shapes = (
{
closed = 1;
nodes = (
(60,1156,l),
(220,1156,l),
(220,0,l),
(431,0,l),
(431,825,l),
(757,825,ls),
(853,825,o),
(936,748,o),
(936,660,cs),
(936,0,l),
(1147,0,l),
(1147,663,ls),
(1147,869,o),
(972,1036,o),
(757,1036,cs),
(431,1036,l),
(431,1156,l),
(591,1156,l),
(591,1303,l),
(431,1303,l),
(431,1422,l),
(220,1422,l),
(220,1303,l),
(60,1303,l)
);
}
);
width = 1287;
}
);
unicode = 295;
},
{
glyphname = hcircumflex;
kernLeft = at;
lastChange = "2024-01-12 17:09:58 +0000";
layers = (
{
hints = (
{
horizontal = 1;
place = (0, 21);
target = up;
type = BottomGhost;
},
{
horizontal = 1;
place = (825, 211);
place = (825, 211);
type = Stem;
},
{
horizontal = 1;
place = (1422, -20);
target = down;
type = TopGhost;
},
{
horizontal = 1;
place = (1543, 309);
place = (1543, 309);
type = Stem;
},
{
place = (-86, 623);
place = (-86, 623);
type = Stem;
},
{
place = (120, 211);
place = (120, 211);
type = Stem;
},
{
place = (836, 211);
place = (836, 211);
type = Stem;
}
);
layerId = "A0B3C83F-707E-46F6-ACEE-65DB6FEE929C";
shapes = (
{
closed = 1;
nodes = (
(-86,1543,l),
(55,1543,l),
(225,1715,l),
(396,1543,l),
(537,1543,l),
(303,1852,l),
(148,1852,l)
);
},
{
closed = 1;
nodes = (
(120,0,l),
(331,0,l),
(331,825,l),
(657,825,ls),
(753,825,o),
(836,748,o),
(836,660,cs),
(836,0,l),
(1047,0,l),
(1047,663,ls),
(1047,869,o),
(872,1036,o),
(657,1036,cs),
(331,1036,l),
(331,1422,l),
(120,1422,l)
);
}
);
width = 1167;
}
);
unicode = 293;
},
{
glyphname = i;
kernLeft = B2;
kernRight = H;
lastChange = "2024-01-12 17:09:58 +0000";
layers = (
{
anchors = (
{
name = m.ogonek;
pos = (226,6);
}
);
hints = (
{
horizontal = 1;
place = (0, 21);
target = up;
type = BottomGhost;
},
{
horizontal = 1;
place = (1036, -20);
target = down;
type = TopGhost;
},
{
horizontal = 1;
place = (1188, 260);
place = (1188, 260);
type = Stem;
},
{
place = (96, 260);
place = (96, 260);
type = Stem;
},
{
place = (120, 212);
place = (120, 212);
type = Stem;
}
);
layerId = "A0B3C83F-707E-46F6-ACEE-65DB6FEE929C";
shapes = (
{
closed = 1;
nodes = (
(96,1246,o),
(154,1188,o),
(226,1188,cs),
(298,1188,o),
(356,1246,o),
(356,1318,cs),
(356,1390,o),
(298,1448,o),
(226,1448,cs),
(154,1448,o),
(96,1390,o),
(96,1318,cs)
);
},
{
closed = 1;
nodes = (
(120,0,l),
(332,0,l),
(332,1036,l),
(120,1036,l)
);
}
);
width = 452;
}
);
unicode = 105;
},
{
glyphname = dotlessi;
kernLeft = at;
lastChange = "2024-01-12 17:30:35 +0000";
layers = (
{
anchors = (
{
name = m.ring1;
pos = (232,1158);
}
);
hints = (
{
horizontal = 1;
place = (0, 21);
target = up;
type = BottomGhost;
},
{
horizontal = 1;
place = (1036, -20);
target = down;
type = TopGhost;
},
{
place = (127, 211);
place = (127, 211);
type = Stem;
}
);
layerId = "A0B3C83F-707E-46F6-ACEE-65DB6FEE929C";
shapes = (
{
closed = 1;
nodes = (
(127,0,l),
(338,0,l),
(338,1036,l),
(127,1036,l)
);
}
);
width = 465;
}
);
unicode = 305;
},
{
glyphname = iacute;
kernLeft = at;
lastChange = "2024-01-12 17:09:58 +0000";
layers = (
{
hints = (
{
horizontal = 1;
place = (0, 21);
target = up;
type = BottomGhost;
},
{
horizontal = 1;
place = (1036, -20);
target = down;
type = TopGhost;
},
{
horizontal = 1;
place = (1158, 422);
place = (1158, 422);
type = Stem;
},
{
place = (118, 312);
place = (118, 312);
type = Stem;
},
{
place = (127, 211);
place = (127, 211);
type = Stem;
}
);
layerId = "A0B3C83F-707E-46F6-ACEE-65DB6FEE929C";
shapes = (
{
closed = 1;
nodes = (
(118,1211,l),
(232,1158,l),
(430,1492,l),
(247,1580,l)
);
},
{
closed = 1;
nodes = (
(127,0,l),
(338,0,l),
(338,1036,l),
(127,1036,l)
);
}
);
width = 465;
}
);
unicode = 237;
},
{
glyphname = ibreve;
kernLeft = at;
lastChange = "2024-01-12 17:09:58 +0000";
layers = (
{
hints = (
{
horizontal = 1;
place = (0, 21);
target = up;
type = BottomGhost;
},
{
horizontal = 1;
place = (1036, -20);
target = down;
type = TopGhost;
},
{
horizontal = 1;
place = (1158, 134);
place = (1158, 134);
type = Stem;
},
{
horizontal = 1;
place = (1456, -20);
target = down;
type = TopGhost;
},
{
place = (-66, 134);
place = (-66, 134);
type = Stem;
},
{
place = (127, 211);
place = (127, 211);
type = Stem;
},
{
place = (396, 134);
place = (396, 134);
type = Stem;
}
);
layerId = "A0B3C83F-707E-46F6-ACEE-65DB6FEE929C";
shapes = (
{
closed = 1;
nodes = (
(-66,1456,l),
(-66,1292,o),
(68,1158,o),
(232,1158,cs),
(396,1158,o),
(530,1292,o),
(530,1456,c),
(396,1456,l),
(396,1366,o),
(322,1292,o),
(232,1292,cs),
(142,1292,o),
(68,1366,o),
(68,1456,c)
);
},
{
closed = 1;
nodes = (
(127,0,l),
(338,0,l),
(338,1036,l),
(127,1036,l)
);
}
);
width = 465;
}
);
unicode = 301;
},
{
glyphname = icircumflex;
kernLeft = at;
lastChange = "2024-01-12 17:09:58 +0000";
layers = (
{
hints = (
{
horizontal = 1;
place = (0, 21);
target = up;
type = BottomGhost;
},
{
horizontal = 1;
place = (1036, -20);
target = down;
type = TopGhost;
},
{
horizontal = 1;
place = (1157, 309);
place = (1157, 309);
type = Stem;
},
{
place = (-79, 623);
place = (-79, 623);
type = Stem;
},
{
place = (127, 211);
place = (127, 211);
type = Stem;
}
);
layerId = "A0B3C83F-707E-46F6-ACEE-65DB6FEE929C";
shapes = (
{
closed = 1;
nodes = (
(-79,1157,l),
(62,1157,l),
(232,1329,l),
(403,1157,l),
(544,1157,l),
(310,1466,l),
(155,1466,l)
);
},
{
closed = 1;
nodes = (
(127,0,l),
(338,0,l),
(338,1036,l),
(127,1036,l)
);
}
);
width = 465;
}
);
unicode = 238;
},
{
glyphname = idieresis;
kernLeft = at;
lastChange = "2024-01-12 17:09:58 +0000";
layers = (
{
hints = (
{
horizontal = 1;
place = (0, 21);
target = up;
type = BottomGhost;
},
{
horizontal = 1;
place = (1036, -20);
target = down;
type = TopGhost;
},
{
horizontal = 1;
place = (1159, 221);
place = (1159, 221);
type = Stem;
},
{
place = (-48, 221);
place = (-48, 221);
type = Stem;
},
{
place = (127, 211);
place = (127, 211);
type = Stem;
},
{
place = (292, 221);
place = (292, 221);
type = Stem;
}
);
layerId = "A0B3C83F-707E-46F6-ACEE-65DB6FEE929C";
shapes = (
{
closed = 1;
nodes = (
(-48,1208,o),
(1,1159,o),
(62,1159,cs),
(124,1159,o),
(173,1208,o),
(173,1269,cs),
(173,1331,o),
(124,1380,o),
(62,1380,cs),
(1,1380,o),
(-48,1331,o),
(-48,1269,cs)
);
},
{
closed = 1;
nodes = (
(292,1208,o),
(341,1159,o),
(402,1159,cs),
(464,1159,o),
(513,1208,o),
(513,1269,cs),
(513,1331,o),
(464,1380,o),
(402,1380,cs),
(341,1380,o),
(292,1331,o),
(292,1269,cs)
);
},
{
closed = 1;
nodes = (
(127,0,l),
(338,0,l),
(338,1036,l),
(127,1036,l)
);
}
);
width = 465;
}
);
unicode = 239;
},
{
glyphname = igrave;
kernLeft = at;
lastChange = "2024-01-12 17:09:58 +0000";
layers = (
{
hints = (
{
horizontal = 1;
place = (0, 21);
target = up;
type = BottomGhost;
},
{
horizontal = 1;
place = (1036, -20);
target = down;
type = TopGhost;
},
{
horizontal = 1;
place = (1158, 422);
place = (1158, 422);
type = Stem;
},
{
place = (34, 312);
place = (34, 312);
type = Stem;
},
{
place = (127, 211);
place = (127, 211);
type = Stem;
}
);
layerId = "A0B3C83F-707E-46F6-ACEE-65DB6FEE929C";
shapes = (
{
closed = 1;
nodes = (
(34,1492,l),
(232,1158,l),
(346,1211,l),
(217,1580,l)
);
},
{
closed = 1;
nodes = (
(127,0,l),
(338,0,l),
(338,1036,l),
(127,1036,l)
);
}
);
width = 465;
}
);
unicode = 236;
},
{
glyphname = ij;
kernLeft = at;
lastChange = "2024-01-12 17:09:58 +0000";
layers = (
{
hints = (
{
horizontal = 1;
place = (-391, 211);
place = (-391, 211);
type = Stem;
},
{
horizontal = 1;
place = (0, 21);
target = up;
type = BottomGhost;
},
{
horizontal = 1;
place = (1036, -20);
target = down;
type = TopGhost;
},
{
horizontal = 1;
place = (1188, 260);
place = (1188, 260);
type = Stem;
},
{
place = (96, 260);
place = (96, 260);
type = Stem;
},
{
place = (120, 212);
place = (120, 212);
type = Stem;
},
{
place = (573, 260);
place = (573, 260);
type = Stem;
},
{
place = (601, 211);
place = (601, 211);
type = Stem;
}
);
layerId = "A0B3C83F-707E-46F6-ACEE-65DB6FEE929C";
shapes = (
{
closed = 1;
nodes = (
(442,-391,l),
(725,-391,o),
(812,-313,o),
(812,-60,cs),
(812,1036,l),
(601,1036,l),
(601,-60,ls),
(601,-171,o),
(589,-180,o),
(442,-180,c)
);
},
{
closed = 1;
nodes = (
(573,1246,o),
(631,1188,o),
(704,1188,cs),
(776,1188,o),
(833,1245,o),
(833,1317,cs),
(833,1390,o),
(775,1448,o),
(704,1448,cs),
(632,1448,o),
(573,1389,o),
(573,1317,cs)
);
},
{
closed = 1;
nodes = (
(96,1246,o),
(154,1188,o),
(226,1188,cs),
(298,1188,o),
(356,1246,o),
(356,1318,cs),
(356,1390,o),
(298,1448,o),
(226,1448,cs),
(154,1448,o),
(96,1390,o),
(96,1318,cs)
);
},
{
closed = 1;
nodes = (
(120,0,l),
(332,0,l),
(332,1036,l),
(120,1036,l)
);
}
);
width = 929;
}
);
unicode = 307;
},
{
glyphname = imacron;
kernLeft = at;
lastChange = "2024-01-12 17:09:58 +0000";
layers = (
{
hints = (
{
horizontal = 1;
place = (0, 21);
target = up;
type = BottomGhost;
},
{
horizontal = 1;
place = (1036, -20);
target = down;
type = TopGhost;
},
{
horizontal = 1;
place = (1158, 147);
place = (1158, 147);
type = Stem;
},
{
place = (-67, 597);
place = (-67, 597);
type = Stem;
},
{
place = (127, 211);
place = (127, 211);
type = Stem;
}
);
layerId = "A0B3C83F-707E-46F6-ACEE-65DB6FEE929C";
shapes = (
{
closed = 1;
nodes = (
(-67,1158,l),
(530,1158,l),
(530,1305,l),
(-67,1305,l)
);
},
{
closed = 1;
nodes = (
(127,0,l),
(338,0,l),
(338,1036,l),
(127,1036,l)
);
}
);
width = 465;
}
);
unicode = 299;
},
{
glyphname = iogonek;
kernLeft = at;
lastChange = "2024-01-12 17:09:58 +0000";
layers = (
{
hints = (
{
horizontal = 1;
place = (-307, 150);
place = (-307, 150);
type = Stem;
},
{
horizontal = 1;
place = (0, 21);
target = up;
type = BottomGhost;
},
{
horizontal = 1;
place = (1036, -20);
target = down;
type = TopGhost;
},
{
horizontal = 1;
place = (1188, 260);
place = (1188, 260);
type = Stem;
},
{
place = (96, 260);
place = (96, 260);
type = Stem;
},
{
place = (112, 151);
place = (112, 151);
type = Stem;
},
{
place = (120, 212);
place = (120, 212);
type = Stem;
}
);
layerId = "A0B3C83F-707E-46F6-ACEE-65DB6FEE929C";
shapes = (
{
closed = 1;
nodes = (
(112,-266,o),
(160,-307,o),
(264,-307,cs),
(297,-307,o),
(326,-304,o),
(414,-291,c),
(414,-143,l),
(332,-156,o),
(321,-157,o),
(304,-157,cs),
(274,-157,o),
(263,-148,o),
(263,-126,cs),
(263,-106,o),
(270,-83,o),
(302,6,c),
(154,6,l),
(126,-69,o),
(112,-130,o),
(112,-177,cs)
);
},
{
closed = 1;
nodes = (
(96,1246,o),
(154,1188,o),
(226,1188,cs),
(298,1188,o),
(356,1246,o),
(356,1318,cs),
(356,1390,o),
(298,1448,o),
(226,1448,cs),
(154,1448,o),
(96,1390,o),
(96,1318,cs)
);
},
{
closed = 1;
nodes = (
(120,0,l),
(332,0,l),
(332,1036,l),
(120,1036,l)
);
}
);
width = 452;
}
);
unicode = 303;
},
{
glyphname = itilde;
kernLeft = at;
lastChange = "2024-01-12 17:09:58 +0000";
layers = (
{
hints = (
{
horizontal = 1;
place = (0, 21);
target = up;
type = BottomGhost;
},
{
horizontal = 1;
place = (1036, -20);
target = down;
type = TopGhost;
},
{
horizontal = 1;
place = (1158, 154);
place = (1158, 154);
type = Stem;
},
{
horizontal = 1;
place = (1239, 148);
place = (1239, 148);
type = Stem;
},
{
place = (-98, 155);
place = (-98, 155);
type = Stem;
},
{
place = (127, 211);
place = (127, 211);
type = Stem;
},
{
place = (403, 157);
place = (403, 157);
type = Stem;
}
);
layerId = "A0B3C83F-707E-46F6-ACEE-65DB6FEE929C";
shapes = (
{
closed = 1;
nodes = (
(57,1166,l),
(57,1216,o),
(71,1239,o),
(102,1239,cs),
(133,1239,o),
(160,1230,o),
(235,1198,cs),
(305,1168,o),
(337,1158,o),
(368,1158,cs),
(475,1158,o),
(560,1258,o),
(560,1382,c),
(403,1382,l),
(403,1334,o),
(389,1312,o),
(358,1312,cs),
(327,1312,o),
(300,1320,o),
(227,1350,cs),
(159,1378,o),
(127,1387,o),
(96,1387,cs),
(-16,1387,o),
(-97,1294,o),
(-98,1166,c)
);
},
{
closed = 1;
nodes = (
(127,0,l),
(338,0,l),
(338,1036,l),
(127,1036,l)
);
}
);
width = 465;
}
);
unicode = 297;
},
